<?xml version="1.0" standalone="no"?>
<!DOCTYPE svg PUBLIC "-//W3C//DTD SVG 1.1//EN" "http://www.w3.org/Graphics/SVG/1.1/DTD/svg11.dtd" >
<svg xmlns="http://www.w3.org/2000/svg" xmlns:xlink="http://www.w3.org/1999/xlink" version="1.1">
<metadata>
Created by FontForge 20170731 at Mon Jul  5 21:32:08 2021
 By Aleksey,,,
Copyright 2022, Kris Sowersby, Klim Type Foundry.
</metadata>
<defs>
<font id="Sohne-Kraftig" horiz-adv-x="608" >
  <font-face 
    font-family="So:hne Kra:ftig"
    font-weight="500"
    font-stretch="normal"
    units-per-em="1000"
    panose-1="2 11 6 3 3 2 2 6 2 3"
    ascent="800"
    descent="-200"
    x-height="525"
    cap-height="718"
    bbox="-209 -201 1019 1008"
    underline-thickness="100"
    underline-position="-240"
    unicode-range="U+000D-F6C3"
  />
<missing-glyph horiz-adv-x="600" 
d="M0 0v718h600v-718h-600zM132 242l51 -51l117 117l118 -117l50 51l-116 118l116 117l-50 51l-118 -117l-117 117l-51 -51l117 -117z" />
    <glyph glyph-name="f_idieresis" unicode="f&#xef;" horiz-adv-x="556" 
d="M282 729q20 0 44 -3t50 -8v-105q-33 6 -55.5 8.5t-40.5 2.5q-44 0 -63.5 -18t-19.5 -56v-25h107v-102h-107v-423h-120v423h-73v102h73v34q0 83 52.5 126.5t152.5 43.5zM589 595h-128v123h128v-123zM373 525h120v-525h-120v525z" />
    <glyph glyph-name=".notdef" horiz-adv-x="600" 
d="M0 0v718h600v-718h-600zM132 242l51 -51l117 117l118 -117l50 51l-116 118l116 117l-50 51l-118 -117l-117 117l-51 -51l117 -117z" />
    <glyph glyph-name=".null" horiz-adv-x="0" 
 />
    <glyph glyph-name=".null" horiz-adv-x="0" 
 />
    <glyph glyph-name="nonmarkingreturn" unicode="&#xd;" horiz-adv-x="206" 
 />
    <glyph glyph-name="space" unicode=" " horiz-adv-x="206" 
 />
    <glyph glyph-name="exclam" unicode="!" horiz-adv-x="224" 
d="M157 217h-90l-31 501h152zM185 0h-145v145h145v-145z" />
    <glyph glyph-name="quotedbl" unicode="&#x22;" horiz-adv-x="355" 
d="M131 434h-82l-29 284h140zM306 434h-82l-29 284h140z" />
    <glyph glyph-name="numbersign" unicode="#" horiz-adv-x="678" 
d="M183 0h-108l46 192h-91v95h113l35 144h-117v95h139l46 192h109l-46 -192h140l46 192h108l-45 -192h90v-95h-113l-34 -144h117v-95h-140l-45 -192h-110l46 192h-140zM286 431l-34 -144h140l34 144h-140z" />
    <glyph glyph-name="dollar" unicode="$" horiz-adv-x="591" 
d="M0 137l94 80q31 -52 70.5 -81t91.5 -37v220q-58 11 -93 23.5t-60 30.5q-34 24 -50.5 59t-16.5 82q0 85 60.5 143t159.5 69v96h95v-96q76 -10 135 -44t88 -85l-87 -82q-25 42 -59.5 68.5t-76.5 36.5v-204q60 -11 96 -24t61 -32q34 -24 51 -60.5t17 -85.5q0 -88 -62 -148
t-163 -74v-98h-95v97q-85 9 -152 47.5t-104 98.5zM152 523q0 -33 23.5 -54t80.5 -35v189q-49 -9 -76.5 -35t-27.5 -65zM459 205q0 36 -25 58.5t-83 36.5v-200q52 8 80 35t28 70z" />
    <glyph glyph-name="percent" unicode="%" horiz-adv-x="769" 
d="M174 353q-72 0 -113 50.5t-41 137.5t41 137.5t113 50.5t113 -50.5t41 -137.5t-41 -137.5t-113 -50.5zM566 718h116l-479 -718h-116zM174 649q-26 0 -41 -28.5t-15 -79.5t15 -79.5t41 -28.5t41 28.5t15 79.5t-15 79.5t-41 28.5zM595 365q72 0 113 -50.5t41 -137.5
t-41 -137.5t-113 -50.5t-113 50.5t-41 137.5t41 137.5t113 50.5zM595 285q-26 0 -41 -28.5t-15 -79.5t15 -79.5t41 -28.5t41 28.5t15 79.5t-15 79.5t-41 28.5z" />
    <glyph glyph-name="ampersand" unicode="&#x26;" horiz-adv-x="706" 
d="M544 388l119 -20q-7 -60 -29 -118t-57 -106l146 -144h-164l-63 62q-48 -36 -104 -54.5t-117 -18.5q-110 0 -179.5 55t-69.5 144q0 63 34 110t109 87q-40 43 -56.5 79.5t-16.5 75.5q0 41 17 77t48 62q29 24 67.5 37t81.5 13q41 0 77 -11t63 -33q30 -24 46.5 -57.5
t16.5 -71.5q0 -59 -36 -101t-128 -86l146 -144q19 34 31.5 75t17.5 88zM311 636q-40 0 -65.5 -25t-25.5 -64q0 -25 12 -48t49 -62q71 30 93.5 54t22.5 62q0 35 -24.5 59t-61.5 24zM156 202q0 -48 36.5 -78t93.5 -30q37 0 71 11t63 32l-183 179q-43 -24 -62 -51t-19 -63z" />
    <glyph glyph-name="quotesingle" unicode="'" horiz-adv-x="180" 
d="M131 434h-82l-29 284h140z" />
    <glyph glyph-name="parenleft" unicode="(" horiz-adv-x="319" 
d="M157 320q0 -112 43 -222t119 -196h-125q-84 90 -129 197t-45 221t45 221t129 197h125q-77 -88 -119.5 -197.5t-42.5 -220.5z" />
    <glyph glyph-name="parenright" unicode=")" horiz-adv-x="319" 
d="M162 320q0 111 -42.5 220.5t-119.5 197.5h125q84 -90 129 -197t45 -221t-45 -221t-129 -197h-125q76 86 119 196t43 222z" />
    <glyph glyph-name="asterisk" unicode="*" horiz-adv-x="444" 
d="M381 388l-73 -53l-86 118l-86 -118l-73 53l86 118l-139 45l28 85l139 -44v146h90v-146l140 44l27 -85l-140 -45z" />
    <glyph glyph-name="plus" unicode="+" 
d="M562 395v-105h-206v-206h-104v206h-206v105h206v206h104v-206h206z" />
    <glyph glyph-name="comma" unicode="," horiz-adv-x="225" 
d="M106 0h-66v145h145v-152q0 -62 -39 -98.5t-106 -37.5v67q34 2 50 18.5t16 49.5v8z" />
    <glyph glyph-name="hyphen" unicode="-" horiz-adv-x="360" 
d="M320 238h-280v107h280v-107z" />
    <glyph glyph-name="period" unicode="." horiz-adv-x="225" 
d="M185 0h-145v145h145v-145z" />
    <glyph glyph-name="slash" unicode="/" horiz-adv-x="432" 
d="M132 -98h-122l290 836h122z" />
    <glyph glyph-name="zero" unicode="0" horiz-adv-x="632" 
d="M316 -11q-130 0 -206 100.5t-76 269.5t76 269.5t206 100.5t206 -100.5t76 -269.5t-76 -269.5t-206 -100.5zM316 618q-74 0 -114 -68t-40 -191t40 -191t114 -68t114 68t40 191t-40 191t-114 68z" />
    <glyph glyph-name="one" unicode="1" horiz-adv-x="395" 
d="M224 723h97v-723h-128v498h-173v95l70 6q69 6 99 34t35 90z" />
    <glyph glyph-name="two" unicode="2" horiz-adv-x="568" 
d="M37 0v104l180 148q55 45 78 65.5t40 38.5q35 37 51.5 70.5t16.5 66.5q0 57 -33.5 92t-88.5 35q-54 0 -89 -37t-35 -93q0 -17 3 -34.5t9 -33.5h-119q-7 21 -10 37.5t-3 37.5q0 49 19 92t55 76q34 31 79 47.5t94 16.5q111 0 178.5 -62.5t67.5 -165.5q0 -44 -15.5 -85.5
t-47.5 -82.5q-22 -28 -53 -57t-81 -69l-120 -95h326v-112h-502z" />
    <glyph glyph-name="three" unicode="3" horiz-adv-x="575" 
d="M466 43q-34 -26 -78.5 -40t-95.5 -14q-112 0 -185.5 58.5t-88.5 161.5l123 23q9 -63 49.5 -100t99.5 -37q61 0 97 31t36 85q0 51 -36.5 78t-104.5 27h-71v108h70q59 0 91 25t32 72q0 48 -30 75t-83 27q-54 0 -91 -35.5t-48 -96.5l-115 21q15 97 85.5 157t172.5 60
q105 0 167 -55t62 -146q0 -53 -28.5 -96t-73.5 -59q59 -19 91.5 -63t32.5 -107q0 -47 -21 -88.5t-59 -71.5z" />
    <glyph glyph-name="four" unicode="4" horiz-adv-x="610" 
d="M466 175v-175h-117v175h-339v100l296 443h162v-437h132v-106h-134zM347 595l-209 -314h209v314z" />
    <glyph glyph-name="five" unicode="5" horiz-adv-x="574" 
d="M293 375q-35 0 -64.5 -14t-47.5 -39l-116 16l32 380h404v-112h-306l-16 -176q25 23 59 36t72 13q52 0 95.5 -18t75.5 -52q30 -32 46.5 -76.5t16.5 -95.5q0 -52 -19.5 -98t-56.5 -81q-35 -33 -82 -51t-100 -18q-108 0 -178.5 57t-87.5 159l123 22q9 -61 47.5 -96.5
t95.5 -35.5q59 0 98.5 39.5t39.5 98.5q0 62 -36.5 102t-94.5 40z" />
    <glyph glyph-name="six" unicode="6" horiz-adv-x="595" 
d="M330 729q88 0 147.5 -42t86.5 -123l-103 -45q-15 50 -50.5 77t-85.5 27q-74 0 -122.5 -65t-51.5 -167q29 40 76 62.5t103 22.5q49 0 91.5 -18t75.5 -51q32 -33 49 -76.5t17 -92.5q0 -52 -19 -98.5t-55 -80.5q-35 -34 -82 -52t-100 -18q-69 0 -123 30t-90 87
q-29 47 -44.5 109.5t-15.5 134.5q0 76 17.5 141.5t51.5 115.5q40 59 98 90.5t129 31.5zM307 92q60 0 100 39.5t40 99.5q0 59 -40 99.5t-99 40.5t-100 -40.5t-41 -99.5q0 -60 40 -99.5t100 -39.5z" />
    <glyph glyph-name="seven" unicode="7" horiz-adv-x="545" 
d="M400 608h-279v-114h-111v224h525v-111q-63 -69 -105.5 -137.5t-67.5 -142.5q-23 -68 -34 -146.5t-11 -180.5h-130q0 192 51.5 339.5t161.5 268.5z" />
    <glyph glyph-name="eight" unicode="8" horiz-adv-x="602" 
d="M67 531q0 88 66 143t168 55t168 -55t66 -143q0 -52 -26.5 -91.5t-76.5 -62.5q63 -20 101.5 -68t38.5 -110q0 -93 -75.5 -151.5t-195.5 -58.5t-195.5 58.5t-75.5 151.5q0 62 38.5 110t101.5 68q-50 23 -76.5 62.5t-26.5 91.5zM181 529q0 -45 33 -73t87 -28t87 27.5
t33 73.5q0 45 -33 73t-87 28q-53 0 -86.5 -28t-33.5 -73zM447 208q0 51 -41 83.5t-105 32.5t-104.5 -32.5t-40.5 -83.5q0 -53 40 -85.5t105 -32.5t105.5 32.5t40.5 85.5z" />
    <glyph glyph-name="nine" unicode="9" horiz-adv-x="595" 
d="M265 -11q-88 0 -147.5 42t-86.5 123l103 45q15 -50 50.5 -77t85.5 -27q74 0 122.5 65t51.5 167q-29 -40 -76 -62.5t-103 -22.5q-49 0 -91.5 18t-75.5 51q-32 33 -49 76.5t-17 92.5q0 52 19 98.5t55 80.5q35 34 82 52t100 18q69 0 123 -30t90 -87q29 -47 44.5 -109.5
t15.5 -134.5q0 -76 -17.5 -141.5t-51.5 -115.5q-40 -59 -98 -90.5t-129 -31.5zM288 626q-60 0 -100 -39.5t-40 -99.5q0 -59 40 -99.5t99 -40.5t100 40.5t41 99.5q0 60 -40 99.5t-100 39.5z" />
    <glyph glyph-name="colon" unicode=":" horiz-adv-x="225" 
d="M185 0h-145v145h145v-145zM185 349h-145v145h145v-145z" />
    <glyph glyph-name="semicolon" unicode=";" horiz-adv-x="225" 
d="M106 0h-66v145h145v-152q0 -62 -39 -98.5t-106 -37.5v67q34 2 50 18.5t16 49.5v8zM185 349h-145v145h145v-145z" />
    <glyph glyph-name="less" unicode="&#x3c;" 
d="M562 54l-516 221v140l516 220v-119l-415 -171l415 -172v-119z" />
    <glyph glyph-name="equal" unicode="=" 
d="M562 401h-516v105h516v-105zM562 175h-516v105h516v-105z" />
    <glyph glyph-name="greater" unicode="&#x3e;" 
d="M562 415v-140l-516 -221v119l415 172l-415 171v119z" />
    <glyph glyph-name="question" unicode="?" horiz-adv-x="516" 
d="M378 506q0 52 -32.5 83t-86.5 31q-57 0 -92.5 -36t-43.5 -100l-123 19q13 101 85.5 163.5t180.5 62.5q106 0 173 -60t67 -156q0 -81 -51 -137.5t-131 -70.5v-88h-118v169q83 0 127.5 31t44.5 89zM338 0h-145v145h145v-145z" />
    <glyph glyph-name="at" unicode="@" horiz-adv-x="889" 
d="M657 133q44 0 73 48t29 125q0 121 -78 191t-210 70q-70 0 -132 -26t-109 -74q-46 -47 -71 -110t-25 -133q0 -135 86 -214t232 -79q70 0 128 17t110 52l49 -78q-56 -42 -128 -63.5t-157 -21.5q-89 0 -166 25.5t-134 74.5q-61 52 -92.5 125.5t-31.5 161.5q0 89 34 169.5
t97 141.5q62 60 143.5 92t171.5 32q78 0 147 -23.5t121 -68.5q56 -48 85.5 -113.5t29.5 -141.5q0 -54 -13 -100t-39 -82q-29 -41 -71.5 -63.5t-90.5 -22.5q-45 0 -77 14.5t-49 43.5q-19 -27 -52.5 -42.5t-72.5 -15.5q-71 0 -114 47t-43 126q0 45 14 87t39 77q29 38 67 59
t80 21q38 0 67.5 -15.5t43.5 -41.5l10 48h109l-47 -260q-5 -30 4 -44.5t33 -14.5zM422 139q31 0 54 25t33 71q6 29 8 43t2 24q0 28 -16.5 46t-43.5 18q-45 0 -73.5 -41.5t-28.5 -104.5q0 -39 17 -60t48 -21z" />
    <glyph glyph-name="A" unicode="A" horiz-adv-x="709" 
d="M10 0l272 718h145l272 -718h-129l-62 164h-310l-61 -164h-127zM466 276l-114 300l-112 -300h226z" />
    <glyph glyph-name="B" unicode="B" horiz-adv-x="639" 
d="M371 0h-303v718h285q115 0 175.5 -48.5t60.5 -140.5q0 -56 -26.5 -96t-75.5 -59q59 -19 92 -65t33 -109q0 -93 -64.5 -146.5t-176.5 -53.5zM191 610v-189h150q62 0 94.5 24t32.5 71q0 46 -32 70t-95 24h-150zM364 313h-173v-205h173q58 0 91.5 27.5t33.5 75.5
q0 47 -33.5 74.5t-91.5 27.5z" />
    <glyph glyph-name="C" unicode="C" horiz-adv-x="667" 
d="M207 533q-24 -34 -36 -78.5t-12 -95.5t12 -95.5t36 -78.5q27 -40 67 -61.5t87 -21.5q62 0 106 35.5t61 99.5l120 -41q-33 -99 -107.5 -153t-179.5 -54q-73 0 -136 29t-108 83q-42 50 -64 116t-22 142t22 142t64 116q45 54 108 83t136 29q105 0 179.5 -54t107.5 -153
l-120 -41q-17 64 -61 99.5t-106 35.5q-47 0 -87 -21.5t-67 -61.5z" />
    <glyph glyph-name="D" unicode="D" horiz-adv-x="701" 
d="M308 0h-240v718h240q82 0 149 -24.5t114 -72.5q48 -47 73 -114t25 -148t-25 -148t-73 -114q-47 -48 -114 -72.5t-149 -24.5zM193 608v-498h115q109 0 172 67t63 182q0 116 -63 182.5t-173 66.5h-114z" />
    <glyph glyph-name="E" unicode="E" horiz-adv-x="594" 
d="M68 0v718h486v-112h-360v-180h303v-112h-303v-202h360v-112h-486z" />
    <glyph glyph-name="F" unicode="F" horiz-adv-x="577" 
d="M194 299v-299h-126v718h479v-112h-353v-195h296v-112h-296z" />
    <glyph glyph-name="G" unicode="G" horiz-adv-x="727" 
d="M665 0h-117v74q-23 -39 -75 -62t-118 -23q-72 0 -133.5 29t-106.5 83q-41 49 -62.5 114.5t-21.5 140.5q0 76 22.5 143t64.5 118q46 54 109 83t136 29q106 0 181 -53.5t109 -152.5l-122 -41q-16 64 -59.5 99t-107.5 35q-91 0 -148 -71.5t-57 -186.5q0 -116 57 -187.5
t150 -71.5q76 0 124.5 48.5t51.5 127.5h-189v112h312v-387z" />
    <glyph glyph-name="H" unicode="H" horiz-adv-x="736" 
d="M540 426v292h128v-718h-128v314h-344v-314h-128v718h128v-292h344z" />
    <glyph glyph-name="I" unicode="I" horiz-adv-x="264" 
d="M68 718h128v-718h-128v718z" />
    <glyph glyph-name="J" unicode="J" horiz-adv-x="403" 
d="M117 -7q-27 0 -48.5 2t-46.5 6v114q29 -5 44 -6.5t36 -1.5q62 0 89 25.5t27 81.5v504h128v-514q0 -104 -58 -157.5t-171 -53.5z" />
    <glyph glyph-name="K" unicode="K" horiz-adv-x="657" 
d="M68 718h128v-340l298 340h151l-279 -311l295 -407h-151l-227 313l-87 -96v-217h-128v718z" />
    <glyph glyph-name="L" unicode="L" horiz-adv-x="549" 
d="M534 0h-466v718h128v-606h338v-112z" />
    <glyph glyph-name="M" unicode="M" horiz-adv-x="854" 
d="M667 555l-188 -555h-104l-188 555v-555h-119v718h176l185 -550l185 550h172v-718h-119v555z" />
    <glyph glyph-name="N" unicode="N" horiz-adv-x="727" 
d="M536 718h123v-718h-112l-356 527v-527h-123v718h132l336 -503v503z" />
    <glyph glyph-name="O" unicode="O" horiz-adv-x="730" 
d="M119 99q-43 50 -65.5 116.5t-22.5 143.5t22.5 143.5t65.5 116.5q46 53 109 81.5t137 28.5t137 -28.5t109 -81.5q43 -50 65.5 -116.5t22.5 -143.5t-22.5 -143.5t-65.5 -116.5q-46 -53 -109 -81.5t-137 -28.5t-137 28.5t-109 81.5zM365 102q92 0 149 71t57 186t-57 186
t-149 71t-149 -71t-57 -186t57 -186t149 -71z" />
    <glyph glyph-name="P" unicode="P" horiz-adv-x="632" 
d="M355 278h-159v-278h-128v718h287q124 0 192 -57.5t68 -162.5t-68.5 -162.5t-191.5 -57.5zM196 608v-220h152q68 0 104.5 28.5t36.5 81.5q0 54 -36 82t-105 28h-152z" />
    <glyph glyph-name="Q" unicode="Q" horiz-adv-x="730" 
d="M119 99q-43 50 -65.5 116.5t-22.5 143.5t22.5 143.5t65.5 116.5q46 53 109 81.5t137 28.5t137 -28.5t109 -81.5q43 -50 65.5 -116.5t22.5 -143.5q0 -98 -36 -178t-103 -130q22 -28 57 -49t78 -32l-74 -91q-51 15 -96 49t-67 74q-21 -7 -44 -10t-49 -3q-74 0 -137 28.5
t-109 81.5zM365 102q92 0 149 71t57 186t-57 186t-149 71t-149 -71t-57 -186t57 -186t149 -71z" />
    <glyph glyph-name="R" unicode="R" horiz-adv-x="653" 
d="M312 278h-116v-278h-128v718h287q124 0 192 -57.5t68 -162.5q0 -83 -43 -137t-124 -73l185 -288h-146zM196 608v-220h152q68 0 104.5 28.5t36.5 81.5q0 54 -36 82t-105 28h-152z" />
    <glyph glyph-name="S" unicode="S" horiz-adv-x="590" 
d="M296 -11q-94 0 -177 41.5t-124 109.5l98 81q38 -59 92 -91t115 -32q65 0 103.5 28.5t38.5 77.5q0 21 -8.5 36.5t-26.5 26.5q-12 8 -29 14.5t-43 13.5q-14 3 -40 9.5t-35 8.5q-63 15 -96.5 28t-57.5 29q-35 24 -52.5 59t-17.5 82q0 50 20.5 91.5t60.5 71.5q34 27 80 41
t98 14q85 0 156.5 -36t110.5 -97l-94 -81q-35 54 -78 79.5t-99 25.5q-58 0 -94 -26.5t-36 -69.5q0 -26 13 -43t43 -29q13 -5 32.5 -10.5t63.5 -15.5q81 -18 114.5 -30t57.5 -27q42 -25 62.5 -62.5t20.5 -89.5t-22 -95.5t-63 -75.5q-37 -27 -85 -42t-102 -15z" />
    <glyph glyph-name="T" unicode="T" horiz-adv-x="620" 
d="M605 718v-112h-231v-606h-128v606h-231v112h590z" />
    <glyph glyph-name="U" unicode="U" horiz-adv-x="693" 
d="M346 -10q-136 0 -212.5 77.5t-76.5 217.5v433h128v-429q0 -91 41.5 -138.5t119.5 -47.5q79 0 120.5 47.5t41.5 138.5v429h128v-433q0 -141 -76.5 -218t-213.5 -77z" />
    <glyph glyph-name="V" unicode="V" horiz-adv-x="687" 
d="M677 718l-265 -718h-135l-267 718h138l198 -558l199 558h132z" />
    <glyph glyph-name="W" unicode="W" horiz-adv-x="932" 
d="M278 191l133 527h113l134 -527l136 527h128l-194 -718h-126l-136 506l-135 -506h-126l-195 718h132z" />
    <glyph glyph-name="X" unicode="X" horiz-adv-x="673" 
d="M512 718h140l-241 -353l251 -365h-144l-183 270l-184 -270h-140l251 365l-242 353h144l174 -257z" />
    <glyph glyph-name="Y" unicode="Y" horiz-adv-x="647" 
d="M139 718l186 -305l186 305h136l-259 -422v-296h-128v296l-260 422h139z" />
    <glyph glyph-name="Z" unicode="Z" horiz-adv-x="629" 
d="M200 112h397v-112h-560v99l394 507h-390v112h552v-99z" />
    <glyph glyph-name="bracketleft" unicode="[" horiz-adv-x="301" 
d="M291 640h-130v-641h130v-97h-251v836h251v-98z" />
    <glyph glyph-name="backslash" unicode="\" horiz-adv-x="432" 
d="M300.008 -98h121.993l-289.982 836h-121.993z" />
    <glyph glyph-name="bracketright" unicode="]" horiz-adv-x="301" 
d="M140 -1v641h-130v98h251v-836h-251v97h130z" />
    <glyph glyph-name="asciicircum" unicode="^" horiz-adv-x="470" 
d="M15 410l161 308h118l161 -308h-125l-95 191l-96 -191h-124z" />
    <glyph glyph-name="underscore" unicode="_" horiz-adv-x="434" 
d="M394 -156h-354v101h354v-101z" />
    <glyph glyph-name="grave" unicode="`" horiz-adv-x="600" 
d="M350 718l60 -141h-95l-113 141h148z" />
    <glyph glyph-name="a" unicode="a" horiz-adv-x="531" 
d="M358 50q-25 -28 -65.5 -43.5t-90.5 -15.5q-77 0 -127 43.5t-50 111.5q0 65 43 105.5t133 59.5l145 30v9q0 40 -22.5 60.5t-67.5 20.5q-41 0 -65.5 -18.5t-35.5 -58.5l-113 26q21 71 79.5 113t139.5 42q98 0 150 -46.5t52 -134.5v-226q0 -22 10.5 -30t35.5 -5v-93
q-64 -7 -100.5 5t-50.5 45zM220 87q54 0 90 27t36 71v64l-113 -24q-49 -11 -69 -28t-20 -46q0 -30 20.5 -47t55.5 -17z" />
    <glyph glyph-name="b" unicode="b" horiz-adv-x="595" 
d="M507 73q-31 -41 -75.5 -62.5t-97.5 -21.5q-47 0 -85.5 17t-65.5 49v-55h-120v718h120v-249q27 32 65.5 49t85.5 17q53 0 97.5 -21.5t75.5 -62.5q28 -37 43 -85.5t15 -103.5t-15 -103.5t-43 -85.5zM310 430q-59 0 -94.5 -41.5t-35.5 -111.5v-31q0 -69 36 -110.5t94 -41.5
q63 0 98.5 45t35.5 123t-35.5 123t-98.5 45z" />
    <glyph glyph-name="c" unicode="c" horiz-adv-x="519" 
d="M288 432q-63 0 -100.5 -46t-37.5 -124t37.5 -123.5t100.5 -45.5q44 0 75 26t43 74l103 -52q-22 -69 -81.5 -110.5t-139.5 -41.5q-56 0 -104.5 20.5t-83.5 58.5q-34 37 -52 86.5t-18 107.5t18 107.5t52 86.5q35 38 83.5 58.5t104.5 20.5q79 0 137.5 -40t81.5 -108
l-101 -55q-12 47 -43 73.5t-75 26.5z" />
    <glyph glyph-name="d" unicode="d" horiz-adv-x="595" 
d="M261 -11q-53 0 -97.5 21.5t-75.5 62.5q-28 37 -43 85.5t-15 103.5t15 103.5t43 85.5q31 41 75.5 62.5t97.5 21.5q47 0 85.5 -17t65.5 -49v249h120v-718h-120v55q-27 -32 -65.5 -49t-85.5 -17zM415 246v31q0 70 -35.5 111.5t-94.5 41.5q-63 0 -98.5 -45t-35.5 -123
t35.5 -123t98.5 -45q58 0 94 41.5t36 110.5z" />
    <glyph glyph-name="e" unicode="e" horiz-adv-x="540" 
d="M285 -11q-56 0 -104 20.5t-83 58.5q-33 37 -50.5 86.5t-17.5 107.5q0 55 17.5 104.5t49.5 86.5q35 40 82 61t101 21q107 0 170 -71.5t63 -187.5v-40h-368q7 -67 44.5 -106t95.5 -39q45 0 77.5 22.5t44.5 61.5l103 -39q-28 -69 -87.5 -108t-137.5 -39zM279 434
q-48 0 -81.5 -28t-46.5 -80h241q-1 49 -31 78.5t-82 29.5z" />
    <glyph glyph-name="f" unicode="f" horiz-adv-x="310" 
d="M256 729h28t22 -1v-105q-8 1 -14.5 1h-21.5q-41 0 -57 -17t-16 -57v-25h107v-102h-107v-423h-120v423h-73v102h73v34q0 83 46 126.5t133 43.5z" />
    <glyph glyph-name="g" unicode="g" horiz-adv-x="594" 
d="M530 525v-472q0 -112 -69.5 -178t-186.5 -66q-93 0 -154 39t-85 114l112 40q12 -46 45.5 -71t81.5 -25q66 0 101 34.5t35 101.5v37q-23 -31 -62.5 -48.5t-85.5 -17.5q-52 0 -96 20t-75 59q-29 35 -44 82t-15 100t15 100t44 82q31 39 75 59t96 20q46 0 85.5 -18t62.5 -48
v56h120zM412 267v12q0 70 -34.5 110.5t-92.5 40.5q-62 0 -97 -41t-35 -115q0 -73 35 -114.5t97 -41.5q58 0 92.5 40t34.5 109z" />
    <glyph glyph-name="h" unicode="h" horiz-adv-x="563" 
d="M183 0h-120v718h120v-249q28 32 64.5 49t80.5 17q81 0 128.5 -51.5t47.5 -137.5v-346h-120v311q0 54 -23.5 83t-68.5 29q-46 0 -77.5 -32t-31.5 -83v-308z" />
    <glyph glyph-name="i" unicode="i" horiz-adv-x="246" 
d="M185 595h-124v123h124v-123zM63 525h120v-525h-120v525z" />
    <glyph glyph-name="j" unicode="j" horiz-adv-x="246" 
d="M185 595h-124v123h124v-123zM-2 -80q35 0 50 14.5t15 47.5v543h120v-566q0 -68 -43 -105t-119 -37q-18 0 -31 0.5t-27 2.5v102q13 -1 20 -1.5t15 -0.5z" />
    <glyph glyph-name="k" unicode="k" horiz-adv-x="546" 
d="M63 718h120v-414l202 221h147l-198 -204l214 -321h-139l-157 237l-69 -70v-167h-120v718z" />
    <glyph glyph-name="l" unicode="l" horiz-adv-x="246" 
d="M63 718h120v-718h-120v718z" />
    <glyph glyph-name="m" unicode="m" horiz-adv-x="866" 
d="M287 423q-44 0 -74 -32t-30 -83v-308h-120v525h120v-56q27 33 63.5 49.5t80.5 16.5q45 0 80.5 -18.5t58.5 -54.5q35 37 75.5 55t87.5 18q80 0 129 -52t49 -137v-346h-120v311q0 55 -22.5 83.5t-65.5 28.5q-44 0 -74 -32t-30 -83v-308h-120v311q0 55 -22.5 83.5
t-65.5 28.5z" />
    <glyph glyph-name="n" unicode="n" horiz-adv-x="563" 
d="M183 0h-120v525h120v-56q28 32 64.5 49t80.5 17q81 0 128.5 -51.5t47.5 -137.5v-346h-120v311q0 54 -23.5 83t-68.5 29q-46 0 -77.5 -32t-31.5 -83v-308z" />
    <glyph glyph-name="o" unicode="o" horiz-adv-x="566" 
d="M469 455q33 -36 50 -85.5t17 -107.5t-17 -107.5t-50 -85.5q-35 -39 -82.5 -59.5t-103.5 -20.5t-103.5 20.5t-82.5 59.5q-33 36 -50 85.5t-17 107.5t17 107.5t50 85.5q35 39 82.5 59.5t103.5 20.5t103.5 -20.5t82.5 -59.5zM283 434q-61 0 -96.5 -46t-35.5 -126t35.5 -126
t96.5 -46t96.5 46t35.5 126t-35.5 126t-96.5 46z" />
    <glyph glyph-name="p" unicode="p" horiz-adv-x="595" 
d="M507 73q-31 -41 -75.5 -62.5t-97.5 -21.5q-47 0 -85.5 17t-65.5 49v-235h-120v705h120v-56q27 32 65.5 49t85.5 17q53 0 97.5 -21.5t75.5 -62.5q28 -37 43 -85.5t15 -103.5t-15 -103.5t-43 -85.5zM310 430q-59 0 -94.5 -41.5t-35.5 -111.5v-31q0 -69 36 -110.5t94 -41.5
q63 0 98.5 45t35.5 123t-35.5 123t-98.5 45z" />
    <glyph glyph-name="q" unicode="q" horiz-adv-x="595" 
d="M261 -11q-53 0 -97.5 21.5t-75.5 62.5q-28 37 -43 85.5t-15 103.5t15 103.5t43 85.5q31 41 75.5 62.5t97.5 21.5q47 0 85.5 -17t65.5 -49v56h120v-705h-120v235q-27 -32 -65.5 -49t-85.5 -17zM415 246v31q0 70 -35.5 111.5t-94.5 41.5q-63 0 -98.5 -45t-35.5 -123
t35.5 -123t98.5 -45q58 0 94 41.5t36 110.5z" />
    <glyph glyph-name="r" unicode="r" horiz-adv-x="381" 
d="M327 528q8 0 16 -0.5t18 -1.5v-120q-12 2 -22 2.5t-22 0.5q-60 0 -97 -36.5t-37 -96.5v-276h-120v525h120v-78q18 37 56.5 59t87.5 22z" />
    <glyph glyph-name="s" unicode="s" horiz-adv-x="494" 
d="M249 -11q-77 0 -142 30t-99 81l90 72q23 -38 65 -61.5t87 -23.5t71.5 17t26.5 48q0 19 -11 30.5t-39 19.5q-6 2 -25.5 6t-51.5 11q-51 11 -77 19.5t-45 20.5q-28 19 -42 46t-14 64q0 73 57.5 119.5t147.5 46.5q67 0 125 -27t87 -72l-81 -73q-23 35 -59 54.5t-79 19.5
q-37 0 -59 -15.5t-22 -41.5q0 -16 9.5 -26t30.5 -18q8 -2 19.5 -5t44.5 -10q65 -14 90 -22.5t44 -18.5q34 -19 50.5 -48t16.5 -69q0 -76 -61.5 -125t-154.5 -49z" />
    <glyph glyph-name="t" unicode="t" horiz-adv-x="338" 
d="M228 -6q-83 0 -118.5 32.5t-35.5 105.5v291h-73v102h73v154h118v-154h110v-102h-110v-272q0 -28 14 -40t56 -12q12 0 22 0.5t27 2.5v-101q-18 -3 -40 -5t-43 -2z" />
    <glyph glyph-name="u" unicode="u" horiz-adv-x="563" 
d="M380 525h120v-525h-120v56q-29 -33 -64.5 -50t-78.5 -17q-82 0 -130 51t-48 137v348h120v-322q0 -51 23.5 -78t69.5 -27t77 32t31 83v312z" />
    <glyph glyph-name="v" unicode="v" horiz-adv-x="509" 
d="M507 525l-192 -525h-121l-192 525h126l128 -381l127 381h124z" />
    <glyph glyph-name="w" unicode="w" horiz-adv-x="720" 
d="M220 177l93 348h99l94 -348l93 348h119l-158 -525h-104l-96 344l-96 -344h-104l-158 525h123z" />
    <glyph glyph-name="x" unicode="x" horiz-adv-x="512" 
d="M512 0h-135l-124 182l-123 -182h-130l185 272l-172 253h136l108 -164l110 164h131l-172 -253z" />
    <glyph glyph-name="y" unicode="y" horiz-adv-x="509" 
d="M507 525l-216 -574q-27 -73 -71 -104t-114 -31q-13 0 -22 0.5t-27 2.5v101q15 -2 23 -2.5t17 -0.5q32 0 48 11.5t28 41.5l20 49l-191 506h126l129 -368l126 368h124z" />
    <glyph glyph-name="z" unicode="z" horiz-adv-x="499" 
d="M186 102h277v-102h-428v90l282 333h-278v102h421v-91z" />
    <glyph glyph-name="braceleft" unicode="{" horiz-adv-x="361" 
d="M67 271h-47v98h47q30 0 45 21t15 64v112q0 82 49.5 127t138.5 45h36v-98h-16q-51 0 -74 -23.5t-23 -76.5v-86q0 -52 -18.5 -85t-58.5 -49q40 -16 58.5 -49t18.5 -85v-86q0 -53 23 -76.5t74 -23.5h16v-98h-36q-89 0 -138.5 45t-49.5 127v112q0 43 -15 64t-45 21z" />
    <glyph glyph-name="bar" unicode="|" horiz-adv-x="258" 
d="M188 -98h-118v836h118v-836z" />
    <glyph glyph-name="braceright" unicode="}" horiz-adv-x="361" 
d="M341 369v-98h-47q-30 0 -45 -21t-15 -64v-112q0 -82 -49.5 -127t-138.5 -45h-36v98h16q51 0 74 23.5t23 76.5v86q0 52 18.5 85t58.5 49q-40 16 -58.5 49t-18.5 85v86q0 53 -23 76.5t-74 23.5h-16v98h36q89 0 138.5 -45t49.5 -127v-112q0 -43 15 -64t45 -21h47z" />
    <glyph glyph-name="asciitilde" unicode="~" horiz-adv-x="493" 
d="M172 410q18 0 35 -7t46 -29q22 -18 33 -23t22 -5q22 0 33.5 15t18.5 50h93q-6 -88 -41 -139.5t-91 -51.5q-18 0 -35.5 7.5t-45.5 29.5q-22 18 -33 23t-21 5q-22 0 -34 -15t-19 -50h-93q6 87 41 138.5t91 51.5z" />
    <glyph glyph-name="uni00A0" unicode="&#xa0;" horiz-adv-x="206" 
 />
    <glyph glyph-name="exclamdown" unicode="&#xa1;" horiz-adv-x="224" 
d="M157 501.014h-90l-31 -500.97h152zM185 718h-145v-144.991h145v144.991z" />
    <glyph glyph-name="cent" unicode="&#xa2;" horiz-adv-x="556" 
d="M332 -106h-91v100q-98 18 -156.5 92.5t-58.5 182.5q0 107 58.5 181.5t156.5 92.5v114h91v-111q71 -9 122.5 -49t75.5 -104l-96 -55q-12 45 -38 72.5t-64 35.5v-355q38 8 64 35.5t38 72.5l96 -55q-24 -64 -75.5 -104t-122.5 -49v-97zM140 269q0 -66 26.5 -111.5
t74.5 -61.5v345q-48 -16 -74.5 -61.5t-26.5 -110.5z" />
    <glyph glyph-name="sterling" unicode="&#xa3;" horiz-adv-x="610" 
d="M185 285h-128v95h73q-20 33 -29 61.5t-9 56.5q0 50 18.5 93t52.5 75q33 31 77.5 47t95.5 16q103 0 167.5 -64t64.5 -165q0 -19 -2.5 -37t-9.5 -41h-117q7 16 10.5 34t3.5 37q0 59 -31.5 94.5t-85.5 35.5q-56 0 -90.5 -36.5t-34.5 -95.5q0 -23 7.5 -45t32.5 -66h148v-95
h-105q4 -15 6 -31t2 -33q0 -16 -2 -33.5t-7 -35.5q36 -29 63 -40.5t54 -11.5q41 0 60.5 24.5t22.5 79.5h104q0 -98 -45.5 -156.5t-123.5 -58.5q-46 0 -88.5 17.5t-86.5 56.5q-24 -36 -57.5 -55t-71.5 -19q-57 0 -93 34t-35 88t38.5 88.5t96.5 34.5q18 0 35.5 -4t34.5 -12
q-1 17 -5 33.5t-11 33.5zM133 151q-19 0 -30 -10t-11 -28q0 -15 10 -24.5t25 -9.5q18 0 33 12.5t25 35.5q-16 13 -28.5 18.5t-23.5 5.5z" />
    <glyph glyph-name="yen" unicode="&#xa5;" horiz-adv-x="623" 
d="M252 180h-171v90h171v66h-171v90h118l-199 292h141l172 -266l173 266h137l-199 -292h118v-90h-171v-66h171v-90h-171v-180h-119v180z" />
    <glyph glyph-name="section" unicode="&#xa7;" horiz-adv-x="517" 
d="M252 -11q-78 0 -143.5 29.5t-99.5 81.5l90 72q23 -38 65.5 -61.5t88.5 -23.5q45 0 71.5 16t26.5 45q0 21 -11.5 33t-38.5 21q-7 2 -27 6t-53 11q-52 10 -78 19t-44 21q-29 18 -43 45.5t-14 64.5q0 31 12 56t37 46q-18 17 -27 40t-9 52q0 73 58 119.5t149 46.5
q68 0 126.5 -27t87.5 -72l-82 -73q-22 35 -58.5 54.5t-80.5 19.5q-38 0 -60.5 -15.5t-22.5 -41.5q0 -16 10 -26t33 -18q7 -2 17.5 -4.5t47.5 -10.5q65 -14 90 -22.5t44 -18.5q34 -19 50.5 -48t16.5 -69q0 -31 -11 -57.5t-32 -47.5q16 -17 24 -39t8 -50q0 -77 -62 -125.5
t-156 -48.5zM200 336q8 -2 19 -5t46 -10q25 -5 44.5 -9.5t36.5 -9.5q9 8 13.5 18t4.5 22q0 21 -11 33t-37 20q-8 3 -27.5 7t-51.5 11q-12 2 -25 5t-27 7q-13 -8 -20 -19.5t-7 -25.5q0 -16 9.5 -26t32.5 -18z" />
    <glyph glyph-name="dieresis" unicode="&#xa8;" horiz-adv-x="600" 
d="M272 595h-128v123h128v-123zM456 595h-128v123h128v-123z" />
    <glyph glyph-name="copyright" unicode="&#xa9;" horiz-adv-x="815" 
d="M671 623q52 -51 79 -119t27 -145q0 -76 -27.5 -144t-78.5 -119q-51 -52 -119 -79.5t-144 -27.5t-144 27.5t-120 78.5q-51 51 -78.5 119t-27.5 145t27.5 145t78.5 119t119.5 78.5t144.5 27.5t144 -27.5t119 -78.5zM625 141q42 43 64.5 99t22.5 119t-22.5 119.5t-64.5 98.5
t-98 65t-119 23t-119 -22.5t-99 -65.5q-42 -42 -64.5 -98t-22.5 -120q0 -63 22.5 -119t65.5 -99q42 -42 98 -65t119 -23q62 0 118 23t99 65zM413 150q-86 0 -140.5 58t-54.5 152t54.5 152t140.5 58q64 0 108 -30.5t64 -88.5l-98 -35q-6 29 -26 45.5t-48 16.5q-41 0 -65 -32
t-24 -86t24 -86t65 -32q29 0 48.5 16.5t25.5 45.5l98 -35q-20 -58 -64 -88.5t-108 -30.5z" />
    <glyph glyph-name="ordfeminine" unicode="&#xaa;" horiz-adv-x="398" 
d="M261 378q-18 -21 -46.5 -31.5t-64.5 -10.5q-56 0 -92 31t-36 80q0 48 33 77.5t102 42.5l94 17v7q0 26 -14.5 39t-43.5 13q-27 0 -43 -12t-22 -38l-95 17q14 52 58 83.5t106 31.5q73 0 112 -33.5t39 -96.5v-153q0 -16 7 -21t24 -3v-75q-47 -7 -76.5 2t-41.5 33zM169 412
q35 0 58.5 17.5t23.5 46.5v39l-74 -15q-31 -6 -44 -17t-13 -30t13 -30t36 -11zM379 192h-353v90h353v-90z" />
    <glyph glyph-name="guillemotleft" unicode="&#xab;" horiz-adv-x="411" 
d="M181 69l-161 131v120l161 131v-120l-76 -71l76 -71v-120zM391 69l-161 131v120l161 131v-120l-76 -71l76 -71v-120z" />
    <glyph glyph-name="registered" unicode="&#xae;" horiz-adv-x="518" 
d="M416 665q31 -30 47.5 -70.5t16.5 -86.5t-16.5 -86.5t-47.5 -70.5q-30 -31 -71 -47.5t-86 -16.5t-86 16.5t-71 47.5q-31 30 -47.5 70.5t-16.5 86.5t16.5 86.5t47.5 70.5q30 31 71 47.5t86 16.5t86 -16.5t71 -47.5zM392 373q26 27 40 61.5t14 73.5t-14 73.5t-39 61.5
q-26 26 -61 40.5t-73 14.5t-73 -14.5t-61 -40.5q-25 -27 -39 -61.5t-14 -73.5t14 -73.5t40 -61.5q26 -26 60.5 -40.5t72.5 -14.5t72.5 14.5t60.5 40.5zM312 490l57 -90h-70l-45 74h-30v-74h-63v223h108q42 0 65.5 -19t23.5 -53q0 -21 -11.5 -36.5t-34.5 -24.5zM293 546
q0 12 -8.5 19t-24.5 7h-36v-52h36q16 0 24.5 7t8.5 19z" />
    <glyph glyph-name="macron" unicode="&#xaf;" horiz-adv-x="600" 
d="M446 691v-95h-292v95h292z" />
    <glyph glyph-name="degree" unicode="&#xb0;" horiz-adv-x="321" 
d="M10 579q0 62 44 106t106 44q63 0 107 -43.5t44 -106.5t-44 -107t-107 -44q-62 0 -106 44.5t-44 106.5zM91 579q0 -28 20 -48.5t49 -20.5q30 0 49.5 20t19.5 49t-19.5 49t-49.5 20q-29 0 -49 -20.5t-20 -48.5z" />
    <glyph glyph-name="twosuperior" unicode="&#xb2;" horiz-adv-x="380" 
d="M42 320v78l137 108q29 22 41.5 41t12.5 40q0 22 -13.5 35.5t-35.5 13.5t-35.5 -14.5t-13.5 -37.5q0 -11 2 -22t5 -17h-94q-4 11 -6 22t-2 23q0 58 42.5 96t104.5 38q65 0 104 -35.5t39 -93.5q0 -39 -22 -74t-69 -70l-60 -45h158v-86h-295z" />
    <glyph glyph-name="threesuperior" unicode="&#xb3;" horiz-adv-x="380" 
d="M339 433q0 -52 -40.5 -85.5t-105.5 -33.5q-66 0 -108 33t-50 91l100 15q2 -25 18 -40t39 -15t37.5 12.5t14.5 33.5q0 19 -15.5 31t-40.5 12h-38v71h35q24 0 38.5 11t14.5 30t-12.5 30t-33.5 11t-36 -14t-19 -37l-94 8q7 57 49 92t104 35t100.5 -32.5t38.5 -84.5
q0 -29 -18 -52.5t-44 -30.5q31 -11 48.5 -34.5t17.5 -56.5z" />
    <glyph glyph-name="acute" unicode="&#xb4;" horiz-adv-x="600" 
d="M285 577h-95l60 141h148z" />
    <glyph glyph-name="paragraph" unicode="&#xb6;" horiz-adv-x="595" 
d="M496 0h-120v609h-72v-272h-78q-92 0 -147.5 51.5t-55.5 136.5q0 87 59 140t157 53h332v-109h-75v-609z" />
    <glyph glyph-name="periodcentered" unicode="&#xb7;" horiz-adv-x="225" 
d="M185 217h-145v145h145v-145z" />
    <glyph glyph-name="cedilla" unicode="&#xb8;" horiz-adv-x="600" 
d="M410 -101q0 -39 -34 -64t-85 -25q-32 0 -58 9t-45 27l42 60q11 -13 24.5 -20t30.5 -7q19 0 29.5 6.5t10.5 18.5q0 14 -17 21.5t-55 9.5l23 77h62l-10 -33q39 -5 60.5 -26t21.5 -54z" />
    <glyph glyph-name="onesuperior" unicode="&#xb9;" horiz-adv-x="380" 
d="M154 406v182h-95v65l35 2q40 2 59 16.5t26 47.5h75v-313h77v-86h-267v86h90z" />
    <glyph glyph-name="ordmasculine" unicode="&#xba;" horiz-adv-x="421" 
d="M210 725q82 0 133 -54t51 -141t-51.5 -141t-132.5 -54t-132.5 54t-51.5 141t51 141t133 54zM210 643q-39 0 -61.5 -30t-22.5 -83t22.5 -82.5t61.5 -29.5q40 0 62.5 30t22.5 82q0 53 -23 83t-62 30zM378 192h-333v90h333v-90z" />
    <glyph glyph-name="guillemotright" unicode="&#xbb;" horiz-adv-x="411" 
d="M391 320v-120l-161 -131v120l76 71l-76 71v120zM181 320v-120l-161 -131v120l76 71l-76 71v120z" />
    <glyph glyph-name="onequarter" unicode="&#xbc;" horiz-adv-x="876" 
d="M799 89v-89h-92v89h-179v72l147 237h124v-232h52v-77h-52zM705 319l-98 -153h98v153zM171 0l504 718h101l-503 -718h-102zM154 406v182h-95v65l35 2q40 2 59 16.5t26 47.5h75v-313h77v-86h-267v86h90z" />
    <glyph glyph-name="onehalf" unicode="&#xbd;" horiz-adv-x="911" 
d="M171 0l504 718h101l-503 -718h-102zM572 0v78l137 108q29 22 41.5 41t12.5 40q0 22 -13.5 35.5t-35.5 13.5t-35.5 -14.5t-13.5 -37.5q0 -11 2 -22t5 -17h-94q-4 11 -6 22t-2 23q0 58 42.5 96t104.5 38q65 0 104 -35.5t39 -93.5q0 -39 -22 -74t-69 -70l-60 -45h158v-86
h-295zM154 406v182h-95v65l35 2q40 2 59 16.5t26 47.5h75v-313h77v-86h-267v86h90z" />
    <glyph glyph-name="threequarters" unicode="&#xbe;" horiz-adv-x="856" 
d="M789 89v-89h-92v89h-179v72l147 237h124v-232h52v-77h-52zM695 319l-98 -153h98v153zM161 0l504 718h101l-503 -718h-102zM339 433q0 -52 -40.5 -85.5t-105.5 -33.5q-66 0 -108 33t-50 91l100 15q2 -25 18 -40t39 -15t37.5 12.5t14.5 33.5q0 19 -15.5 31t-40.5 12h-38v71
h35q24 0 38.5 11t14.5 30t-12.5 30t-33.5 11t-36 -14t-19 -37l-94 8q7 57 49 92t104 35t100.5 -32.5t38.5 -84.5q0 -29 -18 -52.5t-44 -30.5q31 -11 48.5 -34.5t17.5 -56.5z" />
    <glyph glyph-name="questiondown" unicode="&#xbf;" horiz-adv-x="516" 
d="M138.023 223.031q0 -51.9971 32.498 -82.9951t86.4941 -30.998q56.9971 0 92.4941 35.9971q35.498 35.998 43.498 99.9941l122.992 -18.999q-12.999 -100.993 -85.4951 -163.489q-72.4951 -62.4961 -180.488 -62.4961q-105.994 0 -172.99 59.9961
q-66.9951 59.9961 -66.9951 155.99q0 80.9951 50.9961 137.491q50.9971 56.4971 130.992 70.4961v87.9951h117.993v-168.99q-82.9951 0 -127.492 -30.998t-44.4971 -88.9941zM178.021 729h144.991v-144.991h-144.991v144.991z" />
    <glyph glyph-name="Agrave" unicode="&#xc0;" horiz-adv-x="709" 
d="M10 0l272 718h145l272 -718h-129l-62 164h-310l-61 -164h-127zM466 276l-114 300l-112 -300h226zM319 907l89 -147h-95l-159 147h165z" />
    <glyph glyph-name="Aacute" unicode="&#xc1;" horiz-adv-x="709" 
d="M10 0l272 718h145l272 -718h-129l-62 164h-310l-61 -164h-127zM466 276l-114 300l-112 -300h226zM397 760h-95l89 147h165z" />
    <glyph glyph-name="Acircumflex" unicode="&#xc2;" horiz-adv-x="709" 
d="M10 0l272 718h145l272 -718h-129l-62 164h-310l-61 -164h-127zM466 276l-114 300l-112 -300h226zM284 907h140l116 -147h-95l-91 71l-91 -71h-95z" />
    <glyph glyph-name="Atilde" unicode="&#xc3;" horiz-adv-x="709" 
d="M10 0l272 718h145l272 -718h-129l-62 164h-310l-61 -164h-127zM466 276l-114 300l-112 -300h226zM283 916q18 0 36 -6.5t47 -27.5q21 -14 31 -18.5t19 -4.5q17 0 27.5 13t16.5 44h81q-5 -72 -36 -113.5t-81 -41.5q-18 0 -36 6.5t-46 27.5q-21 14 -31 18.5t-19 4.5
q-18 0 -28.5 -13.5t-15.5 -43.5h-81q4 72 35 113.5t81 41.5z" />
    <glyph glyph-name="Adieresis" unicode="&#xc4;" horiz-adv-x="709" 
d="M10 0l272 718h145l272 -718h-129l-62 164h-310l-61 -164h-127zM466 276l-114 300l-112 -300h226zM321 760h-128v123h128v-123zM515 760h-128v123h128v-123z" />
    <glyph glyph-name="Aring" unicode="&#xc5;" horiz-adv-x="709" 
d="M225 792q0 52 37 87.5t92 35.5q56 0 92.5 -35.5t36.5 -87.5q0 -29 -12.5 -54.5t-34.5 -43.5l263 -694h-129l-62 164h-310l-61 -164h-127l263 694q-23 17 -35.5 43t-12.5 55zM354 845q-23 0 -37.5 -15t-14.5 -38q0 -24 14.5 -38.5t37.5 -14.5t37.5 14.5t14.5 38.5
q0 23 -14.5 38t-37.5 15zM466 276l-114 300l-112 -300h226z" />
    <glyph glyph-name="AE" unicode="&#xc6;" horiz-adv-x="1024" 
d="M0 0l424 718h560v-112h-360v-180h303v-112h-303v-202h360v-112h-486v174h-257l-102 -174h-139zM498 614l-192 -328h192v328z" />
    <glyph glyph-name="Ccedilla" unicode="&#xc7;" horiz-adv-x="667" 
d="M207 533q-24 -34 -36 -78.5t-12 -95.5t12 -95.5t36 -78.5q27 -40 67 -61.5t87 -21.5q62 0 106 35.5t61 99.5l120 -41q-32 -96 -103 -149.5t-172 -57.5l-3 -10q39 -5 60.5 -26t21.5 -54q0 -39 -34 -64t-85 -25q-32 0 -58 9t-45 27l42 60q11 -13 24.5 -20t30.5 -7
q19 0 29.5 6.5t10.5 18.5q0 14 -17 21.5t-55 9.5l17 57q-64 9 -118 42t-92 86q-35 49 -53 109.5t-18 129.5q0 76 22 142t64 116q45 54 108 83t136 29q105 0 179.5 -54t107.5 -153l-120 -41q-17 64 -61 99.5t-106 35.5q-47 0 -87 -21.5t-67 -61.5z" />
    <glyph glyph-name="Egrave" unicode="&#xc8;" horiz-adv-x="594" 
d="M68 0v718h486v-112h-360v-180h303v-112h-303v-202h360v-112h-486zM310 907l89 -147h-95l-159 147h165z" />
    <glyph glyph-name="Eacute" unicode="&#xc9;" horiz-adv-x="594" 
d="M68 0v718h486v-112h-360v-180h303v-112h-303v-202h360v-112h-486zM331 760h-95l89 147h165z" />
    <glyph glyph-name="Ecircumflex" unicode="&#xca;" horiz-adv-x="594" 
d="M68 0v718h486v-112h-360v-180h303v-112h-303v-202h360v-112h-486zM247 907h140l116 -147h-95l-91 71l-91 -71h-95z" />
    <glyph glyph-name="Edieresis" unicode="&#xcb;" horiz-adv-x="594" 
d="M68 0v718h486v-112h-360v-180h303v-112h-303v-202h360v-112h-486zM280 760h-128v123h128v-123zM474 760h-128v123h128v-123z" />
    <glyph glyph-name="Igrave" unicode="&#xcc;" horiz-adv-x="264" 
d="M68 718h128v-718h-128v718zM110 907l89 -147h-95l-159 147h165z" />
    <glyph glyph-name="Iacute" unicode="&#xcd;" horiz-adv-x="264" 
d="M68 718h128v-718h-128v718zM168 760h-95l89 147h165z" />
    <glyph glyph-name="Icircumflex" unicode="&#xce;" horiz-adv-x="264" 
d="M68 718h128v-718h-128v718zM62 907h140l116 -147h-95l-91 71l-91 -71h-95z" />
    <glyph glyph-name="Idieresis" unicode="&#xcf;" horiz-adv-x="264" 
d="M68 718h128v-718h-128v718zM99 760h-128v123h128v-123zM293 760h-128v123h128v-123z" />
    <glyph glyph-name="Eth" unicode="&#xd0;" horiz-adv-x="711" 
d="M318 0h-240v313h-60v112h60v293h240q82 0 149 -24.5t114 -72.5q48 -47 73 -114t25 -148t-25 -148t-73 -114q-47 -48 -114 -72.5t-149 -24.5zM203 313v-203h115q109 0 172 67t63 182q0 116 -63 182.5t-173 66.5h-114v-183h127v-112h-127z" />
    <glyph glyph-name="Ntilde" unicode="&#xd1;" horiz-adv-x="727" 
d="M536 718h123v-718h-112l-356 527v-527h-123v718h132l336 -503v503zM295 916q18 0 36 -6.5t47 -27.5q21 -14 31 -18.5t19 -4.5q17 0 27.5 13t16.5 44h81q-5 -72 -36 -113.5t-81 -41.5q-18 0 -36 6.5t-46 27.5q-21 14 -31 18.5t-19 4.5q-18 0 -28.5 -13.5t-15.5 -43.5h-81
q4 72 35 113.5t81 41.5z" />
    <glyph glyph-name="Ograve" unicode="&#xd2;" horiz-adv-x="730" 
d="M119 99q-43 50 -65.5 116.5t-22.5 143.5t22.5 143.5t65.5 116.5q46 53 109 81.5t137 28.5t137 -28.5t109 -81.5q43 -50 65.5 -116.5t22.5 -143.5t-22.5 -143.5t-65.5 -116.5q-46 -53 -109 -81.5t-137 -28.5t-137 28.5t-109 81.5zM365 102q92 0 149 71t57 186t-57 186
t-149 71t-149 -71t-57 -186t57 -186t149 -71zM337 907l89 -147h-95l-159 147h165z" />
    <glyph glyph-name="Oacute" unicode="&#xd3;" horiz-adv-x="730" 
d="M119 99q-43 50 -65.5 116.5t-22.5 143.5t22.5 143.5t65.5 116.5q46 53 109 81.5t137 28.5t137 -28.5t109 -81.5q43 -50 65.5 -116.5t22.5 -143.5t-22.5 -143.5t-65.5 -116.5q-46 -53 -109 -81.5t-137 -28.5t-137 28.5t-109 81.5zM365 102q92 0 149 71t57 186t-57 186
t-149 71t-149 -71t-57 -186t57 -186t149 -71zM404 760h-95l89 147h165z" />
    <glyph glyph-name="Ocircumflex" unicode="&#xd4;" horiz-adv-x="730" 
d="M119 99q-43 50 -65.5 116.5t-22.5 143.5t22.5 143.5t65.5 116.5q46 53 109 81.5t137 28.5t137 -28.5t109 -81.5q43 -50 65.5 -116.5t22.5 -143.5t-22.5 -143.5t-65.5 -116.5q-46 -53 -109 -81.5t-137 -28.5t-137 28.5t-109 81.5zM365 102q92 0 149 71t57 186t-57 186
t-149 71t-149 -71t-57 -186t57 -186t149 -71zM295 907h140l116 -147h-95l-91 71l-91 -71h-95z" />
    <glyph glyph-name="Otilde" unicode="&#xd5;" horiz-adv-x="730" 
d="M119 99q-43 50 -65.5 116.5t-22.5 143.5t22.5 143.5t65.5 116.5q46 53 109 81.5t137 28.5t137 -28.5t109 -81.5q43 -50 65.5 -116.5t22.5 -143.5t-22.5 -143.5t-65.5 -116.5q-46 -53 -109 -81.5t-137 -28.5t-137 28.5t-109 81.5zM365 102q92 0 149 71t57 186t-57 186
t-149 71t-149 -71t-57 -186t57 -186t149 -71zM294 916q18 0 36 -6.5t47 -27.5q21 -14 31 -18.5t19 -4.5q17 0 27.5 13t16.5 44h81q-5 -72 -36 -113.5t-81 -41.5q-18 0 -36 6.5t-46 27.5q-21 14 -31 18.5t-19 4.5q-18 0 -28.5 -13.5t-15.5 -43.5h-81q4 72 35 113.5t81 41.5z
" />
    <glyph glyph-name="Odieresis" unicode="&#xd6;" horiz-adv-x="730" 
d="M119 99q-43 50 -65.5 116.5t-22.5 143.5t22.5 143.5t65.5 116.5q46 53 109 81.5t137 28.5t137 -28.5t109 -81.5q43 -50 65.5 -116.5t22.5 -143.5t-22.5 -143.5t-65.5 -116.5q-46 -53 -109 -81.5t-137 -28.5t-137 28.5t-109 81.5zM365 102q92 0 149 71t57 186t-57 186
t-149 71t-149 -71t-57 -186t57 -186t149 -71zM332 760h-128v123h128v-123zM526 760h-128v123h128v-123z" />
    <glyph glyph-name="multiply" unicode="&#xd7;" 
d="M64 176l167 167l-167 167l74 74l167 -167l166 166l74 -74l-166 -166l166 -166l-74 -74l-166 166l-167 -167z" />
    <glyph glyph-name="Oslash" unicode="&#xd8;" horiz-adv-x="730" 
d="M112 -31l-74 58l70 85q-38 49 -57.5 112t-19.5 135q0 77 22.5 143.5t65.5 116.5q46 53 109 81.5t137 28.5q55 0 105.5 -16t92.5 -48l55 67l74 -58l-64 -77q35 -49 53 -109.5t18 -128.5q0 -77 -22.5 -143.5t-65.5 -116.5q-46 -53 -109 -81.5t-137 -28.5q-52 0 -100 14.5
t-89 43.5zM365 616q-92 0 -149 -71t-57 -186q0 -43 8 -80t24 -67l296 361q-25 21 -56 32t-66 11zM365 102q92 0 149 71t57 186q0 39 -6.5 73t-19.5 63l-294 -356q24 -18 53 -27.5t61 -9.5z" />
    <glyph glyph-name="Ugrave" unicode="&#xd9;" horiz-adv-x="693" 
d="M346 -10q-136 0 -212.5 77.5t-76.5 217.5v433h128v-429q0 -91 41.5 -138.5t119.5 -47.5q79 0 120.5 47.5t41.5 138.5v429h128v-433q0 -141 -76.5 -218t-213.5 -77zM336 907l89 -147h-95l-159 147h165z" />
    <glyph glyph-name="Uacute" unicode="&#xda;" horiz-adv-x="693" 
d="M346 -10q-136 0 -212.5 77.5t-76.5 217.5v433h128v-429q0 -91 41.5 -138.5t119.5 -47.5q79 0 120.5 47.5t41.5 138.5v429h128v-433q0 -141 -76.5 -218t-213.5 -77zM376 760h-95l89 147h165z" />
    <glyph glyph-name="Ucircumflex" unicode="&#xdb;" horiz-adv-x="693" 
d="M346 -10q-136 0 -212.5 77.5t-76.5 217.5v433h128v-429q0 -91 41.5 -138.5t119.5 -47.5q79 0 120.5 47.5t41.5 138.5v429h128v-433q0 -141 -76.5 -218t-213.5 -77zM276 907h140l116 -147h-95l-91 71l-91 -71h-95z" />
    <glyph glyph-name="Udieresis" unicode="&#xdc;" horiz-adv-x="693" 
d="M346 -10q-136 0 -212.5 77.5t-76.5 217.5v433h128v-429q0 -91 41.5 -138.5t119.5 -47.5q79 0 120.5 47.5t41.5 138.5v429h128v-433q0 -141 -76.5 -218t-213.5 -77zM313 760h-128v123h128v-123zM507 760h-128v123h128v-123z" />
    <glyph glyph-name="Yacute" unicode="&#xdd;" horiz-adv-x="647" 
d="M139 718l186 -305l186 305h136l-259 -422v-296h-128v296l-260 422h139zM357 760h-95l89 147h165z" />
    <glyph glyph-name="Thorn" unicode="&#xde;" horiz-adv-x="632" 
d="M615 369q0 -105 -68.5 -162.5t-191.5 -57.5h-159v-149h-128v718h128v-129h159q124 0 192 -57.5t68 -162.5zM348 482h-152v-226h152q67 0 104 29.5t37 83.5t-36.5 83.5t-104.5 29.5z" />
    <glyph glyph-name="germandbls" unicode="&#xdf;" horiz-adv-x="578" 
d="M300 729q95 0 153 -48.5t58 -128.5q0 -53 -22.5 -90t-67.5 -57q66 -20 101 -69t35 -120q0 -51 -17 -92.5t-51 -71.5q-31 -29 -74.5 -44.5t-92.5 -15.5q-27 0 -47 2t-42 6v100q19 -4 36.5 -6t35.5 -2q62 0 97.5 32.5t35.5 92.5q0 62 -37.5 94.5t-108.5 32.5h-55v105h43
q54 0 84 25t30 70q0 40 -25.5 62t-70.5 22q-57 0 -86 -37t-29 -107v-484h-120v489q0 109 64 174.5t173 65.5z" />
    <glyph glyph-name="agrave" unicode="&#xe0;" horiz-adv-x="531" 
d="M358 50q-25 -28 -65.5 -43.5t-90.5 -15.5q-77 0 -127 43.5t-50 111.5q0 65 43 105.5t133 59.5l145 30v9q0 40 -22.5 60.5t-67.5 20.5q-41 0 -65.5 -18.5t-35.5 -58.5l-113 26q21 71 79.5 113t139.5 42q98 0 150 -46.5t52 -134.5v-226q0 -22 10.5 -30t35.5 -5v-93
q-64 -7 -100.5 5t-50.5 45zM220 87q54 0 90 27t36 71v64l-113 -24q-49 -11 -69 -28t-20 -46q0 -30 20.5 -47t55.5 -17zM258 718l60 -141h-95l-113 141h148z" />
    <glyph glyph-name="aacute" unicode="&#xe1;" horiz-adv-x="531" 
d="M358 50q-25 -28 -65.5 -43.5t-90.5 -15.5q-77 0 -127 43.5t-50 111.5q0 65 43 105.5t133 59.5l145 30v9q0 40 -22.5 60.5t-67.5 20.5q-41 0 -65.5 -18.5t-35.5 -58.5l-113 26q21 71 79.5 113t139.5 42q98 0 150 -46.5t52 -134.5v-226q0 -22 10.5 -30t35.5 -5v-93
q-64 -7 -100.5 5t-50.5 45zM220 87q54 0 90 27t36 71v64l-113 -24q-49 -11 -69 -28t-20 -46q0 -30 20.5 -47t55.5 -17zM314 577h-95l60 141h148z" />
    <glyph glyph-name="acircumflex" unicode="&#xe2;" horiz-adv-x="531" 
d="M358 50q-25 -28 -65.5 -43.5t-90.5 -15.5q-77 0 -127 43.5t-50 111.5q0 65 43 105.5t133 59.5l145 30v9q0 40 -22.5 60.5t-67.5 20.5q-41 0 -65.5 -18.5t-35.5 -58.5l-113 26q21 71 79.5 113t139.5 42q98 0 150 -46.5t52 -134.5v-226q0 -22 10.5 -30t35.5 -5v-93
q-64 -7 -100.5 5t-50.5 45zM220 87q54 0 90 27t36 71v64l-113 -24q-49 -11 -69 -28t-20 -46q0 -30 20.5 -47t55.5 -17zM202 718h126l99 -141h-92l-70 60l-70 -60h-92z" />
    <glyph glyph-name="atilde" unicode="&#xe3;" horiz-adv-x="531" 
d="M358 50q-25 -28 -65.5 -43.5t-90.5 -15.5q-77 0 -127 43.5t-50 111.5q0 65 43 105.5t133 59.5l145 30v9q0 40 -22.5 60.5t-67.5 20.5q-41 0 -65.5 -18.5t-35.5 -58.5l-113 26q21 71 79.5 113t139.5 42q98 0 150 -46.5t52 -134.5v-226q0 -22 10.5 -30t35.5 -5v-93
q-64 -7 -100.5 5t-50.5 45zM220 87q54 0 90 27t36 71v64l-113 -24q-49 -11 -69 -28t-20 -46q0 -30 20.5 -47t55.5 -17zM199 725q16 0 31.5 -6.5t40.5 -26.5q17 -14 25.5 -18t15.5 -4q15 0 24 12.5t14 42.5h76q-4 -69 -31.5 -108.5t-72.5 -39.5q-16 0 -31.5 6.5t-40.5 25.5
q-17 14 -25.5 18t-15.5 4q-15 0 -24 -12t-14 -42h-76q4 69 31.5 108.5t72.5 39.5z" />
    <glyph glyph-name="adieresis" unicode="&#xe4;" horiz-adv-x="531" 
d="M358 50q-25 -28 -65.5 -43.5t-90.5 -15.5q-77 0 -127 43.5t-50 111.5q0 65 43 105.5t133 59.5l145 30v9q0 40 -22.5 60.5t-67.5 20.5q-41 0 -65.5 -18.5t-35.5 -58.5l-113 26q21 71 79.5 113t139.5 42q98 0 150 -46.5t52 -134.5v-226q0 -22 10.5 -30t35.5 -5v-93
q-64 -7 -100.5 5t-50.5 45zM220 87q54 0 90 27t36 71v64l-113 -24q-49 -11 -69 -28t-20 -46q0 -30 20.5 -47t55.5 -17zM232 595h-128v123h128v-123zM416 595h-128v123h128v-123z" />
    <glyph glyph-name="aring" unicode="&#xe5;" horiz-adv-x="531" 
d="M358 50q-25 -28 -65.5 -43.5t-90.5 -15.5q-77 0 -127 43.5t-50 111.5q0 65 43 105.5t133 59.5l145 30v9q0 40 -22.5 60.5t-67.5 20.5q-41 0 -65.5 -18.5t-35.5 -58.5l-113 26q21 71 79.5 113t139.5 42q98 0 150 -46.5t52 -134.5v-226q0 -22 10.5 -30t35.5 -5v-93
q-64 -7 -100.5 5t-50.5 45zM220 87q54 0 90 27t36 71v64l-113 -24q-49 -11 -69 -28t-20 -46q0 -30 20.5 -47t55.5 -17zM260 561q-47 0 -79 31t-32 76t32 75.5t79 30.5t79 -30.5t32 -75.5t-32 -76t-79 -31zM260 716q-20 0 -33.5 -14t-13.5 -34t13.5 -34t33.5 -14t33.5 14
t13.5 34t-13.5 34t-33.5 14z" />
    <glyph glyph-name="ae" unicode="&#xe6;" horiz-adv-x="850" 
d="M25 148q0 82 65.5 130t175.5 48h80v24q0 40 -22.5 60.5t-67.5 20.5q-41 0 -65.5 -18.5t-35.5 -58.5l-113 26q21 71 79.5 113t139.5 42q57 0 98.5 -17.5t65.5 -51.5q33 34 75 51.5t90 17.5q107 0 170 -71.5t63 -187.5v-40h-368q7 -67 44.5 -106t95.5 -39q45 0 77.5 22.5
t44.5 61.5l103 -39q-28 -69 -87.5 -108t-137.5 -39q-60 0 -110.5 23.5t-84.5 66.5q-31 -43 -81 -65.5t-115 -22.5q-77 0 -128 44t-51 113zM589 434q-48 0 -81.5 -28t-46.5 -80h241q-1 49 -31 78.5t-82 29.5zM144 158q0 -32 22 -51t58 -19q52 0 87 30.5t35 77.5v40h-76
q-67 0 -96.5 -18.5t-29.5 -59.5z" />
    <glyph glyph-name="ccedilla" unicode="&#xe7;" horiz-adv-x="519" 
d="M288 432q-63 0 -100.5 -46t-37.5 -124t37.5 -123.5t100.5 -45.5q44 0 75 26t43 74l103 -52q-21 -67 -78.5 -108.5t-134.5 -43.5l-3 -10q39 -5 60.5 -26t21.5 -54q0 -39 -34 -64t-85 -25q-32 0 -58 9t-45 27l42 60q11 -13 24.5 -20t30.5 -7q19 0 29.5 6.5t10.5 18.5
q0 14 -17 21.5t-55 9.5l18 59q-94 18 -150 90.5t-56 177.5q0 58 18 107.5t52 86.5q35 38 83.5 58.5t104.5 20.5q79 0 137.5 -40t81.5 -108l-101 -55q-12 47 -43 73.5t-75 26.5z" />
    <glyph glyph-name="egrave" unicode="&#xe8;" horiz-adv-x="540" 
d="M285 -11q-56 0 -104 20.5t-83 58.5q-33 37 -50.5 86.5t-17.5 107.5q0 55 17.5 104.5t49.5 86.5q35 40 82 61t101 21q107 0 170 -71.5t63 -187.5v-40h-368q7 -67 44.5 -106t95.5 -39q45 0 77.5 22.5t44.5 61.5l103 -39q-28 -69 -87.5 -108t-137.5 -39zM279 434
q-48 0 -81.5 -28t-46.5 -80h241q-1 49 -31 78.5t-82 29.5zM275 718l60 -141h-95l-113 141h148z" />
    <glyph glyph-name="eacute" unicode="&#xe9;" horiz-adv-x="540" 
d="M285 -11q-56 0 -104 20.5t-83 58.5q-33 37 -50.5 86.5t-17.5 107.5q0 55 17.5 104.5t49.5 86.5q35 40 82 61t101 21q107 0 170 -71.5t63 -187.5v-40h-368q7 -67 44.5 -106t95.5 -39q45 0 77.5 22.5t44.5 61.5l103 -39q-28 -69 -87.5 -108t-137.5 -39zM279 434
q-48 0 -81.5 -28t-46.5 -80h241q-1 49 -31 78.5t-82 29.5zM326 577h-95l60 141h148z" />
    <glyph glyph-name="ecircumflex" unicode="&#xea;" horiz-adv-x="540" 
d="M285 -11q-56 0 -104 20.5t-83 58.5q-33 37 -50.5 86.5t-17.5 107.5q0 55 17.5 104.5t49.5 86.5q35 40 82 61t101 21q107 0 170 -71.5t63 -187.5v-40h-368q7 -67 44.5 -106t95.5 -39q45 0 77.5 22.5t44.5 61.5l103 -39q-28 -69 -87.5 -108t-137.5 -39zM279 434
q-48 0 -81.5 -28t-46.5 -80h241q-1 49 -31 78.5t-82 29.5zM220 718h126l99 -141h-92l-70 60l-70 -60h-92z" />
    <glyph glyph-name="edieresis" unicode="&#xeb;" horiz-adv-x="540" 
d="M285 -11q-56 0 -104 20.5t-83 58.5q-33 37 -50.5 86.5t-17.5 107.5q0 55 17.5 104.5t49.5 86.5q35 40 82 61t101 21q107 0 170 -71.5t63 -187.5v-40h-368q7 -67 44.5 -106t95.5 -39q45 0 77.5 22.5t44.5 61.5l103 -39q-28 -69 -87.5 -108t-137.5 -39zM279 434
q-48 0 -81.5 -28t-46.5 -80h241q-1 49 -31 78.5t-82 29.5zM255 595h-128v123h128v-123zM439 595h-128v123h128v-123z" />
    <glyph glyph-name="igrave" unicode="&#xec;" horiz-adv-x="246" 
d="M63 525h120v-525h-120v525zM111 718l60 -141h-95l-113 141h148z" />
    <glyph glyph-name="iacute" unicode="&#xed;" horiz-adv-x="246" 
d="M63 525h120v-525h-120v525zM172 577h-95l60 141h148z" />
    <glyph glyph-name="icircumflex" unicode="&#xee;" horiz-adv-x="246" 
d="M60 718h126l99 -141h-92l-70 60l-70 -60h-92zM63 525h120v-525h-120v525z" />
    <glyph glyph-name="idieresis" unicode="&#xef;" horiz-adv-x="246" 
d="M95 595h-128v123h128v-123zM279 595h-128v123h128v-123zM63 525h120v-525h-120v525z" />
    <glyph glyph-name="eth" unicode="&#xf0;" horiz-adv-x="566" 
d="M283 530q24 0 44 -5t35 -14q-11 17 -28.5 35t-41.5 37l-180 -52v87l91 26q-15 9 -34 21t-59 35l136 28q23 -13 42.5 -25t35.5 -24l141 40v-87l-64 -18q68 -68 101.5 -151t33.5 -180q0 -62 -16 -114.5t-46 -90.5q-34 -44 -83 -66.5t-108 -22.5q-56 0 -103.5 20.5
t-82.5 59.5q-33 36 -50 85.5t-17 107.5t17.5 106.5t49.5 84.5q35 38 82.5 57.5t103.5 19.5zM283 434q-61 0 -96.5 -46t-35.5 -126t35.5 -126t96.5 -46t96.5 46t35.5 126t-35.5 126t-96.5 46z" />
    <glyph glyph-name="ntilde" unicode="&#xf1;" horiz-adv-x="563" 
d="M183 0h-120v525h120v-56q28 32 64.5 49t80.5 17q81 0 128.5 -51.5t47.5 -137.5v-346h-120v311q0 54 -23.5 83t-68.5 29q-46 0 -77.5 -32t-31.5 -83v-308zM230 725q16 0 31.5 -6.5t40.5 -26.5q17 -14 25.5 -18t15.5 -4q15 0 24 12.5t14 42.5h76q-4 -69 -31.5 -108.5
t-72.5 -39.5q-16 0 -31.5 6.5t-40.5 25.5q-17 14 -25.5 18t-15.5 4q-15 0 -24 -12t-14 -42h-76q4 69 31.5 108.5t72.5 39.5z" />
    <glyph glyph-name="ograve" unicode="&#xf2;" horiz-adv-x="566" 
d="M469 455q33 -36 50 -85.5t17 -107.5t-17 -107.5t-50 -85.5q-35 -39 -82.5 -59.5t-103.5 -20.5t-103.5 20.5t-82.5 59.5q-33 36 -50 85.5t-17 107.5t17 107.5t50 85.5q35 39 82.5 59.5t103.5 20.5t103.5 -20.5t82.5 -59.5zM283 434q-61 0 -96.5 -46t-35.5 -126t35.5 -126
t96.5 -46t96.5 46t35.5 126t-35.5 126t-96.5 46zM282 718l60 -141h-95l-113 141h148z" />
    <glyph glyph-name="oacute" unicode="&#xf3;" horiz-adv-x="566" 
d="M469 455q33 -36 50 -85.5t17 -107.5t-17 -107.5t-50 -85.5q-35 -39 -82.5 -59.5t-103.5 -20.5t-103.5 20.5t-82.5 59.5q-33 36 -50 85.5t-17 107.5t17 107.5t50 85.5q35 39 82.5 59.5t103.5 20.5t103.5 -20.5t82.5 -59.5zM283 434q-61 0 -96.5 -46t-35.5 -126t35.5 -126
t96.5 -46t96.5 46t35.5 126t-35.5 126t-96.5 46zM325 577h-95l60 141h148z" />
    <glyph glyph-name="ocircumflex" unicode="&#xf4;" horiz-adv-x="566" 
d="M469 455q33 -36 50 -85.5t17 -107.5t-17 -107.5t-50 -85.5q-35 -39 -82.5 -59.5t-103.5 -20.5t-103.5 20.5t-82.5 59.5q-33 36 -50 85.5t-17 107.5t17 107.5t50 85.5q35 39 82.5 59.5t103.5 20.5t103.5 -20.5t82.5 -59.5zM283 434q-61 0 -96.5 -46t-35.5 -126t35.5 -126
t96.5 -46t96.5 46t35.5 126t-35.5 126t-96.5 46zM220 718h126l99 -141h-92l-70 60l-70 -60h-92z" />
    <glyph glyph-name="otilde" unicode="&#xf5;" horiz-adv-x="566" 
d="M469 455q33 -36 50 -85.5t17 -107.5t-17 -107.5t-50 -85.5q-35 -39 -82.5 -59.5t-103.5 -20.5t-103.5 20.5t-82.5 59.5q-33 36 -50 85.5t-17 107.5t17 107.5t50 85.5q35 39 82.5 59.5t103.5 20.5t103.5 -20.5t82.5 -59.5zM283 434q-61 0 -96.5 -46t-35.5 -126t35.5 -126
t96.5 -46t96.5 46t35.5 126t-35.5 126t-96.5 46zM221 725q16 0 31.5 -6.5t40.5 -26.5q17 -14 25.5 -18t15.5 -4q15 0 24 12.5t14 42.5h76q-4 -69 -31.5 -108.5t-72.5 -39.5q-16 0 -31.5 6.5t-40.5 25.5q-17 14 -25.5 18t-15.5 4q-15 0 -24 -12t-14 -42h-76q4 69 31.5 108.5
t72.5 39.5z" />
    <glyph glyph-name="odieresis" unicode="&#xf6;" horiz-adv-x="566" 
d="M469 455q33 -36 50 -85.5t17 -107.5t-17 -107.5t-50 -85.5q-35 -39 -82.5 -59.5t-103.5 -20.5t-103.5 20.5t-82.5 59.5q-33 36 -50 85.5t-17 107.5t17 107.5t50 85.5q35 39 82.5 59.5t103.5 20.5t103.5 -20.5t82.5 -59.5zM283 434q-61 0 -96.5 -46t-35.5 -126t35.5 -126
t96.5 -46t96.5 46t35.5 126t-35.5 126t-96.5 46zM255 595h-128v123h128v-123zM439 595h-128v123h128v-123z" />
    <glyph glyph-name="divide" unicode="&#xf7;" 
d="M371 490h-136v132h136v-132zM562 290h-516v105h516v-105zM371 63h-136v132h136v-132z" />
    <glyph glyph-name="oslash" unicode="&#xf8;" horiz-adv-x="566" 
d="M30 262q0 58 17 107.5t50 85.5q35 39 82.5 59.5t103.5 20.5q37 0 70.5 -9t63.5 -27l42 52l69 -53l-46 -58q26 -36 40 -81.5t14 -96.5q0 -58 -17 -107.5t-50 -85.5q-35 -39 -82.5 -59.5t-103.5 -20.5q-37 0 -71 9t-63 27l-41 -52l-69 53l46 57q-27 36 -41 81.5t-14 97.5z
M283 434q-61 0 -96.5 -46t-35.5 -126q0 -23 3 -43.5t9 -37.5l187 234q-15 10 -31.5 14.5t-35.5 4.5zM283 90q61 0 96.5 46t35.5 126q0 23 -3 43t-9 37l-187 -234q14 -9 31 -13.5t36 -4.5z" />
    <glyph glyph-name="ugrave" unicode="&#xf9;" horiz-adv-x="563" 
d="M380 525h120v-525h-120v56q-29 -33 -64.5 -50t-78.5 -17q-82 0 -130 51t-48 137v348h120v-322q0 -51 23.5 -78t69.5 -27t77 32t31 83v312zM275 718l60 -141h-95l-113 141h148z" />
    <glyph glyph-name="uacute" unicode="&#xfa;" horiz-adv-x="563" 
d="M380 525h120v-525h-120v56q-29 -33 -64.5 -50t-78.5 -17q-82 0 -130 51t-48 137v348h120v-322q0 -51 23.5 -78t69.5 -27t77 32t31 83v312zM328 577h-95l60 141h148z" />
    <glyph glyph-name="ucircumflex" unicode="&#xfb;" horiz-adv-x="563" 
d="M380 525h120v-525h-120v56q-29 -33 -64.5 -50t-78.5 -17q-82 0 -130 51t-48 137v348h120v-322q0 -51 23.5 -78t69.5 -27t77 32t31 83v312zM216 718h126l99 -141h-92l-70 60l-70 -60h-92z" />
    <glyph glyph-name="udieresis" unicode="&#xfc;" horiz-adv-x="563" 
d="M380 525h120v-525h-120v56q-29 -33 -64.5 -50t-78.5 -17q-82 0 -130 51t-48 137v348h120v-322q0 -51 23.5 -78t69.5 -27t77 32t31 83v312zM251 595h-128v123h128v-123zM435 595h-128v123h128v-123z" />
    <glyph glyph-name="yacute" unicode="&#xfd;" horiz-adv-x="509" 
d="M507 525l-216 -574q-27 -73 -71 -104t-114 -31q-13 0 -22 0.5t-27 2.5v101q15 -2 23 -2.5t17 -0.5q32 0 48 11.5t28 41.5l20 49l-191 506h126l129 -368l126 368h124zM307 577h-95l60 141h148z" />
    <glyph glyph-name="thorn" unicode="&#xfe;" horiz-adv-x="595" 
d="M507 73q-31 -41 -75.5 -62.5t-97.5 -21.5q-47 0 -85.5 17t-65.5 49v-235h-120v898h120v-249q27 32 65.5 49t85.5 17q53 0 97.5 -21.5t75.5 -62.5q28 -37 43 -85.5t15 -103.5t-15 -103.5t-43 -85.5zM310 430q-59 0 -94.5 -41.5t-35.5 -111.5v-31q0 -69 36 -110.5t94 -41.5
q63 0 98 45t35 123t-35 123t-98 45z" />
    <glyph glyph-name="ydieresis" unicode="&#xff;" horiz-adv-x="509" 
d="M507 525l-216 -574q-27 -73 -71 -104t-114 -31q-13 0 -22 0.5t-27 2.5v101q15 -2 23 -2.5t17 -0.5q32 0 48 11.5t28 41.5l20 49l-191 506h126l129 -368l126 368h124zM232 595h-128v123h128v-123zM416 595h-128v123h128v-123z" />
    <glyph glyph-name="Amacron" unicode="&#x100;" horiz-adv-x="709" 
d="M10 0l272 718h145l272 -718h-129l-62 164h-310l-61 -164h-127zM466 276l-114 300l-112 -300h226zM516 869v-99h-324v99h324z" />
    <glyph glyph-name="amacron" unicode="&#x101;" horiz-adv-x="531" 
d="M358 50q-25 -28 -65.5 -43.5t-90.5 -15.5q-77 0 -127 43.5t-50 111.5q0 65 43 105.5t133 59.5l145 30v9q0 40 -22.5 60.5t-67.5 20.5q-41 0 -65.5 -18.5t-35.5 -58.5l-113 26q21 71 79.5 113t139.5 42q98 0 150 -46.5t52 -134.5v-226q0 -22 10.5 -30t35.5 -5v-93
q-64 -7 -100.5 5t-50.5 45zM220 87q54 0 90 27t36 71v64l-113 -24q-49 -11 -69 -28t-20 -46q0 -30 20.5 -47t55.5 -17zM408 691v-95h-292v95h292z" />
    <glyph glyph-name="Abreve" unicode="&#x102;" horiz-adv-x="709" 
d="M10 0l272 718h145l272 -718h-129l-62 164h-310l-61 -164h-127zM466 276l-114 300l-112 -300h226zM354 835q33 0 54 20t21 52h90q0 -68 -44.5 -109t-120.5 -41t-120.5 41t-44.5 109h90q0 -32 21 -52t54 -20z" />
    <glyph glyph-name="abreve" unicode="&#x103;" horiz-adv-x="531" 
d="M358 50q-25 -28 -65.5 -43.5t-90.5 -15.5q-77 0 -127 43.5t-50 111.5q0 65 43 105.5t133 59.5l145 30v9q0 40 -22.5 60.5t-67.5 20.5q-41 0 -65.5 -18.5t-35.5 -58.5l-113 26q21 71 79.5 113t139.5 42q98 0 150 -46.5t52 -134.5v-226q0 -22 10.5 -30t35.5 -5v-93
q-64 -7 -100.5 5t-50.5 45zM220 87q54 0 90 27t36 71v64l-113 -24q-49 -11 -69 -28t-20 -46q0 -30 20.5 -47t55.5 -17zM266 657q27 0 44 16.5t17 44.5h82q0 -68 -38.5 -106.5t-104.5 -38.5t-104.5 38.5t-38.5 106.5h82q0 -28 17 -44.5t44 -16.5z" />
    <glyph glyph-name="Aogonek" unicode="&#x104;" horiz-adv-x="709" 
d="M600 -186q-42 0 -70.5 25.5t-28.5 63.5q0 31 15.5 58t48.5 53l-57 150h-310l-61 -164h-127l272 718h145l272 -718h-50q-34 -26 -48.5 -43.5t-14.5 -33.5q0 -14 10.5 -23t26.5 -9q10 0 18.5 1.5t19.5 4.5v-75q-17 -5 -30 -6.5t-31 -1.5zM466 276l-114 300l-112 -300h226z
" />
    <glyph glyph-name="aogonek" unicode="&#x105;" horiz-adv-x="531" 
d="M358 50q-25 -28 -65.5 -43.5t-90.5 -15.5q-77 0 -127 43.5t-50 111.5q0 65 43 105.5t133 59.5l145 30v9q0 40 -22.5 60.5t-67.5 20.5q-41 0 -65.5 -18.5t-35.5 -58.5l-113 26q21 71 79.5 113t139.5 42q98 0 150 -46.5t52 -134.5v-226q0 -22 10.5 -30t35.5 -5v-93
q-3 -1 -9.5 -1.5t-9.5 -0.5q-34 -26 -47 -42.5t-13 -32.5q0 -14 10.5 -23t26.5 -9q10 0 18.5 1.5t19.5 4.5v-75q-17 -5 -30 -6.5t-31 -1.5q-42 0 -70.5 25.5t-28.5 63.5q0 29 14 55t43 50q-15 6 -26 16.5t-18 25.5zM220 87q54 0 90 27t36 71v64l-113 -24q-49 -11 -69 -28
t-20 -46q0 -30 20.5 -47t55.5 -17z" />
    <glyph glyph-name="Cacute" unicode="&#x106;" horiz-adv-x="667" 
d="M207 533q-24 -34 -36 -78.5t-12 -95.5t12 -95.5t36 -78.5q27 -40 67 -61.5t87 -21.5q62 0 106 35.5t61 99.5l120 -41q-33 -99 -107.5 -153t-179.5 -54q-73 0 -136 29t-108 83q-42 50 -64 116t-22 142t22 142t64 116q45 54 108 83t136 29q105 0 179.5 -54t107.5 -153
l-120 -41q-17 64 -61 99.5t-106 35.5q-47 0 -87 -21.5t-67 -61.5zM401 760h-95l89 147h165z" />
    <glyph glyph-name="cacute" unicode="&#x107;" horiz-adv-x="519" 
d="M288 432q-63 0 -100.5 -46t-37.5 -124t37.5 -123.5t100.5 -45.5q44 0 75 26t43 74l103 -52q-22 -69 -81.5 -110.5t-139.5 -41.5q-56 0 -104.5 20.5t-83.5 58.5q-34 37 -52 86.5t-18 107.5t18 107.5t52 86.5q35 38 83.5 58.5t104.5 20.5q79 0 137.5 -40t81.5 -108
l-101 -55q-12 47 -43 73.5t-75 26.5zM326 577h-95l60 141h148z" />
    <glyph glyph-name="Ccircumflex" unicode="&#x108;" horiz-adv-x="667" 
d="M207 533q-24 -34 -36 -78.5t-12 -95.5t12 -95.5t36 -78.5q27 -40 67 -61.5t87 -21.5q62 0 106 35.5t61 99.5l120 -41q-33 -99 -107.5 -153t-179.5 -54q-73 0 -136 29t-108 83q-42 50 -64 116t-22 142t22 142t64 116q45 54 108 83t136 29q105 0 179.5 -54t107.5 -153
l-120 -41q-17 64 -61 99.5t-106 35.5q-47 0 -87 -21.5t-67 -61.5zM294 907h140l116 -147h-95l-91 71l-91 -71h-95z" />
    <glyph glyph-name="ccircumflex" unicode="&#x109;" horiz-adv-x="519" 
d="M288 432q-63 0 -100.5 -46t-37.5 -124t37.5 -123.5t100.5 -45.5q44 0 75 26t43 74l103 -52q-22 -69 -81.5 -110.5t-139.5 -41.5q-56 0 -104.5 20.5t-83.5 58.5q-34 37 -52 86.5t-18 107.5t18 107.5t52 86.5q35 38 83.5 58.5t104.5 20.5q79 0 137.5 -40t81.5 -108
l-101 -55q-12 47 -43 73.5t-75 26.5zM223 718h126l99 -141h-92l-70 60l-70 -60h-92z" />
    <glyph glyph-name="Cdotaccent" unicode="&#x10a;" horiz-adv-x="667" 
d="M207 533q-24 -34 -36 -78.5t-12 -95.5t12 -95.5t36 -78.5q27 -40 67 -61.5t87 -21.5q62 0 106 35.5t61 99.5l120 -41q-33 -99 -107.5 -153t-179.5 -54q-73 0 -136 29t-108 83q-42 50 -64 116t-22 142t22 142t64 116q45 54 108 83t136 29q105 0 179.5 -54t107.5 -153
l-120 -41q-17 64 -61 99.5t-106 35.5q-47 0 -87 -21.5t-67 -61.5zM429 760h-128v123h128v-123z" />
    <glyph glyph-name="cdotaccent" unicode="&#x10b;" horiz-adv-x="519" 
d="M288 432q-63 0 -100.5 -46t-37.5 -124t37.5 -123.5t100.5 -45.5q44 0 75 26t43 74l103 -52q-22 -69 -81.5 -110.5t-139.5 -41.5q-56 0 -104.5 20.5t-83.5 58.5q-34 37 -52 86.5t-18 107.5t18 107.5t52 86.5q35 38 83.5 58.5t104.5 20.5q79 0 137.5 -40t81.5 -108
l-101 -55q-12 47 -43 73.5t-75 26.5zM348 595h-124v123h124v-123z" />
    <glyph glyph-name="Ccaron" unicode="&#x10c;" horiz-adv-x="667" 
d="M207 533q-24 -34 -36 -78.5t-12 -95.5t12 -95.5t36 -78.5q27 -40 67 -61.5t87 -21.5q62 0 106 35.5t61 99.5l120 -41q-33 -99 -107.5 -153t-179.5 -54q-73 0 -136 29t-108 83q-42 50 -64 116t-22 142t22 142t64 116q45 54 108 83t136 29q105 0 179.5 -54t107.5 -153
l-120 -41q-17 64 -61 99.5t-106 35.5q-47 0 -87 -21.5t-67 -61.5zM553 907l-116 -147h-140l-116 147h95l91 -71l91 71h95z" />
    <glyph glyph-name="ccaron" unicode="&#x10d;" horiz-adv-x="519" 
d="M288 432q-63 0 -100.5 -46t-37.5 -124t37.5 -123.5t100.5 -45.5q44 0 75 26t43 74l103 -52q-22 -69 -81.5 -110.5t-139.5 -41.5q-56 0 -104.5 20.5t-83.5 58.5q-34 37 -52 86.5t-18 107.5t18 107.5t52 86.5q35 38 83.5 58.5t104.5 20.5q79 0 137.5 -40t81.5 -108
l-101 -55q-12 47 -43 73.5t-75 26.5zM452 718l-99 -141h-126l-99 141h92l70 -60l70 60h92z" />
    <glyph glyph-name="Dcaron" unicode="&#x10e;" horiz-adv-x="701" 
d="M308 0h-240v718h240q82 0 149 -24.5t114 -72.5q48 -47 73 -114t25 -148t-25 -148t-73 -114q-47 -48 -114 -72.5t-149 -24.5zM193 608v-498h115q109 0 172 67t63 182q0 116 -63 182.5t-173 66.5h-114zM511 907l-116 -147h-140l-116 147h95l91 -71l91 71h95z" />
    <glyph glyph-name="dcaron" unicode="&#x10f;" horiz-adv-x="711" 
d="M261 -11q-53 0 -97.5 21.5t-75.5 62.5q-28 37 -43 85.5t-15 103.5t15 103.5t43 85.5q31 41 75.5 62.5t97.5 21.5q47 0 85.5 -17t65.5 -49v249h120v-718h-120v55q-27 -32 -65.5 -49t-85.5 -17zM415 246v31q0 70 -35.5 111.5t-94.5 41.5q-63 0 -98.5 -45t-35.5 -123
t35.5 -123t98.5 -45q58 0 94 41.5t36 110.5zM664 555h-82l17 163h136z" />
    <glyph glyph-name="Dcroat" unicode="&#x110;" horiz-adv-x="711" 
d="M318 0h-240v313h-60v112h60v293h240q82 0 149 -24.5t114 -72.5q48 -47 73 -114t25 -148t-25 -148t-73 -114q-47 -48 -114 -72.5t-149 -24.5zM203 313v-203h115q109 0 172 67t63 182q0 116 -63 182.5t-173 66.5h-114v-183h127v-112h-127z" />
    <glyph glyph-name="dcroat" unicode="&#x111;" horiz-adv-x="595" 
d="M261 -11q-53 0 -97.5 21.5t-75.5 62.5q-28 37 -43 85.5t-15 103.5t15 103.5t43 85.5q31 41 75.5 62.5t97.5 21.5q47 0 85.5 -17t65.5 -49v97h-130v95h130v57h120v-57h60v-95h-60v-566h-120v55q-27 -32 -65.5 -49t-85.5 -17zM415 246v31q0 70 -35.5 111.5t-94.5 41.5
q-63 0 -98.5 -45t-35.5 -123t35.5 -123t98.5 -45q58 0 94 41.5t36 110.5z" />
    <glyph glyph-name="Emacron" unicode="&#x112;" horiz-adv-x="594" 
d="M68 0v718h486v-112h-360v-180h303v-112h-303v-202h360v-112h-486zM475 869v-99h-324v99h324z" />
    <glyph glyph-name="emacron" unicode="&#x113;" horiz-adv-x="540" 
d="M285 -11q-56 0 -104 20.5t-83 58.5q-33 37 -50.5 86.5t-17.5 107.5q0 55 17.5 104.5t49.5 86.5q35 40 82 61t101 21q107 0 170 -71.5t63 -187.5v-40h-368q7 -67 44.5 -106t95.5 -39q45 0 77.5 22.5t44.5 61.5l103 -39q-28 -69 -87.5 -108t-137.5 -39zM279 434
q-48 0 -81.5 -28t-46.5 -80h241q-1 49 -31 78.5t-82 29.5zM426 691v-95h-292v95h292z" />
    <glyph glyph-name="Ebreve" unicode="&#x114;" horiz-adv-x="594" 
d="M68 0v718h486v-112h-360v-180h303v-112h-303v-202h360v-112h-486zM319 835q33 0 54 20t21 52h90q0 -68 -44.5 -109t-120.5 -41t-120.5 41t-44.5 109h90q0 -32 21 -52t54 -20z" />
    <glyph glyph-name="ebreve" unicode="&#x115;" horiz-adv-x="540" 
d="M285 -11q-56 0 -104 20.5t-83 58.5q-33 37 -50.5 86.5t-17.5 107.5q0 55 17.5 104.5t49.5 86.5q35 40 82 61t101 21q107 0 170 -71.5t63 -187.5v-40h-368q7 -67 44.5 -106t95.5 -39q45 0 77.5 22.5t44.5 61.5l103 -39q-28 -69 -87.5 -108t-137.5 -39zM279 434
q-48 0 -81.5 -28t-46.5 -80h241q-1 49 -31 78.5t-82 29.5zM282 657q27 0 44 16.5t17 44.5h82q0 -68 -38.5 -106.5t-104.5 -38.5t-104.5 38.5t-38.5 106.5h82q0 -28 17 -44.5t44 -16.5z" />
    <glyph glyph-name="Edotaccent" unicode="&#x116;" horiz-adv-x="594" 
d="M68 0v718h486v-112h-360v-180h303v-112h-303v-202h360v-112h-486zM381 760h-128v123h128v-123z" />
    <glyph glyph-name="edotaccent" unicode="&#x117;" horiz-adv-x="540" 
d="M285 -11q-56 0 -104 20.5t-83 58.5q-33 37 -50.5 86.5t-17.5 107.5q0 55 17.5 104.5t49.5 86.5q35 40 82 61t101 21q107 0 170 -71.5t63 -187.5v-40h-368q7 -67 44.5 -106t95.5 -39q45 0 77.5 22.5t44.5 61.5l103 -39q-28 -69 -87.5 -108t-137.5 -39zM279 434
q-48 0 -81.5 -28t-46.5 -80h241q-1 49 -31 78.5t-82 29.5zM341 595h-124v123h124v-123z" />
    <glyph glyph-name="Eogonek" unicode="&#x118;" horiz-adv-x="594" 
d="M463 -186q-42 0 -70.5 25.5t-28.5 63.5q0 27 12 51t36 46h-344v718h486v-112h-360v-180h303v-112h-303v-202h360v-112h-42q-34 -26 -48.5 -43.5t-14.5 -33.5q0 -14 10.5 -23t26.5 -9q10 0 18.5 1.5t19.5 4.5v-75q-17 -5 -30 -6.5t-31 -1.5z" />
    <glyph glyph-name="eogonek" unicode="&#x119;" horiz-adv-x="540" 
d="M319 -186q-42 0 -70.5 25.5t-28.5 63.5q0 25 9.5 46.5t28.5 40.5q-103 10 -165.5 84.5t-62.5 187.5q0 55 17.5 104.5t49.5 86.5q35 40 82 61t101 21q107 0 170 -71.5t63 -187.5v-40h-368q7 -67 44.5 -106t95.5 -39q45 0 77.5 22.5t44.5 61.5l103 -39q-19 -48 -54.5 -82
t-84.5 -51q-38 -29 -52 -46.5t-14 -33.5q0 -14 10.5 -23t26.5 -9q10 0 18.5 1.5t19.5 4.5v-75q-17 -5 -30 -6.5t-31 -1.5zM279 434q-48 0 -81.5 -28t-46.5 -80h241q-1 49 -31 78.5t-82 29.5z" />
    <glyph glyph-name="Ecaron" unicode="&#x11a;" horiz-adv-x="594" 
d="M68 0v718h486v-112h-360v-180h303v-112h-303v-202h360v-112h-486zM504 907l-116 -147h-140l-116 147h95l91 -71l91 71h95z" />
    <glyph glyph-name="ecaron" unicode="&#x11b;" horiz-adv-x="540" 
d="M285 -11q-56 0 -104 20.5t-83 58.5q-33 37 -50.5 86.5t-17.5 107.5q0 55 17.5 104.5t49.5 86.5q35 40 82 61t101 21q107 0 170 -71.5t63 -187.5v-40h-368q7 -67 44.5 -106t95.5 -39q45 0 77.5 22.5t44.5 61.5l103 -39q-28 -69 -87.5 -108t-137.5 -39zM279 434
q-48 0 -81.5 -28t-46.5 -80h241q-1 49 -31 78.5t-82 29.5zM445 718l-99 -141h-126l-99 141h92l70 -60l70 60h92z" />
    <glyph glyph-name="Gcircumflex" unicode="&#x11c;" horiz-adv-x="727" 
d="M665 0h-117v74q-23 -39 -75 -62t-118 -23q-72 0 -133.5 29t-106.5 83q-41 49 -62.5 114.5t-21.5 140.5q0 76 22.5 143t64.5 118q46 54 109 83t136 29q106 0 181 -53.5t109 -152.5l-122 -41q-16 64 -59.5 99t-107.5 35q-91 0 -148 -71.5t-57 -186.5q0 -116 57 -187.5
t150 -71.5q76 0 124.5 48.5t51.5 127.5h-189v112h312v-387zM297 907h140l116 -147h-95l-91 71l-91 -71h-95z" />
    <glyph glyph-name="gcircumflex" unicode="&#x11d;" horiz-adv-x="594" 
d="M530 525v-472q0 -112 -69.5 -178t-186.5 -66q-93 0 -154 39t-85 114l112 40q12 -46 45.5 -71t81.5 -25q66 0 101 34.5t35 101.5v37q-23 -31 -62.5 -48.5t-85.5 -17.5q-52 0 -96 20t-75 59q-29 35 -44 82t-15 100t15 100t44 82q31 39 75 59t96 20q46 0 85.5 -18t62.5 -48
v56h120zM412 267v12q0 70 -34.5 110.5t-92.5 40.5q-62 0 -97 -41t-35 -115q0 -73 35 -114.5t97 -41.5q58 0 92.5 40t34.5 109zM240 718h126l99 -141h-92l-70 60l-70 -60h-92z" />
    <glyph glyph-name="Gbreve" unicode="&#x11e;" horiz-adv-x="727" 
d="M665 0h-117v74q-23 -39 -75 -62t-118 -23q-72 0 -133.5 29t-106.5 83q-41 49 -62.5 114.5t-21.5 140.5q0 76 22.5 143t64.5 118q46 54 109 83t136 29q106 0 181 -53.5t109 -152.5l-122 -41q-16 64 -59.5 99t-107.5 35q-91 0 -148 -71.5t-57 -186.5q0 -116 57 -187.5
t150 -71.5q76 0 124.5 48.5t51.5 127.5h-189v112h312v-387zM367 835q33 0 54 20t21 52h90q0 -68 -44.5 -109t-120.5 -41t-120.5 41t-44.5 109h90q0 -32 21 -52t54 -20z" />
    <glyph glyph-name="gbreve" unicode="&#x11f;" horiz-adv-x="594" 
d="M530 525v-472q0 -112 -69.5 -178t-186.5 -66q-93 0 -154 39t-85 114l112 40q12 -46 45.5 -71t81.5 -25q66 0 101 34.5t35 101.5v37q-23 -31 -62.5 -48.5t-85.5 -17.5q-52 0 -96 20t-75 59q-29 35 -44 82t-15 100t15 100t44 82q31 39 75 59t96 20q46 0 85.5 -18t62.5 -48
v56h120zM412 267v12q0 70 -34.5 110.5t-92.5 40.5q-62 0 -97 -41t-35 -115q0 -73 35 -114.5t97 -41.5q58 0 92.5 40t34.5 109zM304 657q27 0 44 16.5t17 44.5h82q0 -68 -38.5 -106.5t-104.5 -38.5t-104.5 38.5t-38.5 106.5h82q0 -28 17 -44.5t44 -16.5z" />
    <glyph glyph-name="Gdotaccent" unicode="&#x120;" horiz-adv-x="727" 
d="M665 0h-117v74q-23 -39 -75 -62t-118 -23q-72 0 -133.5 29t-106.5 83q-41 49 -62.5 114.5t-21.5 140.5q0 76 22.5 143t64.5 118q46 54 109 83t136 29q106 0 181 -53.5t109 -152.5l-122 -41q-16 64 -59.5 99t-107.5 35q-91 0 -148 -71.5t-57 -186.5q0 -116 57 -187.5
t150 -71.5q76 0 124.5 48.5t51.5 127.5h-189v112h312v-387zM432 760h-128v123h128v-123z" />
    <glyph glyph-name="gdotaccent" unicode="&#x121;" horiz-adv-x="594" 
d="M530 525v-472q0 -112 -69.5 -178t-186.5 -66q-93 0 -154 39t-85 114l112 40q12 -46 45.5 -71t81.5 -25q66 0 101 34.5t35 101.5v37q-23 -31 -62.5 -48.5t-85.5 -17.5q-52 0 -96 20t-75 59q-29 35 -44 82t-15 100t15 100t44 82q31 39 75 59t96 20q46 0 85.5 -18t62.5 -48
v56h120zM412 267v12q0 70 -34.5 110.5t-92.5 40.5q-62 0 -97 -41t-35 -115q0 -73 35 -114.5t97 -41.5q58 0 92.5 40t34.5 109zM365 595h-124v123h124v-123z" />
    <glyph glyph-name="Gcommaaccent" unicode="&#x122;" horiz-adv-x="727" 
d="M665 0h-117v74q-23 -39 -75 -62t-118 -23q-72 0 -133.5 29t-106.5 83q-41 49 -62.5 114.5t-21.5 140.5q0 76 22.5 143t64.5 118q46 54 109 83t136 29q106 0 181 -53.5t109 -152.5l-122 -41q-16 64 -59.5 99t-107.5 35q-91 0 -148 -71.5t-57 -186.5q0 -116 57 -187.5
t150 -71.5q76 0 124.5 48.5t51.5 127.5h-189v112h312v-387zM349 -117h-48v80h120v-63q0 -47 -32.5 -74t-87.5 -27v52q22 0 33.5 7.5t14.5 24.5z" />
    <glyph glyph-name="gcommaaccent" unicode="&#x123;" horiz-adv-x="594" 
d="M530 525v-472q0 -112 -69.5 -178t-186.5 -66q-93 0 -154 39t-85 114l112 40q12 -46 45.5 -71t81.5 -25q66 0 101 34.5t35 101.5v37q-23 -31 -62.5 -48.5t-85.5 -17.5q-52 0 -96 20t-75 59q-29 35 -44 82t-15 100t15 100t44 82q31 39 75 59t96 20q46 0 85.5 -18t62.5 -48
v56h120zM412 267v12q0 70 -34.5 110.5t-92.5 40.5q-62 0 -97 -41t-35 -115q0 -73 35 -114.5t97 -41.5q58 0 92.5 40t34.5 109zM314 657h48v-80h-120v63q0 47 32.5 74t87.5 27v-52q-22 0 -33.5 -7.5t-14.5 -24.5z" />
    <glyph glyph-name="Hcircumflex" unicode="&#x124;" horiz-adv-x="736" 
d="M540 426v292h128v-718h-128v314h-344v-314h-128v718h128v-292h344zM298 907h140l116 -147h-95l-91 71l-91 -71h-95z" />
    <glyph glyph-name="hcircumflex" unicode="&#x125;" horiz-adv-x="563" 
d="M183 0h-120v718h120v-249q28 32 64.5 49t80.5 17q81 0 128.5 -51.5t47.5 -137.5v-346h-120v311q0 54 -23.5 83t-68.5 29q-46 0 -77.5 -32t-31.5 -83v-308zM230 907h140l116 -147h-95l-91 71l-91 -71h-95z" />
    <glyph glyph-name="Hbar" unicode="&#x126;" horiz-adv-x="756" 
d="M738 583v-110h-60v-473h-128v254h-344v-254h-128v473h-60v110h60v135h128v-135h344v135h128v-135h60zM206 473v-109h344v109h-344z" />
    <glyph glyph-name="hbar" unicode="&#x127;" horiz-adv-x="563" 
d="M183 0h-120v566h-60v95h60v57h120v-57h130v-95h-130v-97q28 32 64.5 49t80.5 17q81 0 128.5 -51.5t47.5 -137.5v-346h-120v311q0 54 -23.5 83t-68.5 29q-46 0 -77.5 -32t-31.5 -83v-308z" />
    <glyph glyph-name="Itilde" unicode="&#x128;" horiz-adv-x="264" 
d="M68 718h128v-718h-128v718zM61 916q18 0 36 -6.5t47 -27.5q21 -14 31 -18.5t19 -4.5q17 0 27.5 13t16.5 44h81q-5 -72 -36 -113.5t-81 -41.5q-18 0 -36 6.5t-46 27.5q-21 14 -31 18.5t-19 4.5q-18 0 -28.5 -13.5t-15.5 -43.5h-81q4 72 35 113.5t81 41.5z" />
    <glyph glyph-name="itilde" unicode="&#x129;" horiz-adv-x="246" 
d="M69 725q16 0 30 -6.5t33 -26.5q13 -14 20.5 -18t14.5 -4q14 0 21.5 11t13.5 44h76q-4 -70 -31 -109t-71 -39q-16 0 -30 6.5t-33 25.5q-13 14 -20.5 18t-14.5 4q-14 0 -21.5 -10.5t-13.5 -43.5h-76q4 70 31 109t71 39zM63 525h120v-525h-120v525z" />
    <glyph glyph-name="Imacron" unicode="&#x12a;" horiz-adv-x="264" 
d="M68 718h128v-718h-128v718zM294 869v-99h-324v99h324z" />
    <glyph glyph-name="imacron" unicode="&#x12b;" horiz-adv-x="246" 
d="M259 691v-95h-272v95h272zM63 525h120v-525h-120v525z" />
    <glyph glyph-name="Ibreve" unicode="&#x12c;" horiz-adv-x="264" 
d="M68 718h128v-718h-128v718zM132 835q33 0 54 20t21 52h90q0 -68 -44.5 -109t-120.5 -41t-120.5 41t-44.5 109h90q0 -32 21 -52t54 -20z" />
    <glyph glyph-name="ibreve" unicode="&#x12d;" horiz-adv-x="246" 
d="M123 657q27 0 44 16.5t17 44.5h82q0 -68 -38.5 -106.5t-104.5 -38.5t-104.5 38.5t-38.5 106.5h82q0 -28 17 -44.5t44 -16.5zM63 525h120v-525h-120v525z" />
    <glyph glyph-name="Iogonek" unicode="&#x12e;" horiz-adv-x="264" 
d="M141 -186q-42 0 -70.5 25.5t-28.5 63.5q0 27 12 51t36 46h-22v718h128v-718h-6q-34 -26 -48.5 -43.5t-14.5 -33.5q0 -14 10.5 -23t26.5 -9q10 0 18.5 1.5t19.5 4.5v-75q-17 -5 -30 -6.5t-31 -1.5z" />
    <glyph glyph-name="iogonek" unicode="&#x12f;" horiz-adv-x="246" 
d="M185 595h-124v123h124v-123zM128 -186q-42 0 -70.5 25.5t-28.5 63.5q0 27 12 51t36 46h-14v525h120v-525h-6q-34 -26 -48.5 -43.5t-14.5 -33.5q0 -14 10.5 -23t26.5 -9q10 0 18.5 1.5t19.5 4.5v-75q-17 -5 -30 -6.5t-31 -1.5z" />
    <glyph glyph-name="Idotaccent" unicode="&#x130;" horiz-adv-x="264" 
d="M68 718h128v-718h-128v718zM196 760h-128v123h128v-123z" />
    <glyph glyph-name="dotlessi" unicode="&#x131;" horiz-adv-x="246" 
d="M63 525h120v-525h-120v525z" />
    <glyph glyph-name="Jcircumflex" unicode="&#x134;" horiz-adv-x="403" 
d="M117 -7q-27 0 -48.5 2t-46.5 6v114q29 -5 44 -6.5t36 -1.5q62 0 89 25.5t27 81.5v504h128v-514q0 -104 -58 -157.5t-171 -53.5zM199 907h140l116 -147h-95l-91 71l-91 -71h-95z" />
    <glyph glyph-name="jcircumflex" unicode="&#x135;" horiz-adv-x="246" 
d="M-2 -80q35 0 50 14.5t15 47.5v543h120v-566q0 -68 -43 -105t-119 -37q-18 0 -31 0.5t-27 2.5v102q13 -1 20 -1.5t15 -0.5zM60 718h126l99 -141h-92l-70 60l-70 -60h-92z" />
    <glyph glyph-name="Kcommaaccent" unicode="&#x136;" horiz-adv-x="657" 
d="M68 718h128v-340l298 340h151l-279 -311l295 -407h-151l-227 313l-87 -96v-217h-128v718zM328 -117h-48v80h120v-63q0 -47 -32.5 -74t-87.5 -27v52q22 0 33.5 7.5t14.5 24.5z" />
    <glyph glyph-name="kcommaaccent" unicode="&#x137;" horiz-adv-x="546" 
d="M63 718h120v-414l202 221h147l-198 -204l214 -321h-139l-157 237l-69 -70v-167h-120v718zM275 -117h-48v80h120v-63q0 -47 -32.5 -74t-87.5 -27v52q22 0 33.5 7.5t14.5 24.5z" />
    <glyph glyph-name="kgreenlandic" unicode="&#x138;" horiz-adv-x="546" 
d="M63 525h120v-223l205 223h144l-198 -204l214 -321h-139l-157 237l-69 -70v-167h-120v525z" />
    <glyph glyph-name="Lacute" unicode="&#x139;" horiz-adv-x="549" 
d="M534 0h-466v718h128v-606h338v-112zM179 760h-95l89 147h165z" />
    <glyph glyph-name="lacute" unicode="&#x13a;" horiz-adv-x="246" 
d="M63 718h120v-718h-120v718zM164 760h-95l89 147h165z" />
    <glyph glyph-name="Lcommaaccent" unicode="&#x13b;" horiz-adv-x="549" 
d="M534 0h-466v718h128v-606h338v-112zM294 -117h-48v80h120v-63q0 -47 -32.5 -74t-87.5 -27v52q22 0 33.5 7.5t14.5 24.5z" />
    <glyph glyph-name="lcommaaccent" unicode="&#x13c;" horiz-adv-x="246" 
d="M63 718h120v-718h-120v718zM114 -117h-48v80h120v-63q0 -47 -32.5 -74t-87.5 -27v52q22 0 33.5 7.5t14.5 24.5z" />
    <glyph glyph-name="Lcaron" unicode="&#x13d;" horiz-adv-x="549" 
d="M534 0h-466v718h128v-606h338v-112zM424 555h-82l17 163h136z" />
    <glyph glyph-name="lcaron" unicode="&#x13e;" horiz-adv-x="362" 
d="M63 718h120v-718h-120v718zM315 555h-82l17 163h136z" />
    <glyph glyph-name="Ldot" unicode="&#x13f;" horiz-adv-x="549" 
d="M534 0h-466v718h128v-606h338v-112zM466 320h-124v123h124v-123z" />
    <glyph glyph-name="ldot" unicode="&#x140;" horiz-adv-x="387" 
d="M63 718h120v-718h-120v718zM373 292h-124v123h124v-123z" />
    <glyph glyph-name="Lslash" unicode="&#x141;" horiz-adv-x="559" 
d="M544 0h-466v239l-60 -27v109l60 27v370h128v-312l164 75v-109l-164 -75v-185h338v-112z" />
    <glyph glyph-name="lslash" unicode="&#x142;" horiz-adv-x="310" 
d="M288 531v-113l-73 -41v-377h-120v319l-73 -41v113l73 41v286h120v-228z" />
    <glyph glyph-name="Nacute" unicode="&#x143;" horiz-adv-x="727" 
d="M536 718h123v-718h-112l-356 527v-527h-123v718h132l336 -503v503zM375 760h-95l89 147h165z" />
    <glyph glyph-name="nacute" unicode="&#x144;" horiz-adv-x="563" 
d="M183 0h-120v525h120v-56q28 32 64.5 49t80.5 17q81 0 128.5 -51.5t47.5 -137.5v-346h-120v311q0 54 -23.5 83t-68.5 29q-46 0 -77.5 -32t-31.5 -83v-308zM326 577h-95l60 141h148z" />
    <glyph glyph-name="Ncommaaccent" unicode="&#x145;" horiz-adv-x="727" 
d="M536 718h123v-718h-112l-356 527v-527h-123v718h132l336 -503v503zM351 -117h-48v80h120v-63q0 -47 -32.5 -74t-87.5 -27v52q22 0 33.5 7.5t14.5 24.5z" />
    <glyph glyph-name="ncommaaccent" unicode="&#x146;" horiz-adv-x="563" 
d="M183 0h-120v525h120v-56q28 32 64.5 49t80.5 17q81 0 128.5 -51.5t47.5 -137.5v-346h-120v311q0 54 -23.5 83t-68.5 29q-46 0 -77.5 -32t-31.5 -83v-308zM271 -117h-48v80h120v-63q0 -47 -32.5 -74t-87.5 -27v52q22 0 33.5 7.5t14.5 24.5z" />
    <glyph glyph-name="Ncaron" unicode="&#x147;" horiz-adv-x="727" 
d="M536 718h123v-718h-112l-356 527v-527h-123v718h132l336 -503v503zM553 907l-116 -147h-140l-116 147h95l91 -71l91 71h95z" />
    <glyph glyph-name="ncaron" unicode="&#x148;" horiz-adv-x="563" 
d="M183 0h-120v525h120v-56q28 32 64.5 49t80.5 17q81 0 128.5 -51.5t47.5 -137.5v-346h-120v311q0 54 -23.5 83t-68.5 29q-46 0 -77.5 -32t-31.5 -83v-308zM459 718l-99 -141h-126l-99 141h92l70 -60l70 60h92z" />
    <glyph glyph-name="Eng" unicode="&#x14a;" horiz-adv-x="727" 
d="M536 219v499h123v-759q0 -68 -43 -105t-119 -37q-18 0 -31 0.5t-27 2.5v102q13 -1 20 -1.5t15 -0.5q35 0 50 14.5t15 47.5v30l-348 511v-523h-123v718h132z" />
    <glyph glyph-name="eng" unicode="&#x14b;" horiz-adv-x="563" 
d="M328 535q81 0 128.5 -51.5t47.5 -137.5v-387q0 -68 -43 -105t-119 -37q-18 0 -31 0.5t-27 2.5v102q13 -1 20 -1.5t15 -0.5q35 0 50 14.5t15 47.5v329q0 54 -23.5 83t-68.5 29q-46 0 -77.5 -32t-31.5 -83v-308h-120v525h120v-56q28 32 64.5 49t80.5 17z" />
    <glyph glyph-name="Omacron" unicode="&#x14c;" horiz-adv-x="730" 
d="M119 99q-43 50 -65.5 116.5t-22.5 143.5t22.5 143.5t65.5 116.5q46 53 109 81.5t137 28.5t137 -28.5t109 -81.5q43 -50 65.5 -116.5t22.5 -143.5t-22.5 -143.5t-65.5 -116.5q-46 -53 -109 -81.5t-137 -28.5t-137 28.5t-109 81.5zM365 102q92 0 149 71t57 186t-57 186
t-149 71t-149 -71t-57 -186t57 -186t149 -71zM527 869v-99h-324v99h324z" />
    <glyph glyph-name="omacron" unicode="&#x14d;" horiz-adv-x="566" 
d="M469 455q33 -36 50 -85.5t17 -107.5t-17 -107.5t-50 -85.5q-35 -39 -82.5 -59.5t-103.5 -20.5t-103.5 20.5t-82.5 59.5q-33 36 -50 85.5t-17 107.5t17 107.5t50 85.5q35 39 82.5 59.5t103.5 20.5t103.5 -20.5t82.5 -59.5zM283 434q-61 0 -96.5 -46t-35.5 -126t35.5 -126
t96.5 -46t96.5 46t35.5 126t-35.5 126t-96.5 46zM429 691v-95h-292v95h292z" />
    <glyph glyph-name="Obreve" unicode="&#x14e;" horiz-adv-x="730" 
d="M119 99q-43 50 -65.5 116.5t-22.5 143.5t22.5 143.5t65.5 116.5q46 53 109 81.5t137 28.5t137 -28.5t109 -81.5q43 -50 65.5 -116.5t22.5 -143.5t-22.5 -143.5t-65.5 -116.5q-46 -53 -109 -81.5t-137 -28.5t-137 28.5t-109 81.5zM365 102q92 0 149 71t57 186t-57 186
t-149 71t-149 -71t-57 -186t57 -186t149 -71zM365 835q33 0 54 20t21 52h90q0 -68 -44.5 -109t-120.5 -41t-120.5 41t-44.5 109h90q0 -32 21 -52t54 -20z" />
    <glyph glyph-name="obreve" unicode="&#x14f;" horiz-adv-x="566" 
d="M469 455q33 -36 50 -85.5t17 -107.5t-17 -107.5t-50 -85.5q-35 -39 -82.5 -59.5t-103.5 -20.5t-103.5 20.5t-82.5 59.5q-33 36 -50 85.5t-17 107.5t17 107.5t50 85.5q35 39 82.5 59.5t103.5 20.5t103.5 -20.5t82.5 -59.5zM283 434q-61 0 -96.5 -46t-35.5 -126t35.5 -126
t96.5 -46t96.5 46t35.5 126t-35.5 126t-96.5 46zM283 657q27 0 44 16.5t17 44.5h82q0 -68 -38.5 -106.5t-104.5 -38.5t-104.5 38.5t-38.5 106.5h82q0 -28 17 -44.5t44 -16.5z" />
    <glyph glyph-name="Ohungarumlaut" unicode="&#x150;" horiz-adv-x="730" 
d="M119 99q-43 50 -65.5 116.5t-22.5 143.5t22.5 143.5t65.5 116.5q46 53 109 81.5t137 28.5t137 -28.5t109 -81.5q43 -50 65.5 -116.5t22.5 -143.5t-22.5 -143.5t-65.5 -116.5q-46 -53 -109 -81.5t-137 -28.5t-137 28.5t-109 81.5zM365 102q92 0 149 71t57 186t-57 186
t-149 71t-149 -71t-57 -186t57 -186t149 -71zM503 760h-95l84 147h141zM304 760h-95l84 147h141z" />
    <glyph glyph-name="ohungarumlaut" unicode="&#x151;" horiz-adv-x="566" 
d="M469 455q33 -36 50 -85.5t17 -107.5t-17 -107.5t-50 -85.5q-35 -39 -82.5 -59.5t-103.5 -20.5t-103.5 20.5t-82.5 59.5q-33 36 -50 85.5t-17 107.5t17 107.5t50 85.5q35 39 82.5 59.5t103.5 20.5t103.5 -20.5t82.5 -59.5zM283 434q-61 0 -96.5 -46t-35.5 -126t35.5 -126
t96.5 -46t96.5 46t35.5 126t-35.5 126t-96.5 46zM405 577h-85l59 141h131zM236 577h-85l59 141h131z" />
    <glyph glyph-name="OE" unicode="&#x152;" horiz-adv-x="1035" 
d="M129 97q-48 47 -73 114t-25 148t25 148t73 114q47 48 114 72.5t149 24.5h603v-112h-360v-180h303v-112h-303v-202h360v-112h-603q-82 0 -149 24.5t-114 72.5zM507 109v500h-115q-109 0 -172 -67.5t-63 -182.5q0 -116 63 -183t173 -67h114z" />
    <glyph glyph-name="oe" unicode="&#x153;" horiz-adv-x="927" 
d="M672 -11q-56 0 -104 20.5t-83 58.5l-9 9q-3 -4 -7 -8q-35 -39 -82.5 -59.5t-103.5 -20.5t-103.5 20.5t-82.5 59.5q-33 36 -50 85.5t-17 107.5t17 107.5t50 85.5q35 39 82.5 59.5t103.5 20.5t103.5 -20.5t82.5 -59.5l8 -10q4 4 7 8q35 40 82 61t101 21q107 0 170 -71.5
t63 -187.5v-40h-365l-1 -15q9 -57 42 -91q38 -39 96 -39q45 0 77.5 22.5t44.5 61.5l103 -39q-28 -69 -87.5 -108t-137.5 -39zM283 434q-61 0 -96.5 -46t-35.5 -126t35.5 -126t96.5 -46t96.5 46t35.5 126t-35.5 126t-96.5 46zM666 434q-48 0 -81.5 -28t-46.5 -80h241
q-1 49 -31 78.5t-82 29.5z" />
    <glyph glyph-name="Racute" unicode="&#x154;" horiz-adv-x="653" 
d="M312 278h-116v-278h-128v718h287q124 0 192 -57.5t68 -162.5q0 -83 -43 -137t-124 -73l185 -288h-146zM196 608v-220h152q68 0 104.5 28.5t36.5 81.5q0 54 -36 82t-105 28h-152zM332 760h-95l89 147h165z" />
    <glyph glyph-name="racute" unicode="&#x155;" horiz-adv-x="381" 
d="M327 528q8 0 16 -0.5t18 -1.5v-120q-12 2 -22 2.5t-22 0.5q-60 0 -97 -36.5t-37 -96.5v-276h-120v525h120v-78q18 37 56.5 59t87.5 22zM253 577h-95l60 141h148z" />
    <glyph glyph-name="Rcommaaccent" unicode="&#x156;" horiz-adv-x="653" 
d="M312 278h-116v-278h-128v718h287q124 0 192 -57.5t68 -162.5q0 -83 -43 -137t-124 -73l185 -288h-146zM196 608v-220h152q68 0 104.5 28.5t36.5 81.5q0 54 -36 82t-105 28h-152zM313 -117h-48v80h120v-63q0 -47 -32.5 -74t-87.5 -27v52q22 0 33.5 7.5t14.5 24.5z" />
    <glyph glyph-name="rcommaaccent" unicode="&#x157;" horiz-adv-x="381" 
d="M327 528q8 0 16 -0.5t18 -1.5v-120q-12 2 -22 2.5t-22 0.5q-60 0 -97 -36.5t-37 -96.5v-276h-120v525h120v-78q18 37 56.5 59t87.5 22zM110 -117h-48v80h120v-63q0 -47 -32.5 -74t-87.5 -27v52q22 0 33.5 7.5t14.5 24.5z" />
    <glyph glyph-name="Rcaron" unicode="&#x158;" horiz-adv-x="653" 
d="M312 278h-116v-278h-128v718h287q124 0 192 -57.5t68 -162.5q0 -83 -43 -137t-124 -73l185 -288h-146zM196 608v-220h152q68 0 104.5 28.5t36.5 81.5q0 54 -36 82t-105 28h-152zM510 907l-116 -147h-140l-116 147h95l91 -71l91 71h95z" />
    <glyph glyph-name="rcaron" unicode="&#x159;" horiz-adv-x="381" 
d="M327 528q8 0 16 -0.5t18 -1.5v-120q-12 2 -22 2.5t-22 0.5q-60 0 -97 -36.5t-37 -96.5v-276h-120v525h120v-78q18 37 56.5 59t87.5 22zM383 718l-99 -141h-126l-99 141h92l70 -60l70 60h92z" />
    <glyph glyph-name="Sacute" unicode="&#x15a;" horiz-adv-x="590" 
d="M296 -11q-94 0 -177 41.5t-124 109.5l98 81q38 -59 92 -91t115 -32q65 0 103.5 28.5t38.5 77.5q0 21 -8.5 36.5t-26.5 26.5q-12 8 -29 14.5t-43 13.5q-14 3 -40 9.5t-35 8.5q-63 15 -96.5 28t-57.5 29q-35 24 -52.5 59t-17.5 82q0 50 20.5 91.5t60.5 71.5q34 27 80 41
t98 14q85 0 156.5 -36t110.5 -97l-94 -81q-35 54 -78 79.5t-99 25.5q-58 0 -94 -26.5t-36 -69.5q0 -26 13 -43t43 -29q13 -5 32.5 -10.5t63.5 -15.5q81 -18 114.5 -30t57.5 -27q42 -25 62.5 -62.5t20.5 -89.5t-22 -95.5t-63 -75.5q-37 -27 -85 -42t-102 -15zM339 760h-95
l89 147h165z" />
    <glyph glyph-name="sacute" unicode="&#x15b;" horiz-adv-x="494" 
d="M249 -11q-77 0 -142 30t-99 81l90 72q23 -38 65 -61.5t87 -23.5t71.5 17t26.5 48q0 19 -11 30.5t-39 19.5q-6 2 -25.5 6t-51.5 11q-51 11 -77 19.5t-45 20.5q-28 19 -42 46t-14 64q0 73 57.5 119.5t147.5 46.5q67 0 125 -27t87 -72l-81 -73q-23 35 -59 54.5t-79 19.5
q-37 0 -59 -15.5t-22 -41.5q0 -16 9.5 -26t30.5 -18q8 -2 19.5 -5t44.5 -10q65 -14 90 -22.5t44 -18.5q34 -19 50.5 -48t16.5 -69q0 -76 -61.5 -125t-154.5 -49zM290 577h-95l60 141h148z" />
    <glyph glyph-name="Scircumflex" unicode="&#x15c;" horiz-adv-x="590" 
d="M296 -11q-94 0 -177 41.5t-124 109.5l98 81q38 -59 92 -91t115 -32q65 0 103.5 28.5t38.5 77.5q0 21 -8.5 36.5t-26.5 26.5q-12 8 -29 14.5t-43 13.5q-14 3 -40 9.5t-35 8.5q-63 15 -96.5 28t-57.5 29q-35 24 -52.5 59t-17.5 82q0 50 20.5 91.5t60.5 71.5q34 27 80 41
t98 14q85 0 156.5 -36t110.5 -97l-94 -81q-35 54 -78 79.5t-99 25.5q-58 0 -94 -26.5t-36 -69.5q0 -26 13 -43t43 -29q13 -5 32.5 -10.5t63.5 -15.5q81 -18 114.5 -30t57.5 -27q42 -25 62.5 -62.5t20.5 -89.5t-22 -95.5t-63 -75.5q-37 -27 -85 -42t-102 -15zM236 907h140
l116 -147h-95l-91 71l-91 -71h-95z" />
    <glyph glyph-name="scircumflex" unicode="&#x15d;" horiz-adv-x="494" 
d="M249 -11q-77 0 -142 30t-99 81l90 72q23 -38 65 -61.5t87 -23.5t71.5 17t26.5 48q0 19 -11 30.5t-39 19.5q-6 2 -25.5 6t-51.5 11q-51 11 -77 19.5t-45 20.5q-28 19 -42 46t-14 64q0 73 57.5 119.5t147.5 46.5q67 0 125 -27t87 -72l-81 -73q-23 35 -59 54.5t-79 19.5
q-37 0 -59 -15.5t-22 -41.5q0 -16 9.5 -26t30.5 -18q8 -2 19.5 -5t44.5 -10q65 -14 90 -22.5t44 -18.5q34 -19 50.5 -48t16.5 -69q0 -76 -61.5 -125t-154.5 -49zM188 718h126l99 -141h-92l-70 60l-70 -60h-92z" />
    <glyph glyph-name="Scedilla" unicode="&#x15e;" horiz-adv-x="590" 
d="M-5 140l98 81q38 -59 92 -91t115 -32q65 0 103.5 28.5t38.5 77.5q0 21 -8.5 36.5t-26.5 26.5q-12 8 -29 14.5t-43 13.5q-14 3 -40 9.5t-35 8.5q-63 15 -96.5 28t-57.5 29q-35 24 -52.5 59t-17.5 82q0 50 20.5 91.5t60.5 71.5q34 27 80 41t98 14q85 0 156.5 -36t110.5 -97
l-94 -81q-35 54 -78 79.5t-99 25.5q-58 0 -94 -26.5t-36 -69.5q0 -26 13 -43t43 -29q13 -5 32.5 -10.5t63.5 -15.5q81 -18 114.5 -30t57.5 -27q42 -25 62.5 -62.5t20.5 -89.5q0 -50 -20 -92t-59 -73q-34 -28 -79.5 -44t-96.5 -19l-3 -10q39 -5 60.5 -26t21.5 -54
q0 -39 -34 -64t-85 -25q-32 0 -58 9t-45 27l42 60q11 -13 24.5 -20t30.5 -7q19 0 29.5 6.5t10.5 18.5q0 14 -17 21.5t-55 9.5l17 57q-83 9 -152 49t-105 99z" />
    <glyph glyph-name="scedilla" unicode="&#x15f;" horiz-adv-x="494" 
d="M8 100l90 72q23 -38 65 -61.5t87 -23.5t71.5 17t26.5 48q0 19 -11 30.5t-39 19.5q-6 2 -25.5 6t-51.5 11q-51 11 -77 19.5t-45 20.5q-28 19 -42 46t-14 64q0 73 57.5 119.5t147.5 46.5q67 0 125 -27t87 -72l-81 -73q-23 35 -59 54.5t-79 19.5q-37 0 -59 -15.5t-22 -41.5
q0 -16 9.5 -26t30.5 -18q8 -2 19.5 -5t44.5 -10q65 -14 90 -22.5t44 -18.5q34 -19 50.5 -48t16.5 -69q0 -74 -58 -122.5t-148 -51.5l-3 -10q39 -5 60.5 -26t21.5 -54q0 -39 -34 -64t-85 -25q-32 0 -58 9t-45 27l42 60q11 -13 24.5 -20t30.5 -7q19 0 29.5 6.5t10.5 18.5
q0 14 -17 21.5t-55 9.5l17 58q-62 9 -112 37t-78 70z" />
    <glyph glyph-name="Scaron" unicode="&#x160;" horiz-adv-x="590" 
d="M296 -11q-94 0 -177 41.5t-124 109.5l98 81q38 -59 92 -91t115 -32q65 0 103.5 28.5t38.5 77.5q0 21 -8.5 36.5t-26.5 26.5q-12 8 -29 14.5t-43 13.5q-14 3 -40 9.5t-35 8.5q-63 15 -96.5 28t-57.5 29q-35 24 -52.5 59t-17.5 82q0 50 20.5 91.5t60.5 71.5q34 27 80 41
t98 14q85 0 156.5 -36t110.5 -97l-94 -81q-35 54 -78 79.5t-99 25.5q-58 0 -94 -26.5t-36 -69.5q0 -26 13 -43t43 -29q13 -5 32.5 -10.5t63.5 -15.5q81 -18 114.5 -30t57.5 -27q42 -25 62.5 -62.5t20.5 -89.5t-22 -95.5t-63 -75.5q-37 -27 -85 -42t-102 -15zM491 907
l-116 -147h-140l-116 147h95l91 -71l91 71h95z" />
    <glyph glyph-name="scaron" unicode="&#x161;" horiz-adv-x="494" 
d="M249 -11q-77 0 -142 30t-99 81l90 72q23 -38 65 -61.5t87 -23.5t71.5 17t26.5 48q0 19 -11 30.5t-39 19.5q-6 2 -25.5 6t-51.5 11q-51 11 -77 19.5t-45 20.5q-28 19 -42 46t-14 64q0 73 57.5 119.5t147.5 46.5q67 0 125 -27t87 -72l-81 -73q-23 35 -59 54.5t-79 19.5
q-37 0 -59 -15.5t-22 -41.5q0 -16 9.5 -26t30.5 -18q8 -2 19.5 -5t44.5 -10q65 -14 90 -22.5t44 -18.5q34 -19 50.5 -48t16.5 -69q0 -76 -61.5 -125t-154.5 -49zM418 718l-99 -141h-126l-99 141h92l70 -60l70 60h92z" />
    <glyph glyph-name="Tcommaaccent" unicode="&#x162;" horiz-adv-x="620" 
d="M413 -101q0 -39 -34 -64t-85 -25q-32 0 -58 9t-45 27l42 60q11 -13 24.5 -20t30.5 -7q19 0 29.5 6.5t10.5 18.5q0 14 -17 21.5t-55 9.5l19 65h-29v606h-231v112h590v-112h-231v-606h-37l-6 -21q39 -5 60.5 -26t21.5 -54z" />
    <glyph glyph-name="tcommaaccent" unicode="&#x163;" horiz-adv-x="338" 
d="M74 132v291h-73v102h73v154h118v-154h110v-102h-110v-272q0 -28 14 -40t56 -12q12 0 22 0.5t27 2.5v-101q-18 -3 -39 -5t-41 -2l-5 -15q39 -5 60.5 -26t21.5 -54q0 -39 -34 -64t-85 -25q-32 0 -58 9t-45 27l42 60q11 -13 24.5 -20t30.5 -7q19 0 29.5 6.5t10.5 18.5
q0 14 -17 21.5t-55 9.5l19 64q-50 10 -73 41.5t-23 91.5z" />
    <glyph glyph-name="Tcaron" unicode="&#x164;" horiz-adv-x="620" 
d="M605 718v-112h-231v-606h-128v606h-231v112h590zM496 907l-116 -147h-140l-116 147h95l91 -71l91 71h95z" />
    <glyph glyph-name="tcaron" unicode="&#x165;" horiz-adv-x="338" 
d="M228 -6q-83 0 -118.5 32.5t-35.5 105.5v291h-73v102h73v154h118v-154h110v-102h-110v-272q0 -28 14 -40t56 -12q12 0 22 0.5t27 2.5v-101q-18 -3 -40 -5t-43 -2zM312 575h-82l17 163h136z" />
    <glyph glyph-name="Tbar" unicode="&#x166;" horiz-adv-x="620" 
d="M484 425v-112h-110v-313h-128v313h-110v112h110v181h-231v112h590v-112h-231v-181h110z" />
    <glyph glyph-name="tbar" unicode="&#x167;" horiz-adv-x="360" 
d="M245 -6q-84 0 -120 32.5t-36 105.5v107h-83v102h83v82h-83v102h83v154h118v-154h114v-102h-114v-82h114v-102h-114v-82q0 -28 14.5 -40t57.5 -12q15 0 26.5 1t24.5 3v-108q-18 -3 -40.5 -5t-44.5 -2z" />
    <glyph glyph-name="Utilde" unicode="&#x168;" horiz-adv-x="693" 
d="M346 -10q-136 0 -212.5 77.5t-76.5 217.5v433h128v-429q0 -91 41.5 -138.5t119.5 -47.5q79 0 120.5 47.5t41.5 138.5v429h128v-433q0 -141 -76.5 -218t-213.5 -77zM275 916q18 0 36 -6.5t47 -27.5q21 -14 31 -18.5t19 -4.5q17 0 27.5 13t16.5 44h81q-5 -72 -36 -113.5
t-81 -41.5q-18 0 -36 6.5t-46 27.5q-21 14 -31 18.5t-19 4.5q-18 0 -28.5 -13.5t-15.5 -43.5h-81q4 72 35 113.5t81 41.5z" />
    <glyph glyph-name="utilde" unicode="&#x169;" horiz-adv-x="563" 
d="M380 525h120v-525h-120v56q-29 -33 -64.5 -50t-78.5 -17q-82 0 -130 51t-48 137v348h120v-322q0 -51 23.5 -78t69.5 -27t77 32t31 83v312zM217 725q16 0 31.5 -6.5t40.5 -26.5q17 -14 25.5 -18t15.5 -4q15 0 24 12.5t14 42.5h76q-4 -69 -31.5 -108.5t-72.5 -39.5
q-16 0 -31.5 6.5t-40.5 25.5q-17 14 -25.5 18t-15.5 4q-15 0 -24 -12t-14 -42h-76q4 69 31.5 108.5t72.5 39.5z" />
    <glyph glyph-name="Umacron" unicode="&#x16a;" horiz-adv-x="693" 
d="M346 -10q-136 0 -212.5 77.5t-76.5 217.5v433h128v-429q0 -91 41.5 -138.5t119.5 -47.5q79 0 120.5 47.5t41.5 138.5v429h128v-433q0 -141 -76.5 -218t-213.5 -77zM508 869v-99h-324v99h324z" />
    <glyph glyph-name="umacron" unicode="&#x16b;" horiz-adv-x="563" 
d="M380 525h120v-525h-120v56q-29 -33 -64.5 -50t-78.5 -17q-82 0 -130 51t-48 137v348h120v-322q0 -51 23.5 -78t69.5 -27t77 32t31 83v312zM425 691v-95h-292v95h292z" />
    <glyph glyph-name="Ubreve" unicode="&#x16c;" horiz-adv-x="693" 
d="M346 -10q-136 0 -212.5 77.5t-76.5 217.5v433h128v-429q0 -91 41.5 -138.5t119.5 -47.5q79 0 120.5 47.5t41.5 138.5v429h128v-433q0 -141 -76.5 -218t-213.5 -77zM346 835q33 0 54 20t21 52h90q0 -68 -44.5 -109t-120.5 -41t-120.5 41t-44.5 109h90q0 -32 21 -52t54 -20
z" />
    <glyph glyph-name="ubreve" unicode="&#x16d;" horiz-adv-x="563" 
d="M380 525h120v-525h-120v56q-29 -33 -64.5 -50t-78.5 -17q-82 0 -130 51t-48 137v348h120v-322q0 -51 23.5 -78t69.5 -27t77 32t31 83v312zM279 657q27 0 44 16.5t17 44.5h82q0 -68 -38.5 -106.5t-104.5 -38.5t-104.5 38.5t-38.5 106.5h82q0 -28 17 -44.5t44 -16.5z" />
    <glyph glyph-name="Uring" unicode="&#x16e;" horiz-adv-x="693" 
d="M346 -10q-136 0 -212.5 77.5t-76.5 217.5v433h128v-429q0 -91 41.5 -138.5t119.5 -47.5q79 0 120.5 47.5t41.5 138.5v429h128v-433q0 -141 -76.5 -218t-213.5 -77zM346 730q-55 0 -92 36.5t-37 88.5t37 87.5t92 35.5q56 0 92.5 -35.5t36.5 -87.5q0 -53 -37 -89t-92 -36z
M346 908q-23 0 -37.5 -15t-14.5 -38q0 -24 14.5 -38.5t37.5 -14.5t37.5 14.5t14.5 38.5q0 23 -14.5 38t-37.5 15z" />
    <glyph glyph-name="uring" unicode="&#x16f;" horiz-adv-x="563" 
d="M380 525h120v-525h-120v56q-29 -33 -64.5 -50t-78.5 -17q-82 0 -130 51t-48 137v348h120v-322q0 -51 23.5 -78t69.5 -27t77 32t31 83v312zM279 561q-47 0 -79 31t-32 76t32 75.5t79 30.5t79 -30.5t32 -75.5t-32 -76t-79 -31zM279 716q-20 0 -33.5 -14t-13.5 -34t13.5 -34
t33.5 -14t33.5 14t13.5 34t-13.5 34t-33.5 14z" />
    <glyph glyph-name="Uhungarumlaut" unicode="&#x170;" horiz-adv-x="693" 
d="M346 -10q-136 0 -212.5 77.5t-76.5 217.5v433h128v-429q0 -91 41.5 -138.5t119.5 -47.5q79 0 120.5 47.5t41.5 138.5v429h128v-433q0 -141 -76.5 -218t-213.5 -77zM483 760h-95l84 147h141zM284 760h-95l84 147h141z" />
    <glyph glyph-name="uhungarumlaut" unicode="&#x171;" horiz-adv-x="563" 
d="M380 525h120v-525h-120v56q-29 -33 -64.5 -50t-78.5 -17q-82 0 -130 51t-48 137v348h120v-322q0 -51 23.5 -78t69.5 -27t77 32t31 83v312zM410 577h-85l59 141h131zM241 577h-85l59 141h131z" />
    <glyph glyph-name="Uogonek" unicode="&#x172;" horiz-adv-x="693" 
d="M394 -186q-42 0 -70.5 25.5t-28.5 63.5q0 25 9.5 46.5t28.5 40.5q-131 4 -203.5 81t-72.5 214v433h128v-429q0 -91 41.5 -138.5t119.5 -47.5q79 0 120.5 47.5t41.5 138.5v429h128v-433q0 -112 -49 -184.5t-141 -97.5q-37 -28 -51.5 -46t-14.5 -34q0 -14 10.5 -23t26.5 -9
q10 0 18.5 1.5t19.5 4.5v-75q-17 -5 -30 -6.5t-31 -1.5z" />
    <glyph glyph-name="uogonek" unicode="&#x173;" horiz-adv-x="563" 
d="M426 -186q-42 0 -70.5 25.5t-28.5 63.5q0 29 13 54t40 48v51q-29 -33 -64.5 -50t-78.5 -17q-82 0 -130 51t-48 137v348h120v-322q0 -51 23.5 -78t69.5 -27t77 32t31 83v312h120v-525h-25q-34 -26 -48.5 -43.5t-14.5 -33.5q0 -14 10.5 -23t26.5 -9q10 0 18.5 1.5t19.5 4.5
v-75q-17 -5 -30 -6.5t-31 -1.5z" />
    <glyph glyph-name="Wcircumflex" unicode="&#x174;" horiz-adv-x="932" 
d="M278 191l133 527h113l134 -527l136 527h128l-194 -718h-126l-136 506l-135 -506h-126l-195 718h132zM396 907h140l116 -147h-95l-91 71l-91 -71h-95z" />
    <glyph glyph-name="wcircumflex" unicode="&#x175;" horiz-adv-x="720" 
d="M220 177l93 348h99l94 -348l93 348h119l-158 -525h-104l-96 344l-96 -344h-104l-158 525h123zM303 718h126l99 -141h-92l-70 60l-70 -60h-92z" />
    <glyph glyph-name="Ycircumflex" unicode="&#x176;" horiz-adv-x="647" 
d="M139 718l186 -305l186 305h136l-259 -422v-296h-128v296l-260 422h139zM253 907h140l116 -147h-95l-91 71l-91 -71h-95z" />
    <glyph glyph-name="ycircumflex" unicode="&#x177;" horiz-adv-x="509" 
d="M507 525l-216 -574q-27 -73 -71 -104t-114 -31q-13 0 -22 0.5t-27 2.5v101q15 -2 23 -2.5t17 -0.5q32 0 48 11.5t28 41.5l20 49l-191 506h126l129 -368l126 368h124zM197 718h126l99 -141h-92l-70 60l-70 -60h-92z" />
    <glyph glyph-name="Ydieresis" unicode="&#x178;" horiz-adv-x="647" 
d="M139 718l186 -305l186 305h136l-259 -422v-296h-128v296l-260 422h139zM290 760h-128v123h128v-123zM484 760h-128v123h128v-123z" />
    <glyph glyph-name="Zacute" unicode="&#x179;" horiz-adv-x="629" 
d="M200 112h397v-112h-560v99l394 507h-390v112h552v-99zM341 760h-95l89 147h165z" />
    <glyph glyph-name="zacute" unicode="&#x17a;" horiz-adv-x="499" 
d="M186 102h277v-102h-428v90l282 333h-278v102h421v-91zM283 577h-95l60 141h148z" />
    <glyph glyph-name="Zdotaccent" unicode="&#x17b;" horiz-adv-x="629" 
d="M200 112h397v-112h-560v99l394 507h-390v112h552v-99zM389 760h-128v123h128v-123z" />
    <glyph glyph-name="zdotaccent" unicode="&#x17c;" horiz-adv-x="499" 
d="M186 102h277v-102h-428v90l282 333h-278v102h421v-91zM305 595h-124v123h124v-123z" />
    <glyph glyph-name="Zcaron" unicode="&#x17d;" horiz-adv-x="629" 
d="M200 112h397v-112h-560v99l394 507h-390v112h552v-99zM514 907l-116 -147h-140l-116 147h95l91 -71l91 71h95z" />
    <glyph glyph-name="zcaron" unicode="&#x17e;" horiz-adv-x="499" 
d="M186 102h277v-102h-428v90l282 333h-278v102h421v-91zM412 718l-99 -141h-126l-99 141h92l70 -60l70 60h92z" />
    <glyph glyph-name="florin" unicode="&#x192;" horiz-adv-x="547" 
d="M208 342h-97v86h108l14 101q13 97 63.5 148.5t133.5 51.5q38 0 70.5 -12t56.5 -34l-46 -87q-12 15 -29.5 23.5t-35.5 8.5q-34 0 -56 -26t-29 -75l-14 -99h111v-86h-123l-21 -153q-11 -97 -61.5 -148.5t-134.5 -51.5q-37 0 -70 12t-58 34l47 87q12 -14 29.5 -23t35.5 -9
q34 0 55.5 25.5t29.5 75.5z" />
    <glyph glyph-name="AEacute" unicode="&#x1fc;" horiz-adv-x="1024" 
d="M0 0l424 718h560v-112h-360v-180h303v-112h-303v-202h360v-112h-486v174h-257l-102 -174h-139zM498 614l-192 -328h192v328zM749 760h-95l89 147h165z" />
    <glyph glyph-name="aeacute" unicode="&#x1fd;" horiz-adv-x="850" 
d="M25 148q0 82 65.5 130t175.5 48h80v24q0 40 -22.5 60.5t-67.5 20.5q-41 0 -65.5 -18.5t-35.5 -58.5l-113 26q21 71 79.5 113t139.5 42q57 0 98.5 -17.5t65.5 -51.5q33 34 75 51.5t90 17.5q107 0 170 -71.5t63 -187.5v-40h-368q7 -67 44.5 -106t95.5 -39q45 0 77.5 22.5
t44.5 61.5l103 -39q-28 -69 -87.5 -108t-137.5 -39q-60 0 -110.5 23.5t-84.5 66.5q-31 -43 -81 -65.5t-115 -22.5q-77 0 -128 44t-51 113zM589 434q-48 0 -81.5 -28t-46.5 -80h241q-1 49 -31 78.5t-82 29.5zM144 158q0 -32 22 -51t58 -19q52 0 87 30.5t35 77.5v40h-76
q-67 0 -96.5 -18.5t-29.5 -59.5zM465 577h-95l60 141h148z" />
    <glyph glyph-name="Oslashacute" unicode="&#x1fe;" horiz-adv-x="730" 
d="M112 -31l-74 58l70 85q-38 49 -57.5 112t-19.5 135q0 77 22.5 143.5t65.5 116.5q46 53 109 81.5t137 28.5q55 0 105.5 -16t92.5 -48l55 67l74 -58l-64 -77q35 -49 53 -109.5t18 -128.5q0 -77 -22.5 -143.5t-65.5 -116.5q-46 -53 -109 -81.5t-137 -28.5q-52 0 -100 14.5
t-89 43.5zM365 616q-92 0 -149 -71t-57 -186q0 -43 8 -80t24 -67l296 361q-25 21 -56 32t-66 11zM365 102q92 0 149 71t57 186q0 39 -6.5 73t-19.5 63l-294 -356q24 -18 53 -27.5t61 -9.5zM394 760h-95l89 147h165z" />
    <glyph glyph-name="oslashacute" unicode="&#x1ff;" horiz-adv-x="566" 
d="M30 262q0 58 17 107.5t50 85.5q35 39 82.5 59.5t103.5 20.5q37 0 70.5 -9t63.5 -27l42 52l69 -53l-46 -58q26 -36 40 -81.5t14 -96.5q0 -58 -17 -107.5t-50 -85.5q-35 -39 -82.5 -59.5t-103.5 -20.5q-37 0 -71 9t-63 27l-41 -52l-69 53l46 57q-27 36 -41 81.5t-14 97.5z
M283 434q-61 0 -96.5 -46t-35.5 -126q0 -23 3 -43.5t9 -37.5l187 234q-15 10 -31.5 14.5t-35.5 4.5zM283 90q61 0 96.5 46t35.5 126q0 23 -3 43t-9 37l-187 -234q14 -9 31 -13.5t36 -4.5zM325 577h-95l60 141h148z" />
    <glyph glyph-name="Scommaaccent" unicode="&#x218;" horiz-adv-x="590" 
d="M296 -11q-94 0 -177 41.5t-124 109.5l98 81q38 -59 92 -91t115 -32q65 0 103.5 28.5t38.5 77.5q0 21 -8.5 36.5t-26.5 26.5q-12 8 -29 14.5t-43 13.5q-14 3 -40 9.5t-35 8.5q-63 15 -96.5 28t-57.5 29q-35 24 -52.5 59t-17.5 82q0 50 20.5 91.5t60.5 71.5q34 27 80 41
t98 14q85 0 156.5 -36t110.5 -97l-94 -81q-35 54 -78 79.5t-99 25.5q-58 0 -94 -26.5t-36 -69.5q0 -26 13 -43t43 -29q13 -5 32.5 -10.5t63.5 -15.5q81 -18 114.5 -30t57.5 -27q42 -25 62.5 -62.5t20.5 -89.5t-22 -95.5t-63 -75.5q-37 -27 -85 -42t-102 -15zM288 -117h-48
v80h120v-63q0 -47 -32.5 -74t-87.5 -27v52q22 0 33.5 7.5t14.5 24.5z" />
    <glyph glyph-name="scommaaccent" unicode="&#x219;" horiz-adv-x="494" 
d="M249 -11q-77 0 -142 30t-99 81l90 72q23 -38 65 -61.5t87 -23.5t71.5 17t26.5 48q0 19 -11 30.5t-39 19.5q-6 2 -25.5 6t-51.5 11q-51 11 -77 19.5t-45 20.5q-28 19 -42 46t-14 64q0 73 57.5 119.5t147.5 46.5q67 0 125 -27t87 -72l-81 -73q-23 35 -59 54.5t-79 19.5
q-37 0 -59 -15.5t-22 -41.5q0 -16 9.5 -26t30.5 -18q8 -2 19.5 -5t44.5 -10q65 -14 90 -22.5t44 -18.5q34 -19 50.5 -48t16.5 -69q0 -76 -61.5 -125t-154.5 -49zM237 -117h-48v80h120v-63q0 -47 -32.5 -74t-87.5 -27v52q22 0 33.5 7.5t14.5 24.5z" />
    <glyph glyph-name="uni021A" unicode="&#x21a;" horiz-adv-x="620" 
d="M605 718v-112h-231v-606h-128v606h-231v112h590zM298 -117h-48v80h120v-63q0 -47 -32.5 -74t-87.5 -27v52q22 0 33.5 7.5t14.5 24.5z" />
    <glyph glyph-name="uni021B" unicode="&#x21b;" horiz-adv-x="338" 
d="M228 -6q-83 0 -118.5 32.5t-35.5 105.5v291h-73v102h73v154h118v-154h110v-102h-110v-272q0 -28 14 -40t56 -12q12 0 22 0.5t27 2.5v-101q-18 -3 -40 -5t-43 -2zM189 -117h-48v80h120v-63q0 -47 -32.5 -74t-87.5 -27v52q22 0 33.5 7.5t14.5 24.5z" />
    <glyph glyph-name="uni0237" unicode="&#x237;" horiz-adv-x="246" 
d="M-2 -80q35 0 50 14.5t15 47.5v543h120v-566q0 -68 -43 -105t-119 -37q-18 0 -31 0.5t-27 2.5v102q13 -1 20 -1.5t15 -0.5z" />
    <glyph glyph-name="circumflex" unicode="&#x2c6;" horiz-adv-x="600" 
d="M237 718h126l99 -141h-92l-70 60l-70 -60h-92z" />
    <glyph glyph-name="caron" unicode="&#x2c7;" horiz-adv-x="600" 
d="M462 718l-99 -141h-126l-99 141h92l70 -60l70 60h92z" />
    <glyph glyph-name="breve" unicode="&#x2d8;" horiz-adv-x="600" 
d="M300 657q27 0 44 16.5t17 44.5h82q0 -68 -38.5 -106.5t-104.5 -38.5t-104.5 38.5t-38.5 106.5h82q0 -28 17 -44.5t44 -16.5z" />
    <glyph glyph-name="dotaccent" unicode="&#x2d9;" horiz-adv-x="600" 
d="M362 595h-124v123h124v-123z" />
    <glyph glyph-name="ring" unicode="&#x2da;" horiz-adv-x="600" 
d="M300 561q-47 0 -79 31t-32 76t32 75.5t79 30.5t79 -30.5t32 -75.5t-32 -76t-79 -31zM300 716q-20 0 -33.5 -14t-13.5 -34t13.5 -34t33.5 -14t33.5 14t13.5 34t-13.5 34t-33.5 14z" />
    <glyph glyph-name="ogonek" unicode="&#x2db;" horiz-adv-x="600" 
d="M319 -186q-42 0 -70.5 25.5t-28.5 63.5q0 41 27 75t92 72l34 -46q-38 -28 -53 -46t-15 -35q0 -14 10.5 -23t26.5 -9q10 0 18.5 1.5t19.5 4.5v-75q-17 -5 -30 -6.5t-31 -1.5z" />
    <glyph glyph-name="tilde" unicode="&#x2dc;" horiz-adv-x="600" 
d="M238 725q16 0 31.5 -6.5t40.5 -26.5q17 -14 25.5 -18t15.5 -4q15 0 24 12.5t14 42.5h76q-4 -69 -31.5 -108.5t-72.5 -39.5q-16 0 -31.5 6.5t-40.5 25.5q-17 14 -25.5 18t-15.5 4q-15 0 -24 -12t-14 -42h-76q4 69 31.5 108.5t72.5 39.5z" />
    <glyph glyph-name="hungarumlaut" unicode="&#x2dd;" horiz-adv-x="600" 
d="M372 577h-85l59 141h131zM203 577h-85l59 141h131z" />
    <glyph glyph-name="gravecmb" unicode="&#x300;" horiz-adv-x="0" 
d="M44 718l60 -141h-95l-113 141h148z" />
    <glyph glyph-name="acutecmb" unicode="&#x301;" horiz-adv-x="0" 
d="M-9 577h-95l60 141h148z" />
    <glyph glyph-name="circumflexcmb" unicode="&#x302;" horiz-adv-x="0" 
d="M-63 718h126l99 -141h-92l-70 60l-70 -60h-92z" />
    <glyph glyph-name="tildecmb" unicode="&#x303;" horiz-adv-x="0" 
d="M-62 725q16 0 31.5 -6.5t40.5 -26.5q17 -14 25.5 -18t15.5 -4q15 0 24 12.5t14 42.5h76q-4 -69 -31.5 -108.5t-72.5 -39.5q-16 0 -31.5 6.5t-40.5 25.5q-17 14 -25.5 18t-15.5 4q-15 0 -24 -12t-14 -42h-76q4 69 31.5 108.5t72.5 39.5z" />
    <glyph glyph-name="macroncmb" unicode="&#x304;" horiz-adv-x="0" 
d="M146 691v-95h-292v95h292z" />
    <glyph glyph-name="brevecmb" unicode="&#x306;" horiz-adv-x="0" 
d="M0 657q27 0 44 16.5t17 44.5h82q0 -68 -38.5 -106.5t-104.5 -38.5t-104.5 38.5t-38.5 106.5h82q0 -28 17 -44.5t44 -16.5z" />
    <glyph glyph-name="dotaccentcmb" unicode="&#x307;" horiz-adv-x="0" 
d="M62 595h-124v123h124v-123z" />
    <glyph glyph-name="dieresiscmb" unicode="&#x308;" horiz-adv-x="0" 
d="M-28 595h-128v123h128v-123zM156 595h-128v123h128v-123z" />
    <glyph glyph-name="ringcmb" unicode="&#x30a;" horiz-adv-x="0" 
d="M0 561q-47 0 -79 31t-32 76t32 75.5t79 30.5t79 -30.5t32 -75.5t-32 -76t-79 -31zM0 716q-20 0 -33.5 -14t-13.5 -34t13.5 -34t33.5 -14t33.5 14t13.5 34t-13.5 34t-33.5 14z" />
    <glyph glyph-name="hungarumlautcmb" unicode="&#x30b;" horiz-adv-x="0" 
d="M74 577h-85l59 141h131zM-95 577h-85l59 141h131z" />
    <glyph glyph-name="caroncmb" unicode="&#x30c;" horiz-adv-x="0" 
d="M162 718l-99 -141h-126l-99 141h92l70 -60l70 60h92z" />
    <glyph glyph-name="commaaboverightcmb" unicode="&#x315;" horiz-adv-x="0" 
d="M5 555h-82l17 163h136z" />
    <glyph glyph-name="cedillacmb" unicode="&#x327;" horiz-adv-x="0" 
d="M111 -101q0 -39 -34 -64t-85 -25q-32 0 -58 9t-45 27l42 60q11 -13 24.5 -20t30.5 -7q19 0 29.5 6.5t10.5 18.5q0 14 -17 21.5t-55 9.5l23 77h62l-10 -33q39 -5 60.5 -26t21.5 -54z" />
    <glyph glyph-name="ogonekcmb" unicode="&#x328;" horiz-adv-x="0" 
d="M19 -186q-42 0 -70.5 25.5t-28.5 63.5q0 41 27 75t92 72l34 -46q-38 -28 -53 -46t-15 -35q0 -14 10.5 -23t26.5 -9q10 0 18.5 1.5t19.5 4.5v-75q-17 -5 -30 -6.5t-31 -1.5z" />
    <glyph glyph-name="baht" unicode="&#xe3f;" horiz-adv-x="649" 
d="M286 0h-218v718h218v104h95v-104q106 -4 162 -52.5t56 -136.5q0 -56 -26.5 -96t-75.5 -59q59 -19 92 -65t33 -109q0 -93 -64.5 -146.5t-176.5 -53.5v-106h-95v106zM183 614v-196h103v196h-103zM489 516q0 43 -27.5 68t-80.5 29v-194q53 4 80.5 29t27.5 68zM286 316h-103
v-212h103v212zM510 211q0 48 -33.5 76.5t-91.5 28.5h-4v-212h4q58 0 91.5 29t33.5 78z" />
    <glyph glyph-name="Wgrave" unicode="&#x1e80;" horiz-adv-x="932" 
d="M278 191l133 527h113l134 -527l136 527h128l-194 -718h-126l-136 506l-135 -506h-126l-195 718h132zM432 907l89 -147h-95l-159 147h165z" />
    <glyph glyph-name="wgrave" unicode="&#x1e81;" horiz-adv-x="720" 
d="M220 177l93 348h99l94 -348l93 348h119l-158 -525h-104l-96 344l-96 -344h-104l-158 525h123zM349 718l60 -141h-95l-113 141h148z" />
    <glyph glyph-name="Wacute" unicode="&#x1e82;" horiz-adv-x="932" 
d="M278 191l133 527h113l134 -527l136 527h128l-194 -718h-126l-136 506l-135 -506h-126l-195 718h132zM508 760h-95l89 147h165z" />
    <glyph glyph-name="wacute" unicode="&#x1e83;" horiz-adv-x="720" 
d="M220 177l93 348h99l94 -348l93 348h119l-158 -525h-104l-96 344l-96 -344h-104l-158 525h123zM423 577h-95l60 141h148z" />
    <glyph glyph-name="Wdieresis" unicode="&#x1e84;" horiz-adv-x="932" 
d="M278 191l133 527h113l134 -527l136 527h128l-194 -718h-126l-136 506l-135 -506h-126l-195 718h132zM433 760h-128v123h128v-123zM627 760h-128v123h128v-123z" />
    <glyph glyph-name="wdieresis" unicode="&#x1e85;" horiz-adv-x="720" 
d="M220 177l93 348h99l94 -348l93 348h119l-158 -525h-104l-96 344l-96 -344h-104l-158 525h123zM338 595h-128v123h128v-123zM522 595h-128v123h128v-123z" />
    <glyph glyph-name="Germandbls" unicode="&#x1e9e;" horiz-adv-x="735" 
d="M717 224q0 -101 -73.5 -168t-179.5 -67q-69 0 -125 25.5t-97 75.5l84 86q31 -41 65 -61t73 -20q56 0 94 35t38 91q0 67 -48.5 101t-143.5 34h-46v79l143 173h-305v-608h-128v718h577v-103l-140 -162q99 -14 155.5 -74.5t56.5 -154.5z" />
    <glyph glyph-name="Ygrave" unicode="&#x1ef2;" horiz-adv-x="647" 
d="M139 718l186 -305l186 305h136l-259 -422v-296h-128v296l-260 422h139zM312 907l89 -147h-95l-159 147h165z" />
    <glyph glyph-name="ygrave" unicode="&#x1ef3;" horiz-adv-x="509" 
d="M507 525l-216 -574q-27 -73 -71 -104t-114 -31q-13 0 -22 0.5t-27 2.5v101q15 -2 23 -2.5t17 -0.5q32 0 48 11.5t28 41.5l20 49l-191 506h126l129 -368l126 368h124zM261 718l60 -141h-95l-113 141h148z" />
    <glyph glyph-name="thinspace" unicode="&#x2009;" horiz-adv-x="100" 
 />
    <glyph glyph-name="endash" unicode="&#x2013;" horiz-adv-x="542" 
d="M502 243h-462v97h462v-97z" />
    <glyph glyph-name="emdash" unicode="&#x2014;" horiz-adv-x="976" 
d="M936 243h-896v97h896v-97z" />
    <glyph glyph-name="quoteleft" unicode="&#x2018;" horiz-adv-x="185" 
d="M99 576h66v-142h-145v150q0 61 39.5 97t105.5 37v-67q-34 -3 -50 -18.5t-16 -44.5v-12z" />
    <glyph glyph-name="quoteright" unicode="&#x2019;" horiz-adv-x="185" 
d="M86 576h-66v142h145v-150q0 -61 -39.5 -97t-105.5 -37v67q34 3 50 18.5t16 44.5v12z" />
    <glyph glyph-name="quotesinglbase" unicode="&#x201a;" horiz-adv-x="185" 
d="M86 11h-66v142h145v-150q0 -61 -39.5 -97t-105.5 -37v67q34 3 50 18.5t16 44.5v12z" />
    <glyph glyph-name="quotedblleft" unicode="&#x201c;" horiz-adv-x="384" 
d="M99 576h66v-142h-145v150q0 61 39.5 97t105.5 37v-67q-34 -3 -50 -18.5t-16 -44.5v-12zM298 576h66v-142h-145v150q0 61 39.5 97t105.5 37v-67q-34 -3 -50 -18.5t-16 -44.5v-12z" />
    <glyph glyph-name="quotedblright" unicode="&#x201d;" horiz-adv-x="384" 
d="M285 576h-66v142h145v-150q0 -61 -39.5 -97t-105.5 -37v67q34 3 50 18.5t16 44.5v12zM86 576h-66v142h145v-150q0 -61 -39.5 -97t-105.5 -37v67q34 3 50 18.5t16 44.5v12z" />
    <glyph glyph-name="quotedblbase" unicode="&#x201e;" horiz-adv-x="384" 
d="M285 11h-66v142h145v-150q0 -61 -39.5 -97t-105.5 -37v67q34 3 50 18.5t16 44.5v12zM86 11h-66v142h145v-150q0 -61 -39.5 -97t-105.5 -37v67q34 3 50 18.5t16 44.5v12z" />
    <glyph glyph-name="dagger" unicode="&#x2020;" horiz-adv-x="397" 
d="M246 285h-95v233h-131v96h131v124h95v-124h131v-96h-131v-233z" />
    <glyph glyph-name="daggerdbl" unicode="&#x2021;" horiz-adv-x="397" 
d="M246 285h-95v93h-131v90h131v88h-131v90h131v92h95v-92h131v-90h-131v-88h131v-90h-131v-93z" />
    <glyph glyph-name="bullet" unicode="&#x2022;" horiz-adv-x="426" 
d="M40 290q0 75 50 124.5t124 49.5q73 0 122.5 -49.5t49.5 -124.5q0 -74 -49.5 -123t-122.5 -49q-74 0 -124 49t-50 123z" />
    <glyph glyph-name="ellipsis" unicode="&#x2026;" horiz-adv-x="645" 
d="M185 0h-145v145h145v-145zM395 0h-145v145h145v-145zM605 0h-145v145h145v-145z" />
    <glyph glyph-name="guilsinglleft" unicode="&#x2039;" horiz-adv-x="201" 
d="M181 69l-161 131v120l161 131v-120l-76 -71l76 -71v-120z" />
    <glyph glyph-name="guilsinglright" unicode="&#x203a;" horiz-adv-x="201" 
d="M181 320v-120l-161 -131v120l76 71l-76 71v120z" />
    <glyph glyph-name="fraction" unicode="&#x2044;" horiz-adv-x="187" 
d="M-209 0l504 718h101l-503 -718h-102z" />
    <glyph glyph-name="uni2070" unicode="&#x2070;" horiz-adv-x="380" 
d="M189 314q-72 0 -113 55.5t-41 149.5t41 149.5t113 55.5t113.5 -55.5t41.5 -149.5t-41.5 -149.5t-113.5 -55.5zM189 637q-26 0 -41 -31.5t-15 -86.5q0 -57 14.5 -87.5t41.5 -30.5q28 0 42.5 30.5t14.5 87.5q0 56 -15 87t-42 31z" />
    <glyph glyph-name="uni2074" unicode="&#x2074;" horiz-adv-x="380" 
d="M299 409v-89h-92v89h-179v72l147 237h124v-232h52v-77h-52zM205 639l-98 -153h98v153z" />
    <glyph glyph-name="uni2075" unicode="&#x2075;" horiz-adv-x="380" 
d="M192 510q-14 0 -25 -6t-19 -18l-92 11l18 221h236v-83h-163l-7 -82q18 14 37.5 21.5t40.5 7.5q55 0 88.5 -35.5t33.5 -92.5q0 -61 -43 -100.5t-108 -39.5q-64 0 -106 32.5t-49 89.5l99 16q2 -25 17 -39.5t39 -14.5q23 0 39 16t16 39q0 25 -14.5 41t-37.5 16z" />
    <glyph glyph-name="uni2076" unicode="&#x2076;" horiz-adv-x="380" 
d="M208 724q51 0 85.5 -23.5t51.5 -69.5l-80 -31q-7 21 -21.5 32.5t-36.5 11.5q-32 0 -52 -25t-20 -67v-11.5t1 -7.5q8 21 30 33.5t51 12.5q55 0 91 -35t36 -89q0 -62 -41 -101.5t-106 -39.5q-73 0 -116 54t-43 143q0 95 47 154t123 59zM196 391q24 0 40.5 17t16.5 43
t-16 43t-41 17t-41.5 -17t-16.5 -43t16.5 -43t41.5 -17z" />
    <glyph glyph-name="uni2077" unicode="&#x2077;" horiz-adv-x="380" 
d="M243 636h-119v-54h-82v136h300v-83q-57 -60 -81.5 -128.5t-24.5 -186.5h-107q0 97 28 175t86 141z" />
    <glyph glyph-name="uni2078" unicode="&#x2078;" horiz-adv-x="380" 
d="M53 608q0 52 38.5 84t97.5 32t98 -32t39 -84q0 -27 -13.5 -48t-38.5 -34q32 -12 51.5 -37t19.5 -57q0 -52 -44 -85t-112 -33t-112 33t-44 85q0 31 19.5 56.5t51.5 37.5q-25 13 -38 34t-13 48zM138 606q0 -21 14 -33.5t37 -12.5t37 12.5t14 33.5q0 20 -14 32.5t-37 12.5
q-22 0 -36.5 -12.5t-14.5 -32.5zM249 440q0 23 -17 37.5t-43 14.5t-43 -14.5t-17 -37.5t17 -37t43 -14t43 14t17 37z" />
    <glyph glyph-name="uni2079" unicode="&#x2079;" horiz-adv-x="380" 
d="M171 314q-51 0 -85.5 23.5t-51.5 69.5l80 31q7 -21 21.5 -32.5t36.5 -11.5q32 0 52 25t20 67v11t-1 8q-8 -21 -30 -33.5t-51 -12.5q-55 0 -91 35t-36 89q0 62 41 101.5t106 39.5q73 0 116 -54t43 -143q0 -95 -47 -154t-123 -59zM183 647q-24 0 -40.5 -17t-16.5 -43
t16 -43t41 -17t41.5 17t16.5 43t-16.5 43t-41.5 17z" />
    <glyph glyph-name="uni2080" unicode="&#x2080;" horiz-adv-x="380" 
d="M189 -126q-72 0 -113 55.5t-41 149.5t41 149.5t113 55.5t113.5 -55.5t41.5 -149.5t-41.5 -149.5t-113.5 -55.5zM189 197q-26 0 -41 -31.5t-15 -86.5q0 -57 14.5 -87.5t41.5 -30.5q28 0 42.5 30.5t14.5 87.5q0 56 -15 87t-42 31z" />
    <glyph glyph-name="uni2081" unicode="&#x2081;" horiz-adv-x="380" 
d="M154 -34v182h-95v65l35 2q40 2 59 16.5t26 47.5h75v-313h77v-86h-267v86h90z" />
    <glyph glyph-name="uni2082" unicode="&#x2082;" horiz-adv-x="380" 
d="M42 -120v78l137 108q29 22 41.5 41t12.5 40q0 22 -13.5 35.5t-35.5 13.5t-35.5 -14.5t-13.5 -37.5q0 -11 2 -22t5 -17h-94q-4 11 -6 22t-2 23q0 58 42.5 96t104.5 38q65 0 104 -35.5t39 -93.5q0 -39 -22 -74t-69 -70l-60 -45h158v-86h-295z" />
    <glyph glyph-name="uni2083" unicode="&#x2083;" horiz-adv-x="380" 
d="M339 -7q0 -52 -40.5 -85.5t-105.5 -33.5q-66 0 -108 33t-50 91l100 15q2 -25 18 -40t39 -15t37.5 12.5t14.5 33.5q0 19 -15.5 31t-40.5 12h-38v71h35q24 0 38.5 11t14.5 30t-12.5 30t-33.5 11t-36 -14t-19 -37l-94 8q7 57 49 92t104 35t100.5 -32.5t38.5 -84.5
q0 -29 -18 -52.5t-44 -30.5q31 -11 48.5 -34.5t17.5 -56.5z" />
    <glyph glyph-name="uni2084" unicode="&#x2084;" horiz-adv-x="380" 
d="M299 -31v-89h-92v89h-179v72l147 237h124v-232h52v-77h-52zM205 199l-98 -153h98v153z" />
    <glyph glyph-name="uni2085" unicode="&#x2085;" horiz-adv-x="380" 
d="M192 70q-14 0 -25 -6t-19 -18l-92 11l18 221h236v-83h-163l-7 -82q18 14 37.5 21.5t40.5 7.5q55 0 88.5 -35.5t33.5 -92.5q0 -61 -43 -100.5t-108 -39.5q-64 0 -106 32.5t-49 89.5l99 16q2 -25 17 -39.5t39 -14.5q23 0 39 16t16 39q0 25 -14.5 41t-37.5 16z" />
    <glyph glyph-name="uni2086" unicode="&#x2086;" horiz-adv-x="380" 
d="M208 284q51 0 85.5 -23.5t51.5 -69.5l-80 -31q-7 21 -21.5 32.5t-36.5 11.5q-32 0 -52 -25t-20 -67v-11.5t1 -7.5q8 21 30 33.5t51 12.5q55 0 91 -35t36 -89q0 -62 -41 -101.5t-106 -39.5q-73 0 -116 54t-43 143q0 95 47 154t123 59zM196 -49q24 0 40.5 17t16.5 43
t-16 43t-41 17t-41.5 -17t-16.5 -43t16.5 -43t41.5 -17z" />
    <glyph glyph-name="uni2087" unicode="&#x2087;" horiz-adv-x="380" 
d="M243 196h-119v-54h-82v136h300v-83q-57 -60 -81.5 -128.5t-24.5 -186.5h-107q0 97 28 175t86 141z" />
    <glyph glyph-name="uni2088" unicode="&#x2088;" horiz-adv-x="380" 
d="M53 168q0 52 38.5 84t97.5 32t98 -32t39 -84q0 -27 -13.5 -48t-38.5 -34q32 -12 51.5 -37t19.5 -57q0 -52 -44 -85t-112 -33t-112 33t-44 85q0 31 19.5 56.5t51.5 37.5q-25 13 -38 34t-13 48zM138 166q0 -21 14 -33.5t37 -12.5t37 12.5t14 33.5q0 20 -14 32.5t-37 12.5
q-22 0 -36.5 -12.5t-14.5 -32.5zM249 0q0 23 -17 37.5t-43 14.5t-43 -14.5t-17 -37.5t17 -37t43 -14t43 14t17 37z" />
    <glyph glyph-name="uni2089" unicode="&#x2089;" horiz-adv-x="380" 
d="M171 -126q-51 0 -85.5 23.5t-51.5 69.5l80 31q7 -21 21.5 -32.5t36.5 -11.5q32 0 52 25t20 67v11t-1 8q-8 -21 -30 -33.5t-51 -12.5q-55 0 -91 35t-36 89q0 62 41 101.5t106 39.5q73 0 116 -54t43 -143q0 -95 -47 -154t-123 -59zM183 207q-24 0 -40.5 -17t-16.5 -43
t16 -43t41 -17t41.5 17t16.5 43t-16.5 43t-41.5 17z" />
    <glyph glyph-name="franc" unicode="&#x20a3;" horiz-adv-x="629" 
d="M120 161h-100v102h100v455h479v-112h-353v-165h296v-112h-296v-66h156v-102h-156v-161h-126v161z" />
    <glyph glyph-name="naira" unicode="&#x20a6;" horiz-adv-x="751" 
d="M130 238h-110v90h110v66h-110v90h110v234h128l244 -470v470h119v-234h110v-90h-110v-66h110v-90h-110v-238h-108l-264 507v-507h-119v238z" />
    <glyph glyph-name="peseta" unicode="&#x20a7;" horiz-adv-x="741" 
d="M350 205h-102v-205h-128v414h-100v95h100v209h230q113 0 183.5 -55t84.5 -154h103v-95h-103q-15 -99 -86 -154t-182 -55zM349 620h-101v-111h251q-12 54 -50.5 82.5t-99.5 28.5zM248 414v-111h101q59 0 98 29t52 82h-251z" />
    <glyph glyph-name="won" unicode="&#x20a9;" horiz-adv-x="876" 
d="M153 268h-133v90h114l-13 66h-101v90h82l-42 204h121l100 -532l103 532h110l103 -532l101 532h118l-42 -204h82v-90h-101l-13 -66h114v-90h-133l-55 -268h-125l-104 540l-104 -540h-127z" />
    <glyph glyph-name="dong" unicode="&#x20ab;" horiz-adv-x="581" 
d="M224 64q-87 0 -140.5 60t-53.5 155t53.5 155.5t140.5 60.5q38 0 68 -13t51 -39v95h-157v92h157v88h118v-88h100v-92h-100v-465h-118v43q-21 -26 -51 -39t-68 -13zM346 267v24q0 51 -27 81t-72 30q-46 0 -72 -33t-26 -90t26 -89.5t72 -32.5q45 0 72 30t27 80zM461 -92
h-401v92h401v-92z" />
    <glyph glyph-name="Euro" unicode="&#x20ac;" horiz-adv-x="642" 
d="M94 238h-77v90h66q-1 5 -1 11.5v19.5v22t1 13h-66v90h78q26 116 98.5 180.5t178.5 64.5q91 0 157 -47.5t94 -132.5l-114 -46q-19 63 -52 91t-85 28q-56 0 -94.5 -35t-55.5 -103h206l-20 -90h-199q-1 -6 -1 -13v-22v-19.5t1 -11.5h184l-19 -90h-153q17 -70 55.5 -106
t95.5 -36q52 0 85 28t52 91l114 -46q-28 -85 -94 -132.5t-157 -47.5q-107 0 -180 65.5t-98 183.5z" />
    <glyph glyph-name="peso" unicode="&#x20b1;" horiz-adv-x="718" 
d="M130 328h-110v90h110v66h-110v90h110v144h205q92 0 157.5 -37.5t93.5 -106.5h112v-90h-93q1 -4 1 -8.5v-13.5q0 -11 -1 -22.5t-2 -21.5h95v-90h-123q-32 -60 -94 -91.5t-146 -31.5h-77v-205h-128v328zM258 620v-317h76q72 0 113.5 42.5t41.5 117.5t-41 116t-114 41h-76z
" />
    <glyph glyph-name="uni20B9" unicode="&#x20b9;" horiz-adv-x="563" 
d="M312 423h-262v102h262q-12 44 -46.5 67.5t-87.5 23.5h-128v102h483v-102h-152q16 -17 28 -40.5t18 -50.5h106v-102h-106q-10 -53 -40.5 -94.5t-78.5 -65.5l207 -263h-146l-181 231q-5 -1 -10 -1h-16h-112v102h128q52 0 87 23.5t47 67.5z" />
    <glyph glyph-name="uni20BA" unicode="&#x20ba;" horiz-adv-x="637" 
d="M237 115h62q106 0 155.5 54.5t49.5 170.5h113q0 -160 -83.5 -250t-234.5 -90h-179v247l-100 -43v104l100 43v70l-100 -43v104l100 43v193h117v-151l180 77v-104l-180 -77v-70l180 77v-104l-180 -77v-174z" />
    <glyph glyph-name="uni20BD" unicode="&#x20bd;" horiz-adv-x="634" 
d="M130 146h-110v90h110v66h-110v90h110v326h233q120 0 187 -55.5t67 -155.5q0 -98 -66.5 -151.5t-187.5 -53.5h-105v-66h127v-90h-127v-146h-128v146zM258 614v-222h96q66 0 102 29t36 82q0 54 -35.5 82.5t-102.5 28.5h-96z" />
    <glyph glyph-name="trademark" unicode="&#x2122;" horiz-adv-x="751" 
d="M214 632v-247h-96v247h-98v86h291v-86h-97zM626 594l-70 -209h-54l-69 209v-209h-84v333h122l60 -195l60 195h120v-333h-85v209z" />
    <glyph glyph-name="uni2153" unicode="&#x2153;" horiz-adv-x="899" 
d="M869 113q0 -52 -40.5 -85.5t-105.5 -33.5q-66 0 -108 33t-50 91l100 15q2 -25 18 -40t39 -15t37.5 12.5t14.5 33.5q0 19 -15.5 31t-40.5 12h-38v71h35q24 0 38.5 11t14.5 30t-12.5 30t-33.5 11t-36 -14t-19 -37l-94 8q7 57 49 92t104 35t100.5 -32.5t38.5 -84.5
q0 -29 -18 -52.5t-44 -30.5q31 -11 48.5 -34.5t17.5 -56.5zM171 0l504 718h101l-503 -718h-102zM154 406v182h-95v65l35 2q40 2 59 16.5t26 47.5h75v-313h77v-86h-267v86h90z" />
    <glyph glyph-name="uni2154" unicode="&#x2154;" horiz-adv-x="909" 
d="M879 113q0 -52 -40.5 -85.5t-105.5 -33.5q-66 0 -108 33t-50 91l100 15q2 -25 18 -40t39 -15t37.5 12.5t14.5 33.5q0 19 -15.5 31t-40.5 12h-38v71h35q24 0 38.5 11t14.5 30t-12.5 30t-33.5 11t-36 -14t-19 -37l-94 8q7 57 49 92t104 35t100.5 -32.5t38.5 -84.5
q0 -29 -18 -52.5t-44 -30.5q31 -11 48.5 -34.5t17.5 -56.5zM181 0l504 718h101l-503 -718h-102zM42 320v78l137 108q29 22 41.5 41t12.5 40q0 22 -13.5 35.5t-35.5 13.5t-35.5 -14.5t-13.5 -37.5q0 -11 2 -22t5 -17h-94q-4 11 -6 22t-2 23q0 58 42.5 96t104.5 38
q65 0 104 -35.5t39 -93.5q0 -39 -22 -74t-69 -70l-60 -45h158v-86h-295z" />
    <glyph glyph-name="uni215B" unicode="&#x215b;" horiz-adv-x="903" 
d="M583 288q0 52 38.5 84t97.5 32t98 -32t39 -84q0 -27 -13.5 -48t-38.5 -34q32 -12 51.5 -37t19.5 -57q0 -52 -44 -85t-112 -33t-112 33t-44 85q0 31 19.5 56.5t51.5 37.5q-25 13 -38 34t-13 48zM668 286q0 -21 14 -33.5t37 -12.5t37 12.5t14 33.5q0 20 -14 32.5t-37 12.5
q-22 0 -36.5 -12.5t-14.5 -32.5zM779 120q0 23 -17 37.5t-43 14.5t-43 -14.5t-17 -37.5t17 -37t43 -14t43 14t17 37zM171 0l504 718h101l-503 -718h-102zM154 406v182h-95v65l35 2q40 2 59 16.5t26 47.5h75v-313h77v-86h-267v86h90z" />
    <glyph glyph-name="uni215C" unicode="&#x215c;" horiz-adv-x="885" 
d="M575 288q0 52 38.5 84t97.5 32t98 -32t39 -84q0 -27 -13.5 -48t-38.5 -34q32 -12 51.5 -37t19.5 -57q0 -52 -44 -85t-112 -33t-112 33t-44 85q0 31 19.5 56.5t51.5 37.5q-25 13 -38 34t-13 48zM660 286q0 -21 14 -33.5t37 -12.5t37 12.5t14 33.5q0 20 -14 32.5t-37 12.5
q-22 0 -36.5 -12.5t-14.5 -32.5zM771 120q0 23 -17 37.5t-43 14.5t-43 -14.5t-17 -37.5t17 -37t43 -14t43 14t17 37zM161 0l504 718h101l-503 -718h-102zM339 433q0 -52 -40.5 -85.5t-105.5 -33.5q-66 0 -108 33t-50 91l100 15q2 -25 18 -40t39 -15t37.5 12.5t14.5 33.5
q0 19 -15.5 31t-40.5 12h-38v71h35q24 0 38.5 11t14.5 30t-12.5 30t-33.5 11t-36 -14t-19 -37l-94 8q7 57 49 92t104 35t100.5 -32.5t38.5 -84.5q0 -29 -18 -52.5t-44 -30.5q31 -11 48.5 -34.5t17.5 -56.5z" />
    <glyph glyph-name="uni215D" unicode="&#x215d;" horiz-adv-x="885" 
d="M565 288q0 52 38.5 84t97.5 32t98 -32t39 -84q0 -27 -13.5 -48t-38.5 -34q32 -12 51.5 -37t19.5 -57q0 -52 -44 -85t-112 -33t-112 33t-44 85q0 31 19.5 56.5t51.5 37.5q-25 13 -38 34t-13 48zM650 286q0 -21 14 -33.5t37 -12.5t37 12.5t14 33.5q0 20 -14 32.5t-37 12.5
q-22 0 -36.5 -12.5t-14.5 -32.5zM761 120q0 23 -17 37.5t-43 14.5t-43 -14.5t-17 -37.5t17 -37t43 -14t43 14t17 37zM151 0l504 718h101l-503 -718h-102zM192 510q-14 0 -25 -6t-19 -18l-92 11l18 221h236v-83h-163l-7 -82q18 14 37.5 21.5t40.5 7.5q55 0 88.5 -35.5
t33.5 -92.5q0 -61 -43 -100.5t-108 -39.5q-64 0 -106 32.5t-49 89.5l99 16q2 -25 17 -39.5t39 -14.5q23 0 39 16t16 39q0 25 -14.5 41t-37.5 16z" />
    <glyph glyph-name="uni215E" unicode="&#x215e;" horiz-adv-x="845" 
d="M525 288q0 52 38.5 84t97.5 32t98 -32t39 -84q0 -27 -13.5 -48t-38.5 -34q32 -12 51.5 -37t19.5 -57q0 -52 -44 -85t-112 -33t-112 33t-44 85q0 31 19.5 56.5t51.5 37.5q-25 13 -38 34t-13 48zM610 286q0 -21 14 -33.5t37 -12.5t37 12.5t14 33.5q0 20 -14 32.5t-37 12.5
q-22 0 -36.5 -12.5t-14.5 -32.5zM721 120q0 23 -17 37.5t-43 14.5t-43 -14.5t-17 -37.5t17 -37t43 -14t43 14t17 37zM111 0l504 718h101l-503 -718h-102zM243 636h-119v-54h-82v136h300v-83q-57 -60 -81.5 -128.5t-24.5 -186.5h-107q0 97 28 175t86 141z" />
    <glyph glyph-name="arrowleft" unicode="&#x2190;" horiz-adv-x="749" 
d="M222 302l160 -174l-85 -83l-287 317l287 317l85 -83l-160 -174h517v-120h-517z" />
    <glyph glyph-name="arrowup" unicode="&#x2191;" horiz-adv-x="654" 
d="M327 729l317 -287l-83 -85l-174 160v-517h-120v517l-174 -160l-83 85z" />
    <glyph glyph-name="arrowright" unicode="&#x2192;" horiz-adv-x="749" 
d="M452 45l-85 83l160 174h-517v120h517l-160 174l85 83l287 -317z" />
    <glyph glyph-name="arrowdown" unicode="&#x2193;" horiz-adv-x="654" 
d="M561 361l83 -85l-317 -287l-317 287l83 85l174 -160v517h120v-517z" />
    <glyph glyph-name="arrowleftright" unicode="&#x2194;" horiz-adv-x="1029" 
d="M732 679l287 -317l-287 -317l-86 86l158 170h-579l158 -170l-86 -86l-287 317l287 317l86 -86l-158 -170h579l-158 170z" />
    <glyph glyph-name="arrowupdown" unicode="&#x2195;" horiz-adv-x="654" 
d="M561 181l83 -85l-317 -287l-317 287l83 85l174 -160v517l-174 -161l-83 85l317 287l317 -287l-83 -85l-174 161v-517z" />
    <glyph glyph-name="arrowNW" unicode="&#x2196;" horiz-adv-x="796" 
d="M185 515v-249h-117v452h452v-117h-249l515 -515l-86 -86z" />
    <glyph glyph-name="arrowNE" unicode="&#x2197;" horiz-adv-x="796" 
d="M728 266h-117v249l-515 -515l-86 86l515 515h-249v117h452v-452z" />
    <glyph glyph-name="arrowSE" unicode="&#x2198;" horiz-adv-x="796" 
d="M611 203v249h117v-452h-452v117h249l-515 515l86 86z" />
    <glyph glyph-name="arrowSW" unicode="&#x2199;" horiz-adv-x="796" 
d="M68 452h117v-249l515 515l86 -86l-515 -515h249v-117h-452v452z" />
    <glyph glyph-name="minus" unicode="&#x2212;" 
d="M562 290h-516v105h516v-105z" />
    <glyph glyph-name="commaaccent" unicode="&#xf6c3;" horiz-adv-x="600" 
d="M287 -117h-48v80h120v-63q0 -47 -32.5 -74t-87.5 -27v52q22 0 33.5 7.5t14.5 24.5z" />
    <glyph glyph-name="a.1" horiz-adv-x="526" 
d="M467 386v-260q0 -37 2 -69t6 -57h-117q-1 10 -2 20.5t-1 21.5q-26 -25 -64 -38t-85 -13q-77 0 -127 43.5t-50 111.5q0 65 43 105.5t133 59.5l145 30v26q0 33 -21.5 48.5t-65.5 15.5q-45 0 -68 -17.5t-25 -53.5h-117q3 84 60 129.5t157 45.5q93 0 145 -39t52 -110zM224 87
q54 0 90 27t36 71v64l-113 -24q-49 -11 -69 -28t-20 -46q0 -30 20.5 -47t55.5 -17z" />
    <glyph glyph-name="aogonek.1" horiz-adv-x="526" 
d="M407 -186q-42 0 -70.5 25.5t-28.5 63.5q0 27 12 51.5t38 47.5q-1 9 -2 19t-1 21q-26 -25 -64 -38t-85 -13q-77 0 -127 43.5t-50 111.5q0 65 43 105.5t133 59.5l145 30v26q0 33 -21.5 48.5t-65.5 15.5q-45 0 -68 -17.5t-25 -53.5h-117q3 84 60 129.5t157 45.5
q93 0 145 -39t52 -110v-260q0 -37 2 -69t6 -57h-19q-34 -26 -48.5 -43.5t-14.5 -33.5q0 -14 10.5 -23t26.5 -9q10 0 18.5 1.5t19.5 4.5v-75q-17 -5 -30 -6.5t-31 -1.5zM224 87q54 0 90 27t36 71v64l-113 -24q-49 -11 -69 -28t-20 -46q0 -30 20.5 -47t55.5 -17z" />
    <glyph glyph-name="aacute.1" horiz-adv-x="526" 
d="M314 577h-95l60 141h148zM467 386v-260q0 -37 2 -69t6 -57h-117q-1 10 -2 20.5t-1 21.5q-26 -25 -64 -38t-85 -13q-77 0 -127 43.5t-50 111.5q0 65 43 105.5t133 59.5l145 30v26q0 33 -21.5 48.5t-65.5 15.5q-45 0 -68 -17.5t-25 -53.5h-117q3 84 60 129.5t157 45.5
q93 0 145 -39t52 -110zM224 87q54 0 90 27t36 71v64l-113 -24q-49 -11 -69 -28t-20 -46q0 -30 20.5 -47t55.5 -17z" />
    <glyph glyph-name="adieresis.1" horiz-adv-x="526" 
d="M232 595h-128v123h128v-123zM416 595h-128v123h128v-123zM467 386v-260q0 -37 2 -69t6 -57h-117q-1 10 -2 20.5t-1 21.5q-26 -25 -64 -38t-85 -13q-77 0 -127 43.5t-50 111.5q0 65 43 105.5t133 59.5l145 30v26q0 33 -21.5 48.5t-65.5 15.5q-45 0 -68 -17.5t-25 -53.5
h-117q3 84 60 129.5t157 45.5q93 0 145 -39t52 -110zM224 87q54 0 90 27t36 71v64l-113 -24q-49 -11 -69 -28t-20 -46q0 -30 20.5 -47t55.5 -17z" />
    <glyph glyph-name="acircumflex.1" horiz-adv-x="526" 
d="M202 718h126l99 -141h-92l-70 60l-70 -60h-92zM467 386v-260q0 -37 2 -69t6 -57h-117q-1 10 -2 20.5t-1 21.5q-26 -25 -64 -38t-85 -13q-77 0 -127 43.5t-50 111.5q0 65 43 105.5t133 59.5l145 30v26q0 33 -21.5 48.5t-65.5 15.5q-45 0 -68 -17.5t-25 -53.5h-117
q3 84 60 129.5t157 45.5q93 0 145 -39t52 -110zM224 87q54 0 90 27t36 71v64l-113 -24q-49 -11 -69 -28t-20 -46q0 -30 20.5 -47t55.5 -17z" />
    <glyph glyph-name="aring.1" horiz-adv-x="526" 
d="M260 561q-47 0 -79 31t-32 76t32 75.5t79 30.5t79 -30.5t32 -75.5t-32 -76t-79 -31zM260 716q-20 0 -33.5 -14t-13.5 -34t13.5 -34t33.5 -14t33.5 14t13.5 34t-13.5 34t-33.5 14zM467 386v-260q0 -37 2 -69t6 -57h-117q-1 10 -2 20.5t-1 21.5q-26 -25 -64 -38t-85 -13
q-77 0 -127 43.5t-50 111.5q0 65 43 105.5t133 59.5l145 30v26q0 33 -21.5 48.5t-65.5 15.5q-45 0 -68 -17.5t-25 -53.5h-117q3 84 60 129.5t157 45.5q93 0 145 -39t52 -110zM224 87q54 0 90 27t36 71v64l-113 -24q-49 -11 -69 -28t-20 -46q0 -30 20.5 -47t55.5 -17z" />
    <glyph glyph-name="abreve.1" horiz-adv-x="526" 
d="M266 657q27 0 44 16.5t17 44.5h82q0 -68 -38.5 -106.5t-104.5 -38.5t-104.5 38.5t-38.5 106.5h82q0 -28 17 -44.5t44 -16.5zM467 386v-260q0 -37 2 -69t6 -57h-117q-1 10 -2 20.5t-1 21.5q-26 -25 -64 -38t-85 -13q-77 0 -127 43.5t-50 111.5q0 65 43 105.5t133 59.5
l145 30v26q0 33 -21.5 48.5t-65.5 15.5q-45 0 -68 -17.5t-25 -53.5h-117q3 84 60 129.5t157 45.5q93 0 145 -39t52 -110zM224 87q54 0 90 27t36 71v64l-113 -24q-49 -11 -69 -28t-20 -46q0 -30 20.5 -47t55.5 -17z" />
    <glyph glyph-name="agrave.1" horiz-adv-x="526" 
d="M258 718l60 -141h-95l-113 141h148zM467 386v-260q0 -37 2 -69t6 -57h-117q-1 10 -2 20.5t-1 21.5q-26 -25 -64 -38t-85 -13q-77 0 -127 43.5t-50 111.5q0 65 43 105.5t133 59.5l145 30v26q0 33 -21.5 48.5t-65.5 15.5q-45 0 -68 -17.5t-25 -53.5h-117q3 84 60 129.5
t157 45.5q93 0 145 -39t52 -110zM224 87q54 0 90 27t36 71v64l-113 -24q-49 -11 -69 -28t-20 -46q0 -30 20.5 -47t55.5 -17z" />
    <glyph glyph-name="atilde.1" horiz-adv-x="526" 
d="M199 725q16 0 31.5 -6.5t40.5 -26.5q17 -14 25.5 -18t15.5 -4q15 0 24 12.5t14 42.5h76q-4 -69 -31.5 -108.5t-72.5 -39.5q-16 0 -31.5 6.5t-40.5 25.5q-17 14 -25.5 18t-15.5 4q-15 0 -24 -12t-14 -42h-76q4 69 31.5 108.5t72.5 39.5zM467 386v-260q0 -37 2 -69t6 -57
h-117q-1 10 -2 20.5t-1 21.5q-26 -25 -64 -38t-85 -13q-77 0 -127 43.5t-50 111.5q0 65 43 105.5t133 59.5l145 30v26q0 33 -21.5 48.5t-65.5 15.5q-45 0 -68 -17.5t-25 -53.5h-117q3 84 60 129.5t157 45.5q93 0 145 -39t52 -110zM224 87q54 0 90 27t36 71v64l-113 -24
q-49 -11 -69 -28t-20 -46q0 -30 20.5 -47t55.5 -17z" />
    <glyph glyph-name="amacron.1" horiz-adv-x="526" 
d="M408 691v-95h-292v95h292zM467 386v-260q0 -37 2 -69t6 -57h-117q-1 10 -2 20.5t-1 21.5q-26 -25 -64 -38t-85 -13q-77 0 -127 43.5t-50 111.5q0 65 43 105.5t133 59.5l145 30v26q0 33 -21.5 48.5t-65.5 15.5q-45 0 -68 -17.5t-25 -53.5h-117q3 84 60 129.5t157 45.5
q93 0 145 -39t52 -110zM224 87q54 0 90 27t36 71v64l-113 -24q-49 -11 -69 -28t-20 -46q0 -30 20.5 -47t55.5 -17z" />
    <glyph glyph-name="idotaccent" horiz-adv-x="246" 
d="M185 595h-124v123h124v-123zM63 525h120v-525h-120v525z" />
    <glyph glyph-name="ordfeminine.1" horiz-adv-x="404" 
d="M350 614v-179q0 -31 1.5 -53t4.5 -39h-96q-1 10 -1.5 16.5t-0.5 12.5q-19 -18 -46 -27t-60 -9q-56 0 -92 31t-36 80t33 78t102 42l94 18v16q0 21 -14 31.5t-42 10.5q-29 0 -43.5 -11t-16.5 -35h-97q3 61 45.5 94.5t116.5 33.5q70 0 109 -29t39 -82zM171 413
q35 0 58.5 17.5t23.5 46.5v38l-73 -14q-32 -7 -45 -18t-13 -30t13 -29.5t36 -10.5zM352 192h-326v90h326v-90z" />
    <glyph glyph-name="a.ord" horiz-adv-x="398" 
d="M261 378q-18 -21 -46.5 -31.5t-64.5 -10.5q-56 0 -92 31t-36 80q0 48 33 77.5t102 42.5l94 17v7q0 26 -14.5 39t-43.5 13q-27 0 -43 -12t-22 -38l-95 17q14 52 58 83.5t106 31.5q73 0 112 -33.5t39 -96.5v-153q0 -16 7 -21t24 -3v-75q-47 -7 -76.5 2t-41.5 33zM169 412
q35 0 58.5 17.5t23.5 46.5v39l-74 -15q-31 -6 -44 -17t-13 -30t13 -30t36 -11z" />
    <glyph glyph-name="a.1.ord" horiz-adv-x="404" 
d="M350 614v-179q0 -31 1.5 -53t4.5 -39h-96q-1 10 -1.5 16.5t-0.5 12.5q-19 -18 -46 -27t-60 -9q-56 0 -92 31t-36 80t33 78t102 42l94 18v16q0 21 -14 31.5t-42 10.5q-29 0 -43.5 -11t-16.5 -35h-97q3 61 45.5 94.5t116.5 33.5q70 0 109 -29t39 -82zM171 413
q35 0 58.5 17.5t23.5 46.5v38l-73 -14q-32 -7 -45 -18t-13 -30t13 -29.5t36 -10.5z" />
    <glyph glyph-name="b.ord" horiz-adv-x="455" 
d="M428 530q0 -86 -45 -140.5t-118 -54.5q-33 0 -60 12t-45 34v-38h-100v512h100v-176q17 22 44.5 34t60.5 12q73 0 118 -54.5t45 -140.5zM242 639q-38 0 -61 -26.5t-23 -72.5v-21q0 -45 23 -71.5t61 -26.5q40 0 62.5 29.5t22.5 79.5q0 51 -22.5 80t-62.5 29z" />
    <glyph glyph-name="c.ord" horiz-adv-x="384" 
d="M215 642q-42 0 -66.5 -30t-24.5 -82t24.5 -81.5t66.5 -29.5q29 0 49 17.5t27 49.5l84 -38q-15 -51 -58.5 -82t-102.5 -31q-82 0 -134.5 54.5t-52.5 140.5t52.5 140.5t134.5 54.5q59 0 102 -30t58 -80l-83 -40q-7 31 -27.5 49t-48.5 18z" />
    <glyph glyph-name="d.ord" horiz-adv-x="455" 
d="M190 335q-73 0 -118 54.5t-45 140.5t45 140.5t118 54.5q33 0 60.5 -12t44.5 -34v176h100v-512h-100v38q-18 -22 -45 -34t-60 -12zM297 519v21q0 46 -23 72.5t-61 26.5q-40 0 -62.5 -29t-22.5 -80q0 -50 22.5 -79.5t62.5 -29.5q38 0 61 26.5t23 71.5z" />
    <glyph glyph-name="e.ord" horiz-adv-x="405" 
d="M213 335q-83 0 -134.5 54t-51.5 141q0 84 52 139.5t131 55.5q78 0 124.5 -51.5t46.5 -135.5v-29h-258q5 -43 29.5 -67.5t61.5 -24.5q30 0 51 14.5t29 40.5l85 -30q-20 -50 -64.5 -78.5t-101.5 -28.5zM209 645q-31 0 -52 -18t-30 -51h155q-1 31 -20.5 50t-52.5 19z" />
    <glyph glyph-name="f.ord" horiz-adv-x="226" 
d="M186 862h22.5t16.5 -1v-82q-5 0 -12.5 0.5t-13.5 0.5q-26 0 -37 -11t-11 -36v-15h73v-83h-73v-292h-100v292h-50v83h50v21q0 61 34 92t101 31z" />
    <glyph glyph-name="g.ord" horiz-adv-x="456" 
d="M395 718v-334q0 -81 -51.5 -128.5t-138.5 -47.5q-69 0 -114 28.5t-60 82.5l93 27q9 -29 30.5 -44.5t52.5 -15.5q43 0 65.5 22.5t22.5 65.5v25q-16 -20 -43.5 -32.5t-59.5 -12.5q-73 0 -118 52t-45 133q0 82 45 134t118 52q32 0 60 -12.5t43 -33.5v39h100zM296 534v10
q0 45 -22 71t-59 26q-40 0 -62.5 -27t-22.5 -74q0 -48 22.5 -75t62.5 -27q37 0 59 26t22 70z" />
    <glyph glyph-name="h.ord" horiz-adv-x="445" 
d="M160 343h-100v512h100v-176q19 22 45.5 34t57.5 12q58 0 92 -36.5t34 -98.5v-247h-100v219q0 35 -15 53.5t-44 18.5q-30 0 -50 -20.5t-20 -53.5v-217z" />
    <glyph glyph-name="i.ord" horiz-adv-x="218" 
d="M160 762h-102v93h102v-93zM59 718h100v-375h-100v375z" />
    <glyph glyph-name="j.ord" horiz-adv-x="187" 
d="M129 762h-102v93h102v-93zM-16 294q24 0 34 9.5t10 30.5v384h100v-395q0 -53 -32 -81.5t-91 -28.5q-9 0 -17.5 0.5t-27.5 1.5v80q4 -1 8.5 -1h15.5z" />
    <glyph glyph-name="k.ord" horiz-adv-x="417" 
d="M60 855h100v-283l132 146h119l-138 -143l149 -232h-114l-105 159l-43 -45v-114h-100v512z" />
    <glyph glyph-name="l.ord" horiz-adv-x="220" 
d="M60 855h100v-512h-100v512z" />
    <glyph glyph-name="m.ord" horiz-adv-x="663" 
d="M227 634q-29 0 -48 -20.5t-19 -53.5v-217h-100v375h100v-39q18 22 44 34t58 12q33 0 59.5 -13.5t41.5 -37.5q25 26 54 38.5t63 12.5q57 0 92 -37t35 -98v-247h-100v219q0 35 -14.5 53.5t-42.5 18.5t-47.5 -20.5t-19.5 -53.5v-217h-99v219q0 35 -14.5 53.5t-42.5 18.5z
" />
    <glyph glyph-name="n.ord" horiz-adv-x="445" 
d="M160 343h-100v375h100v-39q19 22 45.5 34t57.5 12q58 0 92 -36.5t34 -98.5v-247h-100v219q0 35 -15 53.5t-44 18.5q-30 0 -50 -20.5t-20 -53.5v-217z" />
    <glyph glyph-name="o.ord" horiz-adv-x="422" 
d="M211 725q82 0 133 -54t51 -141t-51.5 -141t-132.5 -54t-132.5 54t-51.5 141t51 141t133 54zM211 643q-39 0 -61.5 -30t-22.5 -83t22.5 -82.5t61.5 -29.5q40 0 62.5 30t22.5 82q0 53 -23 83t-62 30z" />
    <glyph glyph-name="p.ord" horiz-adv-x="455" 
d="M428 530q0 -86 -45 -140.5t-118 -54.5q-33 0 -60 12t-45 34v-165h-100v502h100v-39q17 22 44.5 34t60.5 12q73 0 118 -54.5t45 -140.5zM242 639q-38 0 -61 -26.5t-23 -72.5v-21q0 -45 23 -71.5t61 -26.5q40 0 62.5 29.5t22.5 79.5q0 51 -22.5 80t-62.5 29z" />
    <glyph glyph-name="q.ord" horiz-adv-x="455" 
d="M190 335q-73 0 -118 54.5t-45 140.5t45 140.5t118 54.5q33 0 60.5 -12t44.5 -34v39h100v-502h-100v165q-18 -22 -45 -34t-60 -12zM297 519v21q0 46 -23 72.5t-61 26.5q-40 0 -62.5 -29t-22.5 -80q0 -50 22.5 -79.5t62.5 -29.5q38 0 61 26.5t23 71.5z" />
    <glyph glyph-name="r.ord" horiz-adv-x="301" 
d="M260 720q5 0 13 -0.5t11 -0.5v-98q-6 1 -12 1.5t-20 0.5q-41 0 -66.5 -24t-25.5 -65v-191h-100v375h100v-53q13 26 40 40.5t60 14.5z" />
    <glyph glyph-name="s.ord" horiz-adv-x="367" 
d="M178 335q-53 0 -100.5 19.5t-72.5 51.5l60 63q20 -26 52 -41.5t64 -15.5q29 0 45.5 10.5t16.5 29.5q0 12 -7.5 19.5t-27.5 12.5q-4 1 -17 4t-35 7q-37 7 -55.5 13.5t-32.5 15.5q-20 13 -30 32.5t-10 46.5q0 54 43 88t110 34q48 0 90 -17.5t65 -47.5l-57 -60
q-19 24 -45 36.5t-56 12.5q-24 0 -38 -10t-14 -26q0 -10 6.5 -16.5t22.5 -11.5q5 -1 12.5 -3t30.5 -6q44 -10 63 -16t33 -14q24 -14 35.5 -35t11.5 -49q0 -57 -46 -92t-117 -35z" />
    <glyph glyph-name="t.ord" horiz-adv-x="252" 
d="M164 339q-61 0 -88 24t-27 77v195h-51v83h51v107h98v-107h76v-83h-76v-174q0 -20 9.5 -28t37.5 -8q14 0 20.5 0.5t13.5 1.5v-83q-15 -3 -31 -4t-33 -1z" />
    <glyph glyph-name="u.ord" horiz-adv-x="444" 
d="M285 718h99v-375h-99v39q-19 -23 -45 -35t-57 -12q-58 0 -92.5 36.5t-34.5 98.5v248h99v-226q0 -33 15.5 -50.5t45.5 -17.5q29 0 49 20.5t20 53.5v220z" />
    <glyph glyph-name="v.ord" horiz-adv-x="369" 
d="M370 718l-136 -375h-99l-136 375h103l84 -254l84 254h100z" />
    <glyph glyph-name="w.ord" horiz-adv-x="524" 
d="M163 484l62 234h78l62 -234l62 234h98l-113 -375h-87l-63 227l-64 -227h-86l-113 375h101z" />
    <glyph glyph-name="x.ord" horiz-adv-x="372" 
d="M375 343h-111l-80 120l-80 -120h-107l131 194l-122 181h111l70 -108l72 108h107l-122 -181z" />
    <glyph glyph-name="y.ord" horiz-adv-x="369" 
d="M370 718l-148 -397q-23 -60 -56 -84.5t-86 -24.5q-6 0 -16 0.5t-23 1.5v81q11 -1 18.5 -1.5t10.5 -0.5q21 0 32.5 8t19.5 27l12 30l-135 360h103l85 -247l83 247h100z" />
    <glyph glyph-name="z.ord" horiz-adv-x="378" 
d="M159 426h186v-83h-313v73l190 219h-187v83h308v-74z" />
    <glyph glyph-name="caron.Slovak" horiz-adv-x="600" 
d="M303 555h-82l17 163h136z" />
    <glyph glyph-name="commaturn" horiz-adv-x="600" 
d="M312 657h48v-80h-120v63q0 47 32.5 74t87.5 27v-52q-22 0 -33.5 -7.5t-14.5 -24.5z" />
    <glyph glyph-name="grave.cap" horiz-adv-x="600" 
d="M338 907l89 -147h-95l-159 147h165z" />
    <glyph glyph-name="acute.cap" horiz-adv-x="600" 
d="M253 760h-95l89 147h165z" />
    <glyph glyph-name="circumflex.cap" horiz-adv-x="600" 
d="M230 907h140l116 -147h-95l-91 71l-91 -71h-95z" />
    <glyph glyph-name="caron.cap" horiz-adv-x="600" 
d="M486 907l-116 -147h-140l-116 147h95l91 -71l91 71h95z" />
    <glyph glyph-name="tilde.cap" horiz-adv-x="600" 
d="M229 916q18 0 36 -6.5t47 -27.5q21 -14 31 -18.5t19 -4.5q17 0 27.5 13t16.5 44h81q-5 -72 -36 -113.5t-81 -41.5q-18 0 -36 6.5t-46 27.5q-21 14 -31 18.5t-19 4.5q-18 0 -28.5 -13.5t-15.5 -43.5h-81q4 72 35 113.5t81 41.5z" />
    <glyph glyph-name="macron.cap" horiz-adv-x="600" 
d="M462 869v-99h-324v99h324z" />
    <glyph glyph-name="breve.cap" horiz-adv-x="600" 
d="M300 835q33 0 54 20t21 52h90q0 -68 -44.5 -109t-120.5 -41t-120.5 41t-44.5 109h90q0 -32 21 -52t54 -20z" />
    <glyph glyph-name="dotaccent.cap" horiz-adv-x="600" 
d="M364 760h-128v123h128v-123z" />
    <glyph glyph-name="dieresis.cap" horiz-adv-x="600" 
d="M267 760h-128v123h128v-123zM461 760h-128v123h128v-123z" />
    <glyph glyph-name="ring.cap" horiz-adv-x="600" 
d="M300 760q-55 0 -92 36.5t-37 88.5t37 87.5t92 35.5q56 0 92.5 -35.5t36.5 -87.5q0 -53 -37 -89t-92 -36zM300 938q-23 0 -37.5 -15t-14.5 -38q0 -24 14.5 -38.5t37.5 -14.5t37.5 14.5t14.5 38.5q0 23 -14.5 38t-37.5 15z" />
    <glyph glyph-name="hungarumlaut.cap" horiz-adv-x="600" 
d="M392 760h-95l84 147h141zM193 760h-95l84 147h141z" />
    <glyph glyph-name="guilsinglleft.cap" horiz-adv-x="201" 
d="M181 137l-161 131v120l161 131v-120l-76 -71l76 -71v-120z" />
    <glyph glyph-name="guilsinglright.cap" horiz-adv-x="201" 
d="M20.0107 137l160.99 131v120l-160.99 131v-120l75.9961 -71l-75.9961 -71v-120z" />
    <glyph glyph-name="guillemotleft.cap" horiz-adv-x="411" 
d="M181 137l-161 131v120l161 131v-120l-76 -71l76 -71v-120zM391 137l-161 131v120l161 131v-120l-76 -71l76 -71v-120z" />
    <glyph glyph-name="guillemotright.cap" horiz-adv-x="411" 
d="M391 388v-120l-161 -131v120l76 71l-76 71v120zM181 388v-120l-161 -131v120l76 71l-76 71v120z" />
    <glyph glyph-name="slash.cap" horiz-adv-x="432" 
d="M132 -60h-122l290 836h122z" />
    <glyph glyph-name="backslash.cap" horiz-adv-x="432" 
d="M300.008 -60h121.993l-289.982 836h-121.993z" />
    <glyph glyph-name="bar.cap" horiz-adv-x="258" 
d="M188 -60h-118v836h118v-836z" />
    <glyph glyph-name="periodcentered.cap" horiz-adv-x="225" 
d="M185 285h-145v145h145v-145z" />
    <glyph glyph-name="bullet.cap" horiz-adv-x="426" 
d="M40 358q0 75 50 124.5t124 49.5q73 0 122.5 -49.5t49.5 -124.5q0 -74 -49.5 -123t-122.5 -49q-74 0 -124 49t-50 123z" />
    <glyph glyph-name="hyphen.cap" horiz-adv-x="360" 
d="M320 306h-280v107h280v-107z" />
    <glyph glyph-name="endash.cap" horiz-adv-x="542" 
d="M502 311h-462v97h462v-97z" />
    <glyph glyph-name="emdash.cap" horiz-adv-x="976" 
d="M936 311h-896v97h896v-97z" />
    <glyph glyph-name="parenleft.cap" horiz-adv-x="319" 
d="M157 358q0 -112 43 -222t119 -196h-125q-84 90 -129 197t-45 221t45 221t129 197h125q-77 -88 -119.5 -197.5t-42.5 -220.5z" />
    <glyph glyph-name="parenright.cap" horiz-adv-x="319" 
d="M162.01 358q0 -112 -42.998 -222q-42.9971 -110 -118.992 -196h124.992q83.9951 90 128.992 197t44.9971 221t-44.9971 221t-128.992 197h-124.992q76.9951 -88 119.492 -197.5q42.498 -109.5 42.498 -220.5z" />
    <glyph glyph-name="bracketleft.cap" horiz-adv-x="301" 
d="M291 678h-130v-641h130v-97h-251v836h251v-98z" />
    <glyph glyph-name="bracketright.cap" horiz-adv-x="301" 
d="M10.0176 678h129.992v-641h-129.992v-97h250.984v836h-250.984v-98z" />
    <glyph glyph-name="braceleft.cap" horiz-adv-x="361" 
d="M67 309h-47v98h47q30 0 45 21t15 64v112q0 82 49.5 127t138.5 45h36v-98h-16q-51 0 -74 -23.5t-23 -76.5v-86q0 -52 -18.5 -85t-58.5 -49q40 -16 58.5 -49t18.5 -85v-86q0 -53 23 -76.5t74 -23.5h16v-98h-36q-89 0 -138.5 45t-49.5 127v112q0 43 -15 64t-45 21z" />
    <glyph glyph-name="braceright.cap" horiz-adv-x="361" 
d="M294.004 309h46.9971v98h-46.9971q-29.998 0 -44.9971 21t-14.999 64v112q0 82 -49.4971 127t-138.491 45h-35.998v-98h15.999q50.9971 0 73.9951 -23.5q22.999 -23.5 22.999 -76.5v-86q0 -52 18.499 -85t58.4961 -49q-39.9971 -16 -58.4961 -49t-18.499 -85v-86
q0 -53 -22.999 -76.5q-22.998 -23.5 -73.9951 -23.5h-15.999v-98h35.998q88.9941 0 138.491 45t49.4971 127v112q0 43 14.999 64t44.9971 21z" />
    <glyph glyph-name="at.cap" horiz-adv-x="889" 
d="M657 238q44 0 73 48t29 125q0 121 -78 191t-210 70q-70 0 -132 -26t-109 -74q-46 -47 -71 -110t-25 -133q0 -135 86 -214t232 -79q70 0 128 17t110 52l49 -78q-56 -42 -128 -63.5t-157 -21.5q-89 0 -166 25.5t-134 74.5q-61 52 -92.5 125.5t-31.5 161.5q0 89 34 169.5
t97 141.5q62 60 143.5 92t171.5 32q78 0 147 -23.5t121 -68.5q56 -48 85.5 -113.5t29.5 -141.5q0 -54 -13 -100t-39 -82q-29 -41 -71.5 -63.5t-90.5 -22.5q-45 0 -77 14.5t-49 43.5q-19 -27 -52.5 -42.5t-72.5 -15.5q-71 0 -114 47t-43 126q0 45 14 87t39 77q29 38 67 59
t80 21q38 0 67.5 -15.5t43.5 -41.5l10 48h109l-47 -260q-5 -30 4 -44.5t33 -14.5zM422 244q31 0 54 25t33 71q6 29 8 43t2 24q0 28 -16.5 46t-43.5 18q-45 0 -73.5 -41.5t-28.5 -104.5q0 -39 17 -60t48 -21z" />
    <glyph glyph-name="zero.dnom" horiz-adv-x="380" 
d="M189 -6q-72 0 -113 55.5t-41 149.5t41 149.5t113 55.5t113.5 -55.5t41.5 -149.5t-41.5 -149.5t-113.5 -55.5zM189 317q-26 0 -41 -31.5t-15 -86.5q0 -57 14.5 -87.5t41.5 -30.5q28 0 42.5 30.5t14.5 87.5q0 56 -15 87t-42 31z" />
    <glyph glyph-name="one.dnom" horiz-adv-x="380" 
d="M154 86v182h-95v65l35 2q40 2 59 16.5t26 47.5h75v-313h77v-86h-267v86h90z" />
    <glyph glyph-name="two.dnom" horiz-adv-x="380" 
d="M42 0v78l137 108q29 22 41.5 41t12.5 40q0 22 -13.5 35.5t-35.5 13.5t-35.5 -14.5t-13.5 -37.5q0 -11 2 -22t5 -17h-94q-4 11 -6 22t-2 23q0 58 42.5 96t104.5 38q65 0 104 -35.5t39 -93.5q0 -39 -22 -74t-69 -70l-60 -45h158v-86h-295z" />
    <glyph glyph-name="three.dnom" horiz-adv-x="380" 
d="M339 113q0 -52 -40.5 -85.5t-105.5 -33.5q-66 0 -108 33t-50 91l100 15q2 -25 18 -40t39 -15t37.5 12.5t14.5 33.5q0 19 -15.5 31t-40.5 12h-38v71h35q24 0 38.5 11t14.5 30t-12.5 30t-33.5 11t-36 -14t-19 -37l-94 8q7 57 49 92t104 35t100.5 -32.5t38.5 -84.5
q0 -29 -18 -52.5t-44 -30.5q31 -11 48.5 -34.5t17.5 -56.5z" />
    <glyph glyph-name="four.dnom" horiz-adv-x="380" 
d="M299 89v-89h-92v89h-179v72l147 237h124v-232h52v-77h-52zM205 319l-98 -153h98v153z" />
    <glyph glyph-name="five.dnom" horiz-adv-x="380" 
d="M192 190q-14 0 -25 -6t-19 -18l-92 11l18 221h236v-83h-163l-7 -82q18 14 37.5 21.5t40.5 7.5q55 0 88.5 -35.5t33.5 -92.5q0 -61 -43 -100.5t-108 -39.5q-64 0 -106 32.5t-49 89.5l99 16q2 -25 17 -39.5t39 -14.5q23 0 39 16t16 39q0 25 -14.5 41t-37.5 16z" />
    <glyph glyph-name="six.dnom" horiz-adv-x="380" 
d="M208 404q51 0 85.5 -23.5t51.5 -69.5l-80 -31q-7 21 -21.5 32.5t-36.5 11.5q-32 0 -52 -25t-20 -67v-11.5t1 -7.5q8 21 30 33.5t51 12.5q55 0 91 -35t36 -89q0 -62 -41 -101.5t-106 -39.5q-73 0 -116 54t-43 143q0 95 47 154t123 59zM196 71q24 0 40.5 17t16.5 43t-16 43
t-41 17t-41.5 -17t-16.5 -43t16.5 -43t41.5 -17z" />
    <glyph glyph-name="seven.dnom" horiz-adv-x="380" 
d="M243 316h-119v-54h-82v136h300v-83q-57 -60 -81.5 -128.5t-24.5 -186.5h-107q0 97 28 175t86 141z" />
    <glyph glyph-name="eight.dnom" horiz-adv-x="380" 
d="M53 288q0 52 38.5 84t97.5 32t98 -32t39 -84q0 -27 -13.5 -48t-38.5 -34q32 -12 51.5 -37t19.5 -57q0 -52 -44 -85t-112 -33t-112 33t-44 85q0 31 19.5 56.5t51.5 37.5q-25 13 -38 34t-13 48zM138 286q0 -21 14 -33.5t37 -12.5t37 12.5t14 33.5q0 20 -14 32.5t-37 12.5
q-22 0 -36.5 -12.5t-14.5 -32.5zM249 120q0 23 -17 37.5t-43 14.5t-43 -14.5t-17 -37.5t17 -37t43 -14t43 14t17 37z" />
    <glyph glyph-name="nine.dnom" horiz-adv-x="380" 
d="M171 -6q-51 0 -85.5 23.5t-51.5 69.5l80 31q7 -21 21.5 -32.5t36.5 -11.5q32 0 52 25t20 67v11t-1 8q-8 -21 -30 -33.5t-51 -12.5q-55 0 -91 35t-36 89q0 62 41 101.5t106 39.5q73 0 116 -54t43 -143q0 -95 -47 -154t-123 -59zM183 327q-24 0 -40.5 -17t-16.5 -43t16 -43
t41 -17t41.5 17t16.5 43t-16.5 43t-41.5 17z" />
    <glyph glyph-name="colon.mid" horiz-adv-x="213" 
d="M185 112h-145v145h145v-145zM185 462h-145v145h145v-145z" />
    <glyph glyph-name="commaturncmb" horiz-adv-x="0" 
d="M12 657h48v-80h-120v63q0 47 32.5 74t87.5 27v-52q-22 0 -33.5 -7.5t-14.5 -24.5z" />
    <glyph glyph-name="commaaccentcmb" horiz-adv-x="0" 
d="M-12 -117h-48v80h120v-63q0 -47 -32.5 -74t-87.5 -27v52q22 0 33.5 7.5t14.5 24.5z" />
    <glyph glyph-name="g.1" horiz-adv-x="562" 
d="M107 228q-28 25 -42 57.5t-14 69.5q0 80 59 130t152 50q49 0 90.5 -15t70.5 -43q18 34 57 50.5t82 9.5v-122q-31 13 -56.5 7t-35.5 -29q2 -8 3 -17.5t1 -20.5q0 -79 -59.5 -129.5t-152.5 -50.5q-18 0 -37 2.5t-38 7.5q-18 -3 -30 -12.5t-12 -22.5q0 -14 10 -22t28 -8h199
q79 0 120.5 -33.5t41.5 -97.5q0 -84 -76 -132t-206 -48q-117 0 -182 35.5t-65 100.5q0 31 16 56t45 42q-21 17 -30.5 37.5t-9.5 47.5q0 32 19 58.5t52 41.5zM262 269q43 0 68.5 23t25.5 63t-25.5 63t-68.5 23t-68 -23t-25 -63t25 -63t68 -23zM130 -31q0 -32 33.5 -47.5
t105.5 -15.5q76 0 119 18t43 50q0 23 -14.5 33.5t-47.5 10.5h-175q-30 0 -47 -13t-17 -36z" />
    <glyph glyph-name="ae.1" horiz-adv-x="854" 
d="M721 175l103 -39q-28 -69 -87.5 -108t-137.5 -39q-60 0 -110.5 23.5t-84.5 66.5q-31 -43 -81 -65.5t-115 -22.5q-77 0 -128 44t-51 113q0 82 65.5 130t175.5 48h80v41q0 33 -21.5 48.5t-65.5 15.5q-45 0 -68 -17.5t-25 -53.5h-117q3 84 60 129.5t157 45.5q52 0 93 -18
t65 -52q33 34 76 52t90 18q107 0 170 -71.5t63 -187.5v-40h-368q7 -67 44.5 -106t95.5 -39q45 0 77.5 22.5t44.5 61.5zM593 434q-48 0 -81.5 -28t-46.5 -80h241q-1 49 -31 78.5t-82 29.5zM228 88q52 0 87 30.5t35 77.5v40h-76q-67 0 -96.5 -18.5t-29.5 -59.5q0 -32 22 -51
t58 -19z" />
    <glyph glyph-name="aeacute.1" horiz-adv-x="854" 
d="M721 175l103 -39q-28 -69 -87.5 -108t-137.5 -39q-60 0 -110.5 23.5t-84.5 66.5q-31 -43 -81 -65.5t-115 -22.5q-77 0 -128 44t-51 113q0 82 65.5 130t175.5 48h80v41q0 33 -21.5 48.5t-65.5 15.5q-45 0 -68 -17.5t-25 -53.5h-117q3 84 60 129.5t157 45.5q52 0 93 -18
t65 -52q33 34 76 52t90 18q107 0 170 -71.5t63 -187.5v-40h-368q7 -67 44.5 -106t95.5 -39q45 0 77.5 22.5t44.5 61.5zM593 434q-48 0 -81.5 -28t-46.5 -80h241q-1 49 -31 78.5t-82 29.5zM228 88q52 0 87 30.5t35 77.5v40h-76q-67 0 -96.5 -18.5t-29.5 -59.5q0 -32 22 -51
t58 -19zM465 577h-95l60 141h148z" />
    <glyph glyph-name="gbreve.1" horiz-adv-x="562" 
d="M274 657q27 0 44 16.5t17 44.5h82q0 -68 -38.5 -106.5t-104.5 -38.5t-104.5 38.5t-38.5 106.5h82q0 -28 17 -44.5t44 -16.5zM107 228q-28 25 -42 57.5t-14 69.5q0 80 59 130t152 50q49 0 90.5 -15t70.5 -43q18 34 57 50.5t82 9.5v-122q-31 13 -56.5 7t-35.5 -29
q2 -8 3 -17.5t1 -20.5q0 -79 -59.5 -129.5t-152.5 -50.5q-18 0 -37 2.5t-38 7.5q-18 -3 -30 -12.5t-12 -22.5q0 -14 10 -22t28 -8h199q79 0 120.5 -33.5t41.5 -97.5q0 -84 -76 -132t-206 -48q-117 0 -182 35.5t-65 100.5q0 31 16 56t45 42q-21 17 -30.5 37.5t-9.5 47.5
q0 32 19 58.5t52 41.5zM262 269q43 0 68.5 23t25.5 63t-25.5 63t-68.5 23t-68 -23t-25 -63t25 -63t68 -23zM130 -31q0 -32 33.5 -47.5t105.5 -15.5q76 0 119 18t43 50q0 23 -14.5 33.5t-47.5 10.5h-175q-30 0 -47 -13t-17 -36z" />
    <glyph glyph-name="gcircumflex.1" horiz-adv-x="562" 
d="M210 718h126l99 -141h-92l-70 60l-70 -60h-92zM107 228q-28 25 -42 57.5t-14 69.5q0 80 59 130t152 50q49 0 90.5 -15t70.5 -43q18 34 57 50.5t82 9.5v-122q-31 13 -56.5 7t-35.5 -29q2 -8 3 -17.5t1 -20.5q0 -79 -59.5 -129.5t-152.5 -50.5q-18 0 -37 2.5t-38 7.5
q-18 -3 -30 -12.5t-12 -22.5q0 -14 10 -22t28 -8h199q79 0 120.5 -33.5t41.5 -97.5q0 -84 -76 -132t-206 -48q-117 0 -182 35.5t-65 100.5q0 31 16 56t45 42q-21 17 -30.5 37.5t-9.5 47.5q0 32 19 58.5t52 41.5zM262 269q43 0 68.5 23t25.5 63t-25.5 63t-68.5 23t-68 -23
t-25 -63t25 -63t68 -23zM130 -31q0 -32 33.5 -47.5t105.5 -15.5q76 0 119 18t43 50q0 23 -14.5 33.5t-47.5 10.5h-175q-30 0 -47 -13t-17 -36z" />
    <glyph glyph-name="gcommaaccent.1" horiz-adv-x="562" 
d="M284 657h48v-80h-120v63q0 47 32.5 74t87.5 27v-52q-22 0 -33.5 -7.5t-14.5 -24.5zM107 228q-28 25 -42 57.5t-14 69.5q0 80 59 130t152 50q49 0 90.5 -15t70.5 -43q18 34 57 50.5t82 9.5v-122q-31 13 -56.5 7t-35.5 -29q2 -8 3 -17.5t1 -20.5q0 -79 -59.5 -129.5
t-152.5 -50.5q-18 0 -37 2.5t-38 7.5q-18 -3 -30 -12.5t-12 -22.5q0 -14 10 -22t28 -8h199q79 0 120.5 -33.5t41.5 -97.5q0 -84 -76 -132t-206 -48q-117 0 -182 35.5t-65 100.5q0 31 16 56t45 42q-21 17 -30.5 37.5t-9.5 47.5q0 32 19 58.5t52 41.5zM262 269q43 0 68.5 23
t25.5 63t-25.5 63t-68.5 23t-68 -23t-25 -63t25 -63t68 -23zM130 -31q0 -32 33.5 -47.5t105.5 -15.5q76 0 119 18t43 50q0 23 -14.5 33.5t-47.5 10.5h-175q-30 0 -47 -13t-17 -36z" />
    <glyph glyph-name="gdotaccent.1" horiz-adv-x="562" 
d="M335 595h-124v123h124v-123zM107 228q-28 25 -42 57.5t-14 69.5q0 80 59 130t152 50q49 0 90.5 -15t70.5 -43q18 34 57 50.5t82 9.5v-122q-31 13 -56.5 7t-35.5 -29q2 -8 3 -17.5t1 -20.5q0 -79 -59.5 -129.5t-152.5 -50.5q-18 0 -37 2.5t-38 7.5q-18 -3 -30 -12.5
t-12 -22.5q0 -14 10 -22t28 -8h199q79 0 120.5 -33.5t41.5 -97.5q0 -84 -76 -132t-206 -48q-117 0 -182 35.5t-65 100.5q0 31 16 56t45 42q-21 17 -30.5 37.5t-9.5 47.5q0 32 19 58.5t52 41.5zM262 269q43 0 68.5 23t25.5 63t-25.5 63t-68.5 23t-68 -23t-25 -63t25 -63
t68 -23zM130 -31q0 -32 33.5 -47.5t105.5 -15.5q76 0 119 18t43 50q0 23 -14.5 33.5t-47.5 10.5h-175q-30 0 -47 -13t-17 -36z" />
    <glyph glyph-name="g.1.ord" horiz-adv-x="410" 
d="M79 506q-19 17 -29.5 40t-10.5 50q0 58 43 93.5t112 35.5q36 0 66 -10t51 -29q15 24 43 35t59 6v-94q-22 8 -39.5 4.5t-24.5 -17.5q1 -8 1.5 -13.5t0.5 -10.5q0 -57 -43.5 -93t-113.5 -36q-16 0 -29.5 2t-24.5 5q-11 -3 -17.5 -8.5t-6.5 -13.5q0 -9 7 -14t18 -5h146
q56 0 86 -25t30 -71q0 -61 -56 -95.5t-153 -34.5q-87 0 -134.5 25t-47.5 72q0 21 12 39.5t33 29.5q-15 12 -22.5 27.5t-7.5 33.5q0 22 14 41t38 31zM195 541q28 0 44 14.5t16 40.5t-16 40.5t-44 14.5t-44 -14.5t-16 -40.5t16 -40.5t44 -14.5zM107 320q0 -21 22 -30.5
t71 -9.5q50 0 78.5 11.5t28.5 31.5q0 14 -9.5 21t-29.5 7h-121q-19 0 -29.5 -8t-10.5 -23z" />
    <glyph glyph-name="Euro.lt" 
d="M95 238h-76v90h66q-1 5 -1 11.5v19.5v22t1 13h-66v90h77q25 116 93.5 180.5t167.5 64.5q86 0 148.5 -47.5t88.5 -132.5l-112 -46q-18 65 -47.5 92t-77.5 27q-52 0 -88 -35t-53 -103h214l-20 -90h-206q-1 -6 -1 -13v-22v-19.5t1 -11.5h191l-19 -90h-161q17 -69 53 -105.5
t89 -36.5q48 0 77.5 27t47.5 92l112 -46q-26 -85 -88.5 -132.5t-148.5 -47.5q-100 0 -169 65.5t-93 183.5z" />
    <glyph glyph-name="dollar.lt" 
d="M9 137l94 80q32 -54 72 -84.5t90 -39.5v225q-58 12 -93 24.5t-60 30.5q-34 24 -50.5 59t-16.5 82q0 85 60.5 143t159.5 69v96h95v-96q76 -9 135 -42.5t88 -84.5l-87 -82q-25 43 -59 70.5t-77 37.5v-208q60 -12 95.5 -25t61.5 -32q34 -25 51 -61t17 -85q0 -88 -62 -148
t-163 -74v-98h-95v97q-85 9 -152 47.5t-104 98.5zM159 527q0 -34 24.5 -55.5t81.5 -35.5v192q-51 -9 -78.5 -35t-27.5 -66zM469 203q0 35 -25 58t-84 38v-206q52 10 80.5 38.5t28.5 71.5z" />
    <glyph glyph-name="cent.lt" 
d="M362 -106h-91v100q-98 18 -156.5 92.5t-58.5 182.5q0 107 58.5 181.5t156.5 92.5v114h91v-111q71 -9 122.5 -49t75.5 -104l-96 -55q-12 45 -38 72.5t-64 35.5v-355q38 8 64 35.5t38 72.5l96 -55q-24 -64 -75.5 -104t-122.5 -49v-97zM170 269q0 -66 26.5 -111.5
t74.5 -61.5v345q-48 -16 -74.5 -61.5t-26.5 -110.5z" />
    <glyph glyph-name="sterling.lt" 
d="M195 285h-128v95h73q-20 33 -29 61.5t-9 56.5q0 50 18.5 93t52.5 75q33 31 77.5 47t95.5 16q103 0 167.5 -64t64.5 -165q0 -19 -2.5 -37t-9.5 -41h-117q7 16 10.5 34t3.5 37q0 59 -31.5 94.5t-85.5 35.5q-56 0 -90.5 -36.5t-34.5 -95.5q0 -23 7.5 -45t32.5 -66h148v-95
h-105q4 -15 6 -31t2 -33q0 -18 -2.5 -36t-7.5 -36q32 -27 57.5 -38t52.5 -11q41 0 60.5 24.5t22.5 79.5h104q0 -98 -45.5 -156.5t-123.5 -58.5q-46 0 -86.5 17t-81.5 55q-25 -35 -57.5 -53.5t-70.5 -18.5q-57 0 -93 34t-35 88t38.5 88.5t96.5 34.5q18 0 34.5 -4t35.5 -13
q-1 17 -5 34t-11 34zM143 151q-19 0 -30 -10t-11 -28q0 -15 10 -24.5t25 -9.5q18 0 32.5 12t24.5 35q-15 13 -27 19t-24 6z" />
    <glyph glyph-name="yen.lt" 
d="M245 180h-171v90h171v66h-171v90h123l-184 292h137l156 -266l157 266h133l-184 -292h123v-90h-171v-66h171v-90h-171v-180h-119v180z" />
    <glyph glyph-name="florin.lt" 
d="M243 342h-97v86h108l14 101q13 97 63.5 148.5t133.5 51.5q38 0 70.5 -12t56.5 -34l-46 -87q-12 15 -29.5 23.5t-35.5 8.5q-34 0 -56 -26t-29 -75l-14 -99h111v-86h-123l-21 -153q-11 -97 -61.5 -148.5t-134.5 -51.5q-37 0 -70 12t-58 34l47 87q12 -14 29.5 -23t35.5 -9
q34 0 55.5 25.5t29.5 75.5z" />
    <glyph glyph-name="zero.lt" 
d="M304 -11q-125 0 -198 100.5t-73 269.5t73 269.5t198 100.5t198 -100.5t73 -269.5t-73 -269.5t-198 -100.5zM304 620q-69 0 -107 -69.5t-38 -191.5t38 -191.5t107 -69.5t107 69.5t38 191.5t-38 191.5t-107 69.5z" />
    <glyph glyph-name="one.lt" 
d="M295 723h97v-616h166v-107h-477v107h188v391h-184v93l73 6q72 6 102 34t35 92z" />
    <glyph glyph-name="two.lt" 
d="M52 0v104l180 148q55 45 78 65.5t40 38.5q35 37 51.5 70.5t16.5 66.5q0 57 -33.5 92t-88.5 35q-54 0 -89 -37t-35 -93q0 -17 3 -34.5t9 -33.5h-119q-7 21 -10 37.5t-3 37.5q0 49 19 92t55 76q34 31 79 47.5t94 16.5q111 0 178.5 -62.5t67.5 -165.5q0 -44 -15.5 -85.5
t-47.5 -82.5q-22 -28 -53 -57t-81 -69l-120 -95h326v-112h-502z" />
    <glyph glyph-name="three.lt" 
d="M484 43q-34 -26 -78.5 -40t-95.5 -14q-112 0 -185.5 58.5t-88.5 161.5l123 23q9 -63 49.5 -100t99.5 -37q61 0 97 31t36 85q0 51 -36.5 78t-104.5 27h-71v108h73q60 0 92 24.5t32 70.5q0 48 -31 76t-84 28q-55 0 -92.5 -35.5t-48.5 -96.5l-115 21q15 97 85.5 157
t173.5 60q106 0 169.5 -55.5t63.5 -145.5q0 -52 -30 -95t-77 -60q59 -19 91.5 -63t32.5 -107q0 -47 -21 -88.5t-59 -71.5z" />
    <glyph glyph-name="four.lt" 
d="M464 177v-177h-115v177h-329v98l286 443h160v-437h122v-104h-124zM347 596l-199 -315h199v315z" />
    <glyph glyph-name="five.lt" 
d="M308 375q-35 0 -64.5 -14t-47.5 -39l-116 16l32 380h404v-112h-306l-16 -176q25 23 59 36t72 13q52 0 95.5 -18t75.5 -52q30 -32 46.5 -76.5t16.5 -95.5q0 -52 -19.5 -98t-56.5 -81q-35 -33 -82 -51t-100 -18q-108 0 -178.5 57t-87.5 159l123 22q9 -61 47.5 -96.5
t95.5 -35.5q59 0 98.5 39.5t39.5 98.5q0 62 -36.5 102t-94.5 40z" />
    <glyph glyph-name="six.lt" 
d="M340 729q88 0 147.5 -42t86.5 -123l-103 -45q-15 50 -50.5 77t-85.5 27q-74 0 -122.5 -65t-51.5 -167q29 40 76 62.5t103 22.5q49 0 91.5 -18t75.5 -51q32 -33 49 -76.5t17 -92.5q0 -52 -19 -98.5t-55 -80.5q-35 -34 -82 -52t-100 -18q-69 0 -123 30t-90 87
q-29 47 -44.5 109.5t-15.5 134.5q0 76 17.5 141.5t51.5 115.5q40 59 98 90.5t129 31.5zM317 92q60 0 100 39.5t40 99.5q0 59 -40 99.5t-99 40.5t-100 -40.5t-41 -99.5q0 -60 40 -99.5t100 -39.5z" />
    <glyph glyph-name="seven.lt" 
d="M445 608h-299v-114h-111v224h545v-111q-63 -69 -105.5 -137.5t-67.5 -142.5q-23 -68 -34 -146.5t-11 -180.5h-130q0 192 51.5 339.5t161.5 268.5z" />
    <glyph glyph-name="eight.lt" 
d="M70 531q0 88 66 143t168 55t168 -55t66 -143q0 -52 -26.5 -91.5t-76.5 -62.5q63 -20 101.5 -68t38.5 -110q0 -93 -75.5 -151.5t-195.5 -58.5t-195.5 58.5t-75.5 151.5q0 62 38.5 110t101.5 68q-50 23 -76.5 62.5t-26.5 91.5zM184 529q0 -45 33 -73t87 -28t87 27.5
t33 73.5q0 45 -33 73t-87 28q-53 0 -86.5 -28t-33.5 -73zM450 208q0 51 -41 83.5t-105 32.5t-104.5 -32.5t-40.5 -83.5q0 -53 40 -85.5t105 -32.5t105.5 32.5t40.5 85.5z" />
    <glyph glyph-name="nine.lt" 
d="M268 -11q-88 0 -147.5 42t-86.5 123l103 45q15 -50 50.5 -77t85.5 -27q74 0 122.5 65t51.5 167q-29 -40 -76 -62.5t-103 -22.5q-49 0 -91.5 18t-75.5 51q-32 33 -49 76.5t-17 92.5q0 52 19 98.5t55 80.5q35 34 82 52t100 18q69 0 123 -30t90 -87q29 -47 44.5 -109.5
t15.5 -134.5q0 -76 -17.5 -141.5t-51.5 -115.5q-40 -59 -98 -90.5t-129 -31.5zM291 626q-60 0 -100 -39.5t-40 -99.5q0 -59 40 -99.5t99 -40.5t100 40.5t41 99.5q0 60 -40 99.5t-100 39.5z" />
    <glyph glyph-name="period.tab" horiz-adv-x="304" 
d="M224 0h-145v145h145v-145z" />
    <glyph glyph-name="comma.tab" horiz-adv-x="304" 
d="M145 0h-66v145h145v-152q0 -62 -39 -98.5t-106 -37.5v67q34 2 50 18.5t16 49.5v8z" />
    <glyph glyph-name="colon.tab" horiz-adv-x="217" 
d="M224 0h-145v145h145v-145zM224 349h-145v145h145v-145z" />
    <glyph glyph-name="semicolon.tab" horiz-adv-x="217" 
d="M224 349h-145v145h145v-145zM145 0h-66v145h145v-152q0 -62 -39 -98.5t-106 -37.5v67q34 2 50 18.5t16 49.5v8z" />
    <glyph glyph-name="space.tab" horiz-adv-x="304" 
 />
    <glyph glyph-name="percent.lt" 
d="M138 376q-59 0 -92.5 47.5t-33.5 129.5q0 81 33.5 128.5t92.5 47.5t93 -47.5t34 -128.5q0 -82 -34 -129.5t-93 -47.5zM120 0h-111l479 718h111zM138 456q22 0 33 24t11 73t-11 73t-33 24t-33 -24.5t-11 -72.5q0 -49 11 -73t33 -24zM469 342q59 0 92.5 -47.5t33.5 -129.5
q0 -81 -33.5 -128.5t-92.5 -47.5t-93 47.5t-34 128.5q0 82 34 129.5t93 47.5zM469 262q-22 0 -33 -24t-11 -73t11 -73t33 -24t33 24.5t11 72.5q0 49 -11 73t-33 24z" />
    <glyph glyph-name="baht.lt" 
d="M246 0h-198v718h198v104h95v-104q106 -4 162 -52.5t56 -136.5q0 -56 -26.5 -96t-75.5 -59q59 -19 92 -65t33 -109q0 -93 -64.5 -146.5t-176.5 -53.5v-106h-95v106zM165 612v-192h81v192h-81zM444 516q0 42 -26 66t-77 29v-190q51 5 77 29t26 66zM246 314h-81v-208h81v208
zM465 211q0 47 -33.5 75t-90.5 28v-208q57 0 90.5 28.5t33.5 76.5z" />
    <glyph glyph-name="dong.lt" 
d="M244 64q-87 0 -140.5 60t-53.5 155t53.5 155.5t140.5 60.5q38 0 68 -13t51 -39v95h-157v92h157v88h118v-88h100v-92h-100v-465h-118v43q-21 -26 -51 -39t-68 -13zM366 267v24q0 51 -27 81t-72 30q-46 0 -72 -33t-26 -90t26 -89.5t72 -32.5q45 0 72 30t27 80zM481 -92
h-401v92h401v-92z" />
    <glyph glyph-name="franc.lt" 
d="M120 128h-100v102h100v488h459v-112h-333v-165h276v-112h-276v-99h136v-102h-136v-128h-126v128z" />
    <glyph glyph-name="naira.lt" 
d="M85 238h-70v90h70v66h-70v90h70v234h131l188 -434v434h119v-234h70v-90h-70v-66h70v-90h-70v-238h-109l-210 485v-485h-119v238z" />
    <glyph glyph-name="peseta.lt" 
d="M261 205h-48v-205h-128v414h-70v95h70v209h176q113 0 183.5 -55t84.5 -154h73v-95h-73q-15 -99 -86 -154t-182 -55zM260 620h-47v-111h197q-12 54 -50.5 82.5t-99.5 28.5zM213 414v-111h47q59 0 98 29t52 82h-197z" />
    <glyph glyph-name="peso.lt" 
d="M265 205h-52v-205h-128v328h-70v90h70v66h-70v90h70v144h180q92 0 157.5 -37.5t93.5 -106.5h82v-90h-63q1 -4 1 -8.5v-13.5q0 -11 -1 -22.5t-2 -21.5h65v-90h-93q-32 -60 -94 -91.5t-146 -31.5zM213 620v-317h51q72 0 113.5 42.5t41.5 117.5t-41 116t-114 41h-51z" />
    <glyph glyph-name="uni20BD.lt" 
d="M85 146h-70v90h70v66h-70v90h70v326h238q120 0 187 -55.5t67 -155.5q0 -98 -66.5 -151.5t-187.5 -53.5h-110v-66h132v-90h-132v-146h-128v146zM213 614v-222h101q66 0 102 29t36 82q0 54 -35.5 82.5t-102.5 28.5h-101z" />
    <glyph glyph-name="uni20B9.lt" 
d="M324 423h-272v102h272q-12 44 -46.5 67.5t-87.5 23.5h-138v102h503v-102h-162q16 -17 28 -40.5t18 -50.5h116v-102h-116q-10 -53 -40 -94t-79 -66l217 -263h-146l-189 231q-5 -1 -10.5 -1h-17.5h-122v102h138q52 0 87 23.5t47 67.5z" />
    <glyph glyph-name="uni20BA.lt" 
d="M202 115h62q106 0 155.5 54.5t49.5 170.5h113q0 -160 -83.5 -250t-234.5 -90h-179v234l-70 -30v104l70 30v70l-70 -30v104l70 30v206h117v-164l157 67v-104l-157 -67v-70l157 67v-104l-157 -67v-161z" />
    <glyph glyph-name="won.lt" 
d="M106 238h-98v90h88l-8 66h-80v90h70l-27 234h99l49 -537l66 417h81l66 -417l48 537h97l-27 -234h70v-90h-80l-8 -66h88v-90h-98l-28 -238h-91l-79 483l-79 -483h-91z" />
    <glyph glyph-name="zero.slash" horiz-adv-x="632" 
d="M316 -11q-130 0 -206 100.5t-76 269.5t76 269.5t206 100.5t206 -100.5t76 -269.5t-76 -269.5t-206 -100.5zM316 623q-76 0 -117.5 -69.5t-41.5 -194.5q0 -19 1 -38.5t4 -39.5l278 260q-20 41 -51.5 61.5t-72.5 20.5zM316 95q76 0 117.5 69.5t41.5 194.5q0 19 -1 38.5
t-4 39.5l-278 -260q20 -41 51.5 -61.5t72.5 -20.5z" />
    <glyph glyph-name="zero.slash.lt" 
d="M304 -11q-125 0 -198 100.5t-73 269.5t73 269.5t198 100.5t198 -100.5t73 -269.5t-73 -269.5t-198 -100.5zM304 625q-71 0 -110 -70.5t-39 -195.5q0 -21 1 -38t3 -32l264 247q-19 44 -49 66.5t-70 22.5zM304 93q71 0 110 70.5t39 195.5q0 21 -1 38t-3 32l-264 -247
q19 -44 49 -66.5t70 -22.5z" />
    </font>
</defs>
</svg>
