<svg width="136" height="22" viewBox="0 0 136 22" fill="none" xmlns="http://www.w3.org/2000/svg">
  <path fill-rule="evenodd" clip-rule="evenodd" d="M121.913 1.40211C122.566 -0.46737 125.434 -0.467372 126.087 1.40211L127.904 6.6016L133.803 6.6016C135.923 6.6016 136.809 9.1014 135.098 10.2568L130.312 13.4896L132.137 18.7107C132.789 20.5771 130.47 22.1222 128.754 20.9637L124 17.7526L119.246 20.9637C117.53 22.1222 115.211 20.5771 115.863 18.7107L117.688 13.4896L112.902 10.2568C111.191 9.1014 112.077 6.6016 114.197 6.6016H120.096L121.913 1.40211ZM125.817 7.22242L124 2.02294L122.183 7.22242C121.891 8.05811 121.047 8.62454 120.096 8.62454H114.197L118.983 11.8573C119.746 12.3725 120.065 13.2805 119.775 14.1104L117.95 19.3315L122.705 16.1203C123.476 15.5994 124.524 15.5994 125.295 16.1203L130.05 19.3315L128.225 14.1104C127.935 13.2805 128.254 12.3725 129.017 11.8573L133.803 8.62454H127.904C126.953 8.62454 126.109 8.05811 125.817 7.22242Z" fill="url(#paint0_linear_4186_13001)"/>
  <path fill-rule="evenodd" clip-rule="evenodd" d="M93.913 1.40211C94.5665 -0.46737 97.4335 -0.467372 98.087 1.40211L99.9043 6.6016L105.803 6.6016C107.923 6.6016 108.809 9.1014 107.098 10.2568L102.312 13.4896L104.137 18.7107C104.789 20.5771 102.47 22.1222 100.754 20.9637L96 17.7526L91.2456 20.9637C89.5303 22.1222 87.2109 20.5771 87.8633 18.7107L89.6882 13.4896L84.9017 10.2568C83.191 9.1014 84.0768 6.6016 86.197 6.6016H92.0957L93.913 1.40211Z" fill="url(#paint1_linear_4186_13001)"/>
  <path fill-rule="evenodd" clip-rule="evenodd" d="M65.913 1.40211C66.5665 -0.46737 69.4335 -0.467372 70.087 1.40211L71.9043 6.6016L77.803 6.6016C79.9232 6.6016 80.809 9.1014 79.0983 10.2568L74.3118 13.4896L76.1367 18.7107C76.7891 20.5771 74.4697 22.1222 72.7544 20.9637L68 17.7526L63.2456 20.9637C61.5303 22.1222 59.2109 20.5771 59.8633 18.7107L61.6882 13.4896L56.9017 10.2568C55.191 9.1014 56.0768 6.6016 58.197 6.6016H64.0957L65.913 1.40211Z" fill="url(#paint2_linear_4186_13001)"/>
  <path fill-rule="evenodd" clip-rule="evenodd" d="M37.913 1.40211C38.5665 -0.46737 41.4335 -0.467372 42.087 1.40211L43.9043 6.6016L49.803 6.6016C51.9232 6.6016 52.809 9.1014 51.0983 10.2568L46.3118 13.4896L48.1367 18.7107C48.7891 20.5771 46.4697 22.1222 44.7544 20.9637L40 17.7526L35.2456 20.9637C33.5303 22.1222 31.2109 20.5771 31.8633 18.7107L33.6882 13.4896L28.9017 10.2568C27.191 9.1014 28.0768 6.6016 30.197 6.6016H36.0957L37.913 1.40211Z" fill="url(#paint3_linear_4186_13001)"/>
  <path fill-rule="evenodd" clip-rule="evenodd" d="M9.91304 1.40211C10.5665 -0.46737 13.4335 -0.467372 14.087 1.40211L15.9043 6.6016L21.803 6.6016C23.9232 6.6016 24.809 9.1014 23.0983 10.2568L18.3118 13.4896L20.1367 18.7107C20.7891 20.5771 18.4697 22.1222 16.7544 20.9637L12 17.7526L7.24556 20.9637C5.53035 22.1222 3.21092 20.5771 3.8633 18.7107L5.68818 13.4896L0.901679 10.2568C-0.809014 9.1014 0.0768454 6.6016 2.19699 6.6016H8.0957L9.91304 1.40211Z" fill="url(#paint4_linear_4186_13001)"/>
  <path d="M124 17L117 21L119 14L114 9.62905V8L122 7L124 1L128 8V20L124 17Z" fill="url(#paint5_linear_4186_13001)"/>
  <defs>
    <linearGradient id="paint0_linear_4186_13001" x1="136" y1="0" x2="114.78" y2="23.8384" gradientUnits="userSpaceOnUse">
      <stop stop-color="#769EFF"/>
      <stop offset="1" stop-color="#C57DA8"/>
    </linearGradient>
    <linearGradient id="paint1_linear_4186_13001" x1="108" y1="0" x2="86.7802" y2="23.8384" gradientUnits="userSpaceOnUse">
      <stop stop-color="#769EFF"/>
      <stop offset="1" stop-color="#C57DA8"/>
    </linearGradient>
    <linearGradient id="paint2_linear_4186_13001" x1="80" y1="0" x2="58.7802" y2="23.8384" gradientUnits="userSpaceOnUse">
      <stop stop-color="#769EFF"/>
      <stop offset="1" stop-color="#C57DA8"/>
    </linearGradient>
    <linearGradient id="paint3_linear_4186_13001" x1="52" y1="0" x2="30.7802" y2="23.8384" gradientUnits="userSpaceOnUse">
      <stop stop-color="#769EFF"/>
      <stop offset="1" stop-color="#C57DA8"/>
    </linearGradient>
    <linearGradient id="paint4_linear_4186_13001" x1="24" y1="0" x2="2.78024" y2="23.8384" gradientUnits="userSpaceOnUse">
      <stop stop-color="#769EFF"/>
      <stop offset="1" stop-color="#C57DA8"/>
    </linearGradient>
    <linearGradient id="paint5_linear_4186_13001" x1="128" y1="1" x2="109.208" y2="14.1544" gradientUnits="userSpaceOnUse">
      <stop stop-color="#769EFF"/>
      <stop offset="1" stop-color="#C57DA8"/>
    </linearGradient>
  </defs>
</svg>
